<?xml version="1.0" encoding="utf-8" standalone="no"?>
<!DOCTYPE svg PUBLIC "-//W3C//DTD SVG 1.1//EN"
  "http://www.w3.org/Graphics/SVG/1.1/DTD/svg11.dtd">
<svg xmlns:xlink="http://www.w3.org/1999/xlink" width="720pt" height="288pt" viewBox="0 0 720 288" xmlns="http://www.w3.org/2000/svg" version="1.1">
 <metadata>
  <rdf:RDF xmlns:dc="http://purl.org/dc/elements/1.1/" xmlns:cc="http://creativecommons.org/ns#" xmlns:rdf="http://www.w3.org/1999/02/22-rdf-syntax-ns#">
   <cc:Work>
    <dc:type rdf:resource="http://purl.org/dc/dcmitype/StillImage"/>
    <dc:date>2025-04-15T16:30:21.181344</dc:date>
    <dc:format>image/svg+xml</dc:format>
    <dc:creator>
     <cc:Agent>
      <dc:title>Matplotlib v3.9.2, https://matplotlib.org/</dc:title>
     </cc:Agent>
    </dc:creator>
   </cc:Work>
  </rdf:RDF>
 </metadata>
 <defs>
  <style type="text/css">*{stroke-linejoin: round; stroke-linecap: butt}</style>
 </defs>
 <g id="figure_1">
  <g id="patch_1">
   <path d="M 0 288 
L 720 288 
L 720 0 
L 0 0 
z
" style="fill: #ffffff"/>
  </g>
  <g id="axes_1">
   <g id="patch_2">
    <path d="M 55.19 238.84 
L 709.2 238.84 
L 709.2 10.8 
L 55.19 10.8 
z
" style="fill: #ffffff"/>
   </g>
   <g id="matplotlib.axis_1">
    <g id="xtick_1">
     <g id="line2d_1">
      <path d="M 84.917727 238.84 
L 84.917727 10.8 
" clip-path="url(#p6477c21d0c)" style="fill: none; stroke: #b0b0b0; stroke-width: 0.8; stroke-linecap: square"/>
     </g>
     <g id="line2d_2">
      <defs>
       <path id="meed51e862d" d="M 0 0 
L 0 3.5 
" style="stroke: #000000; stroke-width: 0.8"/>
      </defs>
      <g>
       <use xlink:href="#meed51e862d" x="84.917727" y="238.84" style="stroke: #000000; stroke-width: 0.8"/>
      </g>
     </g>
     <g id="text_1">
      <!-- 0 -->
      <g transform="translate(81.100227 254.958125) scale(0.12 -0.12)">
       <defs>
        <path id="DejaVuSans-30" d="M 2034 4250 
Q 1547 4250 1301 3770 
Q 1056 3291 1056 2328 
Q 1056 1369 1301 889 
Q 1547 409 2034 409 
Q 2525 409 2770 889 
Q 3016 1369 3016 2328 
Q 3016 3291 2770 3770 
Q 2525 4250 2034 4250 
z
M 2034 4750 
Q 2819 4750 3233 4129 
Q 3647 3509 3647 2328 
Q 3647 1150 3233 529 
Q 2819 -91 2034 -91 
Q 1250 -91 836 529 
Q 422 1150 422 2328 
Q 422 3509 836 4129 
Q 1250 4750 2034 4750 
z
" transform="scale(0.015625)"/>
       </defs>
       <use xlink:href="#DejaVuSans-30"/>
      </g>
     </g>
    </g>
    <g id="xtick_2">
     <g id="line2d_3">
      <path d="M 192.044672 238.84 
L 192.044672 10.8 
" clip-path="url(#p6477c21d0c)" style="fill: none; stroke: #b0b0b0; stroke-width: 0.8; stroke-linecap: square"/>
     </g>
     <g id="line2d_4">
      <g>
       <use xlink:href="#meed51e862d" x="192.044672" y="238.84" style="stroke: #000000; stroke-width: 0.8"/>
      </g>
     </g>
     <g id="text_2">
      <!-- 200 -->
      <g transform="translate(180.592172 254.958125) scale(0.12 -0.12)">
       <defs>
        <path id="DejaVuSans-32" d="M 1228 531 
L 3431 531 
L 3431 0 
L 469 0 
L 469 531 
Q 828 903 1448 1529 
Q 2069 2156 2228 2338 
Q 2531 2678 2651 2914 
Q 2772 3150 2772 3378 
Q 2772 3750 2511 3984 
Q 2250 4219 1831 4219 
Q 1534 4219 1204 4116 
Q 875 4013 500 3803 
L 500 4441 
Q 881 4594 1212 4672 
Q 1544 4750 1819 4750 
Q 2544 4750 2975 4387 
Q 3406 4025 3406 3419 
Q 3406 3131 3298 2873 
Q 3191 2616 2906 2266 
Q 2828 2175 2409 1742 
Q 1991 1309 1228 531 
z
" transform="scale(0.015625)"/>
       </defs>
       <use xlink:href="#DejaVuSans-32"/>
       <use xlink:href="#DejaVuSans-30" x="63.623047"/>
       <use xlink:href="#DejaVuSans-30" x="127.246094"/>
      </g>
     </g>
    </g>
    <g id="xtick_3">
     <g id="line2d_5">
      <path d="M 299.171618 238.84 
L 299.171618 10.8 
" clip-path="url(#p6477c21d0c)" style="fill: none; stroke: #b0b0b0; stroke-width: 0.8; stroke-linecap: square"/>
     </g>
     <g id="line2d_6">
      <g>
       <use xlink:href="#meed51e862d" x="299.171618" y="238.84" style="stroke: #000000; stroke-width: 0.8"/>
      </g>
     </g>
     <g id="text_3">
      <!-- 400 -->
      <g transform="translate(287.719118 254.958125) scale(0.12 -0.12)">
       <defs>
        <path id="DejaVuSans-34" d="M 2419 4116 
L 825 1625 
L 2419 1625 
L 2419 4116 
z
M 2253 4666 
L 3047 4666 
L 3047 1625 
L 3713 1625 
L 3713 1100 
L 3047 1100 
L 3047 0 
L 2419 0 
L 2419 1100 
L 313 1100 
L 313 1709 
L 2253 4666 
z
" transform="scale(0.015625)"/>
       </defs>
       <use xlink:href="#DejaVuSans-34"/>
       <use xlink:href="#DejaVuSans-30" x="63.623047"/>
       <use xlink:href="#DejaVuSans-30" x="127.246094"/>
      </g>
     </g>
    </g>
    <g id="xtick_4">
     <g id="line2d_7">
      <path d="M 406.298563 238.84 
L 406.298563 10.8 
" clip-path="url(#p6477c21d0c)" style="fill: none; stroke: #b0b0b0; stroke-width: 0.8; stroke-linecap: square"/>
     </g>
     <g id="line2d_8">
      <g>
       <use xlink:href="#meed51e862d" x="406.298563" y="238.84" style="stroke: #000000; stroke-width: 0.8"/>
      </g>
     </g>
     <g id="text_4">
      <!-- 600 -->
      <g transform="translate(394.846063 254.958125) scale(0.12 -0.12)">
       <defs>
        <path id="DejaVuSans-36" d="M 2113 2584 
Q 1688 2584 1439 2293 
Q 1191 2003 1191 1497 
Q 1191 994 1439 701 
Q 1688 409 2113 409 
Q 2538 409 2786 701 
Q 3034 994 3034 1497 
Q 3034 2003 2786 2293 
Q 2538 2584 2113 2584 
z
M 3366 4563 
L 3366 3988 
Q 3128 4100 2886 4159 
Q 2644 4219 2406 4219 
Q 1781 4219 1451 3797 
Q 1122 3375 1075 2522 
Q 1259 2794 1537 2939 
Q 1816 3084 2150 3084 
Q 2853 3084 3261 2657 
Q 3669 2231 3669 1497 
Q 3669 778 3244 343 
Q 2819 -91 2113 -91 
Q 1303 -91 875 529 
Q 447 1150 447 2328 
Q 447 3434 972 4092 
Q 1497 4750 2381 4750 
Q 2619 4750 2861 4703 
Q 3103 4656 3366 4563 
z
" transform="scale(0.015625)"/>
       </defs>
       <use xlink:href="#DejaVuSans-36"/>
       <use xlink:href="#DejaVuSans-30" x="63.623047"/>
       <use xlink:href="#DejaVuSans-30" x="127.246094"/>
      </g>
     </g>
    </g>
    <g id="xtick_5">
     <g id="line2d_9">
      <path d="M 513.425508 238.84 
L 513.425508 10.8 
" clip-path="url(#p6477c21d0c)" style="fill: none; stroke: #b0b0b0; stroke-width: 0.8; stroke-linecap: square"/>
     </g>
     <g id="line2d_10">
      <g>
       <use xlink:href="#meed51e862d" x="513.425508" y="238.84" style="stroke: #000000; stroke-width: 0.8"/>
      </g>
     </g>
     <g id="text_5">
      <!-- 800 -->
      <g transform="translate(501.973008 254.958125) scale(0.12 -0.12)">
       <defs>
        <path id="DejaVuSans-38" d="M 2034 2216 
Q 1584 2216 1326 1975 
Q 1069 1734 1069 1313 
Q 1069 891 1326 650 
Q 1584 409 2034 409 
Q 2484 409 2743 651 
Q 3003 894 3003 1313 
Q 3003 1734 2745 1975 
Q 2488 2216 2034 2216 
z
M 1403 2484 
Q 997 2584 770 2862 
Q 544 3141 544 3541 
Q 544 4100 942 4425 
Q 1341 4750 2034 4750 
Q 2731 4750 3128 4425 
Q 3525 4100 3525 3541 
Q 3525 3141 3298 2862 
Q 3072 2584 2669 2484 
Q 3125 2378 3379 2068 
Q 3634 1759 3634 1313 
Q 3634 634 3220 271 
Q 2806 -91 2034 -91 
Q 1263 -91 848 271 
Q 434 634 434 1313 
Q 434 1759 690 2068 
Q 947 2378 1403 2484 
z
M 1172 3481 
Q 1172 3119 1398 2916 
Q 1625 2713 2034 2713 
Q 2441 2713 2670 2916 
Q 2900 3119 2900 3481 
Q 2900 3844 2670 4047 
Q 2441 4250 2034 4250 
Q 1625 4250 1398 4047 
Q 1172 3844 1172 3481 
z
" transform="scale(0.015625)"/>
       </defs>
       <use xlink:href="#DejaVuSans-38"/>
       <use xlink:href="#DejaVuSans-30" x="63.623047"/>
       <use xlink:href="#DejaVuSans-30" x="127.246094"/>
      </g>
     </g>
    </g>
    <g id="xtick_6">
     <g id="line2d_11">
      <path d="M 620.552453 238.84 
L 620.552453 10.8 
" clip-path="url(#p6477c21d0c)" style="fill: none; stroke: #b0b0b0; stroke-width: 0.8; stroke-linecap: square"/>
     </g>
     <g id="line2d_12">
      <g>
       <use xlink:href="#meed51e862d" x="620.552453" y="238.84" style="stroke: #000000; stroke-width: 0.8"/>
      </g>
     </g>
     <g id="text_6">
      <!-- 1000 -->
      <g transform="translate(605.282453 254.958125) scale(0.12 -0.12)">
       <defs>
        <path id="DejaVuSans-31" d="M 794 531 
L 1825 531 
L 1825 4091 
L 703 3866 
L 703 4441 
L 1819 4666 
L 2450 4666 
L 2450 531 
L 3481 531 
L 3481 0 
L 794 0 
L 794 531 
z
" transform="scale(0.015625)"/>
       </defs>
       <use xlink:href="#DejaVuSans-31"/>
       <use xlink:href="#DejaVuSans-30" x="63.623047"/>
       <use xlink:href="#DejaVuSans-30" x="127.246094"/>
       <use xlink:href="#DejaVuSans-30" x="190.869141"/>
      </g>
     </g>
    </g>
    <g id="text_7">
     <!-- Samples -->
     <g transform="translate(348.03 273.61125) scale(0.16 -0.16)">
      <defs>
       <path id="DejaVuSans-53" d="M 3425 4513 
L 3425 3897 
Q 3066 4069 2747 4153 
Q 2428 4238 2131 4238 
Q 1616 4238 1336 4038 
Q 1056 3838 1056 3469 
Q 1056 3159 1242 3001 
Q 1428 2844 1947 2747 
L 2328 2669 
Q 3034 2534 3370 2195 
Q 3706 1856 3706 1288 
Q 3706 609 3251 259 
Q 2797 -91 1919 -91 
Q 1588 -91 1214 -16 
Q 841 59 441 206 
L 441 856 
Q 825 641 1194 531 
Q 1563 422 1919 422 
Q 2459 422 2753 634 
Q 3047 847 3047 1241 
Q 3047 1584 2836 1778 
Q 2625 1972 2144 2069 
L 1759 2144 
Q 1053 2284 737 2584 
Q 422 2884 422 3419 
Q 422 4038 858 4394 
Q 1294 4750 2059 4750 
Q 2388 4750 2728 4690 
Q 3069 4631 3425 4513 
z
" transform="scale(0.015625)"/>
       <path id="DejaVuSans-61" d="M 2194 1759 
Q 1497 1759 1228 1600 
Q 959 1441 959 1056 
Q 959 750 1161 570 
Q 1363 391 1709 391 
Q 2188 391 2477 730 
Q 2766 1069 2766 1631 
L 2766 1759 
L 2194 1759 
z
M 3341 1997 
L 3341 0 
L 2766 0 
L 2766 531 
Q 2569 213 2275 61 
Q 1981 -91 1556 -91 
Q 1019 -91 701 211 
Q 384 513 384 1019 
Q 384 1609 779 1909 
Q 1175 2209 1959 2209 
L 2766 2209 
L 2766 2266 
Q 2766 2663 2505 2880 
Q 2244 3097 1772 3097 
Q 1472 3097 1187 3025 
Q 903 2953 641 2809 
L 641 3341 
Q 956 3463 1253 3523 
Q 1550 3584 1831 3584 
Q 2591 3584 2966 3190 
Q 3341 2797 3341 1997 
z
" transform="scale(0.015625)"/>
       <path id="DejaVuSans-6d" d="M 3328 2828 
Q 3544 3216 3844 3400 
Q 4144 3584 4550 3584 
Q 5097 3584 5394 3201 
Q 5691 2819 5691 2113 
L 5691 0 
L 5113 0 
L 5113 2094 
Q 5113 2597 4934 2840 
Q 4756 3084 4391 3084 
Q 3944 3084 3684 2787 
Q 3425 2491 3425 1978 
L 3425 0 
L 2847 0 
L 2847 2094 
Q 2847 2600 2669 2842 
Q 2491 3084 2119 3084 
Q 1678 3084 1418 2786 
Q 1159 2488 1159 1978 
L 1159 0 
L 581 0 
L 581 3500 
L 1159 3500 
L 1159 2956 
Q 1356 3278 1631 3431 
Q 1906 3584 2284 3584 
Q 2666 3584 2933 3390 
Q 3200 3197 3328 2828 
z
" transform="scale(0.015625)"/>
       <path id="DejaVuSans-70" d="M 1159 525 
L 1159 -1331 
L 581 -1331 
L 581 3500 
L 1159 3500 
L 1159 2969 
Q 1341 3281 1617 3432 
Q 1894 3584 2278 3584 
Q 2916 3584 3314 3078 
Q 3713 2572 3713 1747 
Q 3713 922 3314 415 
Q 2916 -91 2278 -91 
Q 1894 -91 1617 61 
Q 1341 213 1159 525 
z
M 3116 1747 
Q 3116 2381 2855 2742 
Q 2594 3103 2138 3103 
Q 1681 3103 1420 2742 
Q 1159 2381 1159 1747 
Q 1159 1113 1420 752 
Q 1681 391 2138 391 
Q 2594 391 2855 752 
Q 3116 1113 3116 1747 
z
" transform="scale(0.015625)"/>
       <path id="DejaVuSans-6c" d="M 603 4863 
L 1178 4863 
L 1178 0 
L 603 0 
L 603 4863 
z
" transform="scale(0.015625)"/>
       <path id="DejaVuSans-65" d="M 3597 1894 
L 3597 1613 
L 953 1613 
Q 991 1019 1311 708 
Q 1631 397 2203 397 
Q 2534 397 2845 478 
Q 3156 559 3463 722 
L 3463 178 
Q 3153 47 2828 -22 
Q 2503 -91 2169 -91 
Q 1331 -91 842 396 
Q 353 884 353 1716 
Q 353 2575 817 3079 
Q 1281 3584 2069 3584 
Q 2775 3584 3186 3129 
Q 3597 2675 3597 1894 
z
M 3022 2063 
Q 3016 2534 2758 2815 
Q 2500 3097 2075 3097 
Q 1594 3097 1305 2825 
Q 1016 2553 972 2059 
L 3022 2063 
z
" transform="scale(0.015625)"/>
       <path id="DejaVuSans-73" d="M 2834 3397 
L 2834 2853 
Q 2591 2978 2328 3040 
Q 2066 3103 1784 3103 
Q 1356 3103 1142 2972 
Q 928 2841 928 2578 
Q 928 2378 1081 2264 
Q 1234 2150 1697 2047 
L 1894 2003 
Q 2506 1872 2764 1633 
Q 3022 1394 3022 966 
Q 3022 478 2636 193 
Q 2250 -91 1575 -91 
Q 1294 -91 989 -36 
Q 684 19 347 128 
L 347 722 
Q 666 556 975 473 
Q 1284 391 1588 391 
Q 1994 391 2212 530 
Q 2431 669 2431 922 
Q 2431 1156 2273 1281 
Q 2116 1406 1581 1522 
L 1381 1569 
Q 847 1681 609 1914 
Q 372 2147 372 2553 
Q 372 3047 722 3315 
Q 1072 3584 1716 3584 
Q 2034 3584 2315 3537 
Q 2597 3491 2834 3397 
z
" transform="scale(0.015625)"/>
      </defs>
      <use xlink:href="#DejaVuSans-53"/>
      <use xlink:href="#DejaVuSans-61" x="63.476562"/>
      <use xlink:href="#DejaVuSans-6d" x="124.755859"/>
      <use xlink:href="#DejaVuSans-70" x="222.167969"/>
      <use xlink:href="#DejaVuSans-6c" x="285.644531"/>
      <use xlink:href="#DejaVuSans-65" x="313.427734"/>
      <use xlink:href="#DejaVuSans-73" x="374.951172"/>
     </g>
    </g>
   </g>
   <g id="matplotlib.axis_2">
    <g id="ytick_1">
     <g id="line2d_13">
      <path d="M 55.19 227.968913 
L 709.2 227.968913 
" clip-path="url(#p6477c21d0c)" style="fill: none; stroke: #b0b0b0; stroke-width: 0.8; stroke-linecap: square"/>
     </g>
     <g id="line2d_14">
      <defs>
       <path id="m1d76608a9b" d="M 0 0 
L -3.5 0 
" style="stroke: #000000; stroke-width: 0.8"/>
      </defs>
      <g>
       <use xlink:href="#m1d76608a9b" x="55.19" y="227.968913" style="stroke: #000000; stroke-width: 0.8"/>
      </g>
     </g>
     <g id="text_8">
      <!-- 0.0 -->
      <g transform="translate(29.10625 232.527976) scale(0.12 -0.12)">
       <defs>
        <path id="DejaVuSans-2e" d="M 684 794 
L 1344 794 
L 1344 0 
L 684 0 
L 684 794 
z
" transform="scale(0.015625)"/>
       </defs>
       <use xlink:href="#DejaVuSans-30"/>
       <use xlink:href="#DejaVuSans-2e" x="63.623047"/>
       <use xlink:href="#DejaVuSans-30" x="95.410156"/>
      </g>
     </g>
    </g>
    <g id="ytick_2">
     <g id="line2d_15">
      <path d="M 55.19 201.964984 
L 709.2 201.964984 
" clip-path="url(#p6477c21d0c)" style="fill: none; stroke: #b0b0b0; stroke-width: 0.8; stroke-linecap: square"/>
     </g>
     <g id="line2d_16">
      <g>
       <use xlink:href="#m1d76608a9b" x="55.19" y="201.964984" style="stroke: #000000; stroke-width: 0.8"/>
      </g>
     </g>
     <g id="text_9">
      <!-- 0.5 -->
      <g transform="translate(29.10625 206.524047) scale(0.12 -0.12)">
       <defs>
        <path id="DejaVuSans-35" d="M 691 4666 
L 3169 4666 
L 3169 4134 
L 1269 4134 
L 1269 2991 
Q 1406 3038 1543 3061 
Q 1681 3084 1819 3084 
Q 2600 3084 3056 2656 
Q 3513 2228 3513 1497 
Q 3513 744 3044 326 
Q 2575 -91 1722 -91 
Q 1428 -91 1123 -41 
Q 819 9 494 109 
L 494 744 
Q 775 591 1075 516 
Q 1375 441 1709 441 
Q 2250 441 2565 725 
Q 2881 1009 2881 1497 
Q 2881 1984 2565 2268 
Q 2250 2553 1709 2553 
Q 1456 2553 1204 2497 
Q 953 2441 691 2322 
L 691 4666 
z
" transform="scale(0.015625)"/>
       </defs>
       <use xlink:href="#DejaVuSans-30"/>
       <use xlink:href="#DejaVuSans-2e" x="63.623047"/>
       <use xlink:href="#DejaVuSans-35" x="95.410156"/>
      </g>
     </g>
    </g>
    <g id="ytick_3">
     <g id="line2d_17">
      <path d="M 55.19 175.961055 
L 709.2 175.961055 
" clip-path="url(#p6477c21d0c)" style="fill: none; stroke: #b0b0b0; stroke-width: 0.8; stroke-linecap: square"/>
     </g>
     <g id="line2d_18">
      <g>
       <use xlink:href="#m1d76608a9b" x="55.19" y="175.961055" style="stroke: #000000; stroke-width: 0.8"/>
      </g>
     </g>
     <g id="text_10">
      <!-- 1.0 -->
      <g transform="translate(29.10625 180.520118) scale(0.12 -0.12)">
       <use xlink:href="#DejaVuSans-31"/>
       <use xlink:href="#DejaVuSans-2e" x="63.623047"/>
       <use xlink:href="#DejaVuSans-30" x="95.410156"/>
      </g>
     </g>
    </g>
    <g id="ytick_4">
     <g id="line2d_19">
      <path d="M 55.19 149.957126 
L 709.2 149.957126 
" clip-path="url(#p6477c21d0c)" style="fill: none; stroke: #b0b0b0; stroke-width: 0.8; stroke-linecap: square"/>
     </g>
     <g id="line2d_20">
      <g>
       <use xlink:href="#m1d76608a9b" x="55.19" y="149.957126" style="stroke: #000000; stroke-width: 0.8"/>
      </g>
     </g>
     <g id="text_11">
      <!-- 1.5 -->
      <g transform="translate(29.10625 154.516189) scale(0.12 -0.12)">
       <use xlink:href="#DejaVuSans-31"/>
       <use xlink:href="#DejaVuSans-2e" x="63.623047"/>
       <use xlink:href="#DejaVuSans-35" x="95.410156"/>
      </g>
     </g>
    </g>
    <g id="ytick_5">
     <g id="line2d_21">
      <path d="M 55.19 123.953197 
L 709.2 123.953197 
" clip-path="url(#p6477c21d0c)" style="fill: none; stroke: #b0b0b0; stroke-width: 0.8; stroke-linecap: square"/>
     </g>
     <g id="line2d_22">
      <g>
       <use xlink:href="#m1d76608a9b" x="55.19" y="123.953197" style="stroke: #000000; stroke-width: 0.8"/>
      </g>
     </g>
     <g id="text_12">
      <!-- 2.0 -->
      <g transform="translate(29.10625 128.51226) scale(0.12 -0.12)">
       <use xlink:href="#DejaVuSans-32"/>
       <use xlink:href="#DejaVuSans-2e" x="63.623047"/>
       <use xlink:href="#DejaVuSans-30" x="95.410156"/>
      </g>
     </g>
    </g>
    <g id="ytick_6">
     <g id="line2d_23">
      <path d="M 55.19 97.949268 
L 709.2 97.949268 
" clip-path="url(#p6477c21d0c)" style="fill: none; stroke: #b0b0b0; stroke-width: 0.8; stroke-linecap: square"/>
     </g>
     <g id="line2d_24">
      <g>
       <use xlink:href="#m1d76608a9b" x="55.19" y="97.949268" style="stroke: #000000; stroke-width: 0.8"/>
      </g>
     </g>
     <g id="text_13">
      <!-- 2.5 -->
      <g transform="translate(29.10625 102.508331) scale(0.12 -0.12)">
       <use xlink:href="#DejaVuSans-32"/>
       <use xlink:href="#DejaVuSans-2e" x="63.623047"/>
       <use xlink:href="#DejaVuSans-35" x="95.410156"/>
      </g>
     </g>
    </g>
    <g id="ytick_7">
     <g id="line2d_25">
      <path d="M 55.19 71.945339 
L 709.2 71.945339 
" clip-path="url(#p6477c21d0c)" style="fill: none; stroke: #b0b0b0; stroke-width: 0.8; stroke-linecap: square"/>
     </g>
     <g id="line2d_26">
      <g>
       <use xlink:href="#m1d76608a9b" x="55.19" y="71.945339" style="stroke: #000000; stroke-width: 0.8"/>
      </g>
     </g>
     <g id="text_14">
      <!-- 3.0 -->
      <g transform="translate(29.10625 76.504402) scale(0.12 -0.12)">
       <defs>
        <path id="DejaVuSans-33" d="M 2597 2516 
Q 3050 2419 3304 2112 
Q 3559 1806 3559 1356 
Q 3559 666 3084 287 
Q 2609 -91 1734 -91 
Q 1441 -91 1130 -33 
Q 819 25 488 141 
L 488 750 
Q 750 597 1062 519 
Q 1375 441 1716 441 
Q 2309 441 2620 675 
Q 2931 909 2931 1356 
Q 2931 1769 2642 2001 
Q 2353 2234 1838 2234 
L 1294 2234 
L 1294 2753 
L 1863 2753 
Q 2328 2753 2575 2939 
Q 2822 3125 2822 3475 
Q 2822 3834 2567 4026 
Q 2313 4219 1838 4219 
Q 1578 4219 1281 4162 
Q 984 4106 628 3988 
L 628 4550 
Q 988 4650 1302 4700 
Q 1616 4750 1894 4750 
Q 2613 4750 3031 4423 
Q 3450 4097 3450 3541 
Q 3450 3153 3228 2886 
Q 3006 2619 2597 2516 
z
" transform="scale(0.015625)"/>
       </defs>
       <use xlink:href="#DejaVuSans-33"/>
       <use xlink:href="#DejaVuSans-2e" x="63.623047"/>
       <use xlink:href="#DejaVuSans-30" x="95.410156"/>
      </g>
     </g>
    </g>
    <g id="ytick_8">
     <g id="line2d_27">
      <path d="M 55.19 45.94141 
L 709.2 45.94141 
" clip-path="url(#p6477c21d0c)" style="fill: none; stroke: #b0b0b0; stroke-width: 0.8; stroke-linecap: square"/>
     </g>
     <g id="line2d_28">
      <g>
       <use xlink:href="#m1d76608a9b" x="55.19" y="45.94141" style="stroke: #000000; stroke-width: 0.8"/>
      </g>
     </g>
     <g id="text_15">
      <!-- 3.5 -->
      <g transform="translate(29.10625 50.500473) scale(0.12 -0.12)">
       <use xlink:href="#DejaVuSans-33"/>
       <use xlink:href="#DejaVuSans-2e" x="63.623047"/>
       <use xlink:href="#DejaVuSans-35" x="95.410156"/>
      </g>
     </g>
    </g>
    <g id="ytick_9">
     <g id="line2d_29">
      <path d="M 55.19 19.937481 
L 709.2 19.937481 
" clip-path="url(#p6477c21d0c)" style="fill: none; stroke: #b0b0b0; stroke-width: 0.8; stroke-linecap: square"/>
     </g>
     <g id="line2d_30">
      <g>
       <use xlink:href="#m1d76608a9b" x="55.19" y="19.937481" style="stroke: #000000; stroke-width: 0.8"/>
      </g>
     </g>
     <g id="text_16">
      <!-- 4.0 -->
      <g transform="translate(29.10625 24.496544) scale(0.12 -0.12)">
       <use xlink:href="#DejaVuSans-34"/>
       <use xlink:href="#DejaVuSans-2e" x="63.623047"/>
       <use xlink:href="#DejaVuSans-30" x="95.410156"/>
      </g>
     </g>
    </g>
    <g id="text_17">
     <!-- Range -->
     <g transform="translate(21.77875 150.1725) rotate(-90) scale(0.16 -0.16)">
      <defs>
       <path id="DejaVuSans-52" d="M 2841 2188 
Q 3044 2119 3236 1894 
Q 3428 1669 3622 1275 
L 4263 0 
L 3584 0 
L 2988 1197 
Q 2756 1666 2539 1819 
Q 2322 1972 1947 1972 
L 1259 1972 
L 1259 0 
L 628 0 
L 628 4666 
L 2053 4666 
Q 2853 4666 3247 4331 
Q 3641 3997 3641 3322 
Q 3641 2881 3436 2590 
Q 3231 2300 2841 2188 
z
M 1259 4147 
L 1259 2491 
L 2053 2491 
Q 2509 2491 2742 2702 
Q 2975 2913 2975 3322 
Q 2975 3731 2742 3939 
Q 2509 4147 2053 4147 
L 1259 4147 
z
" transform="scale(0.015625)"/>
       <path id="DejaVuSans-6e" d="M 3513 2113 
L 3513 0 
L 2938 0 
L 2938 2094 
Q 2938 2591 2744 2837 
Q 2550 3084 2163 3084 
Q 1697 3084 1428 2787 
Q 1159 2491 1159 1978 
L 1159 0 
L 581 0 
L 581 3500 
L 1159 3500 
L 1159 2956 
Q 1366 3272 1645 3428 
Q 1925 3584 2291 3584 
Q 2894 3584 3203 3211 
Q 3513 2838 3513 2113 
z
" transform="scale(0.015625)"/>
       <path id="DejaVuSans-67" d="M 2906 1791 
Q 2906 2416 2648 2759 
Q 2391 3103 1925 3103 
Q 1463 3103 1205 2759 
Q 947 2416 947 1791 
Q 947 1169 1205 825 
Q 1463 481 1925 481 
Q 2391 481 2648 825 
Q 2906 1169 2906 1791 
z
M 3481 434 
Q 3481 -459 3084 -895 
Q 2688 -1331 1869 -1331 
Q 1566 -1331 1297 -1286 
Q 1028 -1241 775 -1147 
L 775 -588 
Q 1028 -725 1275 -790 
Q 1522 -856 1778 -856 
Q 2344 -856 2625 -561 
Q 2906 -266 2906 331 
L 2906 616 
Q 2728 306 2450 153 
Q 2172 0 1784 0 
Q 1141 0 747 490 
Q 353 981 353 1791 
Q 353 2603 747 3093 
Q 1141 3584 1784 3584 
Q 2172 3584 2450 3431 
Q 2728 3278 2906 2969 
L 2906 3500 
L 3481 3500 
L 3481 434 
z
" transform="scale(0.015625)"/>
      </defs>
      <use xlink:href="#DejaVuSans-52"/>
      <use xlink:href="#DejaVuSans-61" x="67.232422"/>
      <use xlink:href="#DejaVuSans-6e" x="128.511719"/>
      <use xlink:href="#DejaVuSans-67" x="191.890625"/>
      <use xlink:href="#DejaVuSans-65" x="255.367188"/>
     </g>
    </g>
   </g>
   <g id="line2d_31">
    <path d="M 84.917727 79.144582 
L 85.453362 107.291417 
L 85.988997 117.404067 
L 86.524631 187.012727 
L 87.060266 85.549244 
L 87.595901 99.369858 
L 88.131536 103.920538 
L 89.73844 91.785383 
L 90.274075 95.998978 
L 90.809709 69.537577 
L 91.345344 64.144168 
L 91.880979 109.31396 
L 92.416613 93.302268 
L 92.952248 109.988128 
L 93.487883 112.347755 
L 94.023518 106.954333 
L 94.559152 58.413662 
L 95.094787 76.784956 
L 95.630422 91.111202 
L 96.166057 76.110787 
L 96.701691 53.020265 
L 97.237326 59.762024 
L 97.772961 69.369016 
L 98.308595 66.335234 
L 98.84423 67.17795 
L 99.379865 83.526727 
L 99.9155 67.17795 
L 100.451134 55.548415 
L 100.986769 73.751173 
L 101.522404 61.278909 
L 102.058038 88.414503 
L 102.593673 86.223425 
L 103.129308 74.08827 
L 103.664943 65.99815 
L 104.200577 49.143753 
L 104.736212 50.323554 
L 105.271847 60.099108 
L 105.807482 89.594304 
L 106.343116 65.492517 
L 106.878751 82.683997 
L 107.414386 81.672745 
L 107.95002 75.268058 
L 108.485655 85.21216 
L 109.02129 84.369443 
L 109.556925 208.923444 
L 110.092559 211.283058 
L 110.628194 168.809972 
L 111.163829 185.158742 
L 111.699464 125.999801 
L 112.235098 99.032774 
L 112.770733 173.192117 
L 113.306368 192.069046 
L 114.377637 166.955991 
L 114.913272 166.450358 
L 115.448907 203.024403 
L 115.984541 190.215061 
L 116.520176 203.361492 
L 117.055811 186.844185 
L 117.591446 191.394871 
L 118.12708 200.833331 
L 118.662715 192.069046 
L 119.19835 216.845011 
L 119.733984 191.563413 
L 120.269619 193.754486 
L 120.805254 220.047346 
L 122.412158 173.192117 
L 122.947793 176.731544 
L 123.483428 160.04569 
L 124.019062 161.899666 
L 124.554697 162.236762 
L 125.090332 158.865877 
L 125.625966 146.393625 
L 126.161601 166.281816 
L 127.232871 160.719865 
L 127.768505 163.416563 
L 128.30414 160.888407 
L 128.839775 160.551316 
L 129.37541 159.540051 
L 130.446679 185.664375 
L 130.982314 176.900089 
L 131.517948 172.686484 
L 132.053583 166.281816 
L 132.589218 158.360244 
L 133.124853 178.754071 
L 133.660487 164.427828 
L 134.196122 163.753654 
L 134.731757 177.911351 
L 135.267391 188.866712 
L 135.803026 183.136215 
L 136.338661 156.169178 
L 136.874296 149.764504 
L 137.40993 127.853789 
L 137.945565 175.383189 
L 138.4812 163.585105 
L 139.016835 188.023992 
L 139.552469 191.731956 
L 140.088104 166.787449 
L 140.623739 80.66148 
L 141.159373 83.358178 
L 141.695008 83.695275 
L 142.230643 84.875076 
L 142.766278 73.076992 
L 143.301912 73.919709 
L 143.837547 68.02068 
L 144.373182 72.739908 
L 144.908817 73.582625 
L 145.444451 84.200895 
L 145.980086 75.099522 
L 146.515721 87.403226 
L 147.051355 79.818751 
L 147.58699 86.223425 
L 148.122625 101.560936 
L 148.65826 85.380708 
L 149.193894 74.930974 
L 149.729529 92.122467 
L 150.265164 90.605569 
L 150.800799 91.27975 
L 151.336433 81.335648 
L 151.872068 83.189642 
L 152.407703 93.302268 
L 152.943337 88.583039 
L 153.478972 90.774105 
L 154.014607 93.470816 
L 154.550242 105.268899 
L 155.085876 101.89802 
L 155.621511 104.594731 
L 156.157146 117.066983 
L 156.692781 102.740737 
L 157.228415 101.729472 
L 157.76405 103.414918 
L 158.835319 110.662309 
L 159.370954 99.032774 
L 159.906589 107.122881 
L 160.442224 107.628514 
L 160.977858 104.763267 
L 161.513493 78.133317 
L 162.049128 79.818751 
L 162.584762 80.492932 
L 163.120397 115.718621 
L 163.656032 87.908871 
L 164.191667 105.437435 
L 164.727301 96.841695 
L 165.262936 85.043624 
L 165.798571 76.61642 
L 166.334206 111.167941 
L 166.86984 126.336892 
L 167.405475 104.42617 
L 167.94111 109.988128 
L 168.476744 110.999393 
L 169.012379 109.988128 
L 169.548014 125.831259 
L 170.083649 103.414918 
L 170.619283 65.323969 
L 171.154918 88.751588 
L 171.690553 45.604326 
L 172.226188 85.886341 
L 172.761822 77.459137 
L 173.297457 85.21216 
L 173.833092 52.346084 
L 174.368726 77.122052 
L 174.904361 82.852546 
L 175.439996 61.784541 
L 175.975631 74.08827 
L 176.511265 78.807498 
L 177.0469 73.751173 
L 177.582535 87.23469 
L 178.11817 136.618071 
L 178.653804 125.831259 
L 179.189439 94.144997 
L 179.725074 101.055291 
L 180.260708 79.650215 
L 180.796343 75.605167 
L 181.331978 132.573018 
L 181.867613 102.740737 
L 182.403247 99.706942 
L 182.938882 99.875478 
L 184.010152 139.314776 
L 184.545786 123.808729 
L 185.081421 73.414076 
L 185.617056 72.234276 
L 186.15269 84.875076 
L 186.688325 120.774946 
L 187.22396 85.043624 
L 187.759595 95.493346 
L 188.295229 89.762853 
L 188.830864 61.616005 
L 189.366499 60.60474 
L 189.902133 81.504184 
L 190.437768 52.009 
L 190.973403 74.425354 
L 191.509038 81.335648 
L 192.044672 82.178377 
L 192.580307 64.312704 
L 193.115942 67.346499 
L 193.651577 55.042783 
L 194.187211 39.199664 
L 194.722846 43.244712 
L 195.258481 27.233032 
L 195.794115 21.165455 
L 196.32975 57.908042 
L 196.865385 49.817934 
L 197.40102 38.862555 
L 197.936654 51.334832 
L 198.472289 32.120809 
L 199.007924 22.008159 
L 199.543559 25.716135 
L 200.079193 65.99815 
L 200.614828 52.51462 
L 201.150463 25.716135 
L 201.686097 22.008159 
L 202.221732 31.952261 
L 202.757367 31.109544 
L 203.293002 21.671075 
L 203.828636 56.728229 
L 204.364271 35.997321 
L 204.899906 33.637706 
L 205.435541 23.693617 
L 205.971175 41.727814 
L 206.50681 45.772874 
L 207.042445 53.357349 
L 207.578079 45.098706 
L 208.113714 64.986885 
L 208.649349 76.279336 
L 209.184984 81.841293 
L 209.720618 63.638535 
L 210.256253 74.425354 
L 210.791888 227.968913 
L 211.327523 227.968913 
L 211.863157 223.081138 
L 212.398792 107.122881 
L 212.934427 129.03359 
L 213.470061 85.549244 
L 214.005696 161.394033 
L 214.541331 204.709843 
L 215.076966 213.979761 
L 215.6126 168.978515 
L 216.148235 154.483733 
L 216.68387 184.821655 
L 217.219505 176.731544 
L 217.755139 161.225491 
L 218.290774 182.799128 
L 218.826409 193.923031 
L 219.362043 170.66396 
L 219.897678 165.776177 
L 220.433313 192.574678 
L 220.968948 175.046098 
L 221.504582 176.731544 
L 222.040217 198.13663 
L 222.575852 187.686902 
L 223.111486 194.091576 
L 223.647121 176.731544 
L 224.182756 186.338549 
L 224.718391 214.485393 
L 225.254025 215.833747 
L 225.78966 208.080722 
L 226.325295 216.002291 
L 226.86093 191.563413 
L 227.396564 197.462452 
L 227.932199 146.562167 
L 228.467834 176.731544 
L 229.003468 226.95765 
L 229.539103 227.968913 
L 230.074738 218.698995 
L 230.610373 227.968913 
L 231.146007 227.968913 
L 231.681642 219.204627 
L 232.217277 215.328114 
L 232.752912 227.968913 
L 234.89545 227.968913 
L 235.431085 221.564242 
L 235.96672 202.687315 
L 236.502355 123.808729 
L 237.037989 138.303511 
L 238.109259 51.166283 
L 238.644894 79.313118 
L 239.180528 87.403226 
L 239.716163 83.863811 
L 240.251798 47.795392 
L 240.787432 53.357349 
L 241.323067 56.05406 
L 241.858702 82.346913 
L 242.394337 55.885512 
L 242.929971 43.750344 
L 243.465606 54.537163 
L 244.001241 53.862982 
L 244.536876 41.727814 
L 245.07251 35.491688 
L 245.608145 56.222596 
L 246.14378 45.94141 
L 246.679414 74.930974 
L 247.215049 110.325212 
L 247.750684 95.493346 
L 248.286319 59.762024 
L 248.821953 64.312704 
L 249.357588 54.705699 
L 249.893223 51.334832 
L 250.428857 64.986885 
L 250.964492 47.458308 
L 251.500127 60.773289 
L 252.035762 45.267242 
L 252.571396 50.155018 
L 253.107031 50.997723 
L 253.642666 50.829187 
L 254.178301 36.165869 
L 254.713935 39.705284 
L 255.24957 54.537163 
L 255.785205 44.255977 
L 256.320839 60.436204 
L 256.856474 45.772874 
L 257.392109 54.874247 
L 257.927744 57.233874 
L 258.463378 51.166283 
L 259.534648 60.773289 
L 260.070283 48.469573 
L 260.605917 85.717792 
L 261.141552 56.728229 
L 261.677187 47.626856 
L 262.212821 30.098279 
L 262.748456 45.772874 
L 263.284091 46.952675 
L 263.819726 40.548013 
L 264.35536 72.739908 
L 264.890995 69.874661 
L 265.42663 54.537163 
L 265.962265 45.267242 
L 267.033534 52.51462 
L 267.569169 58.58221 
L 268.104803 92.459563 
L 268.640438 74.425354 
L 269.176073 71.728643 
L 269.711708 83.695275 
L 270.247342 85.380708 
L 270.782977 66.67233 
L 271.318612 78.63895 
L 271.854247 77.627685 
L 272.389881 80.155847 
L 272.925516 84.537979 
L 273.461151 72.065727 
L 273.996785 94.650629 
L 275.068055 117.404067 
L 275.60369 175.046098 
L 276.139324 190.552148 
L 276.674959 155.494998 
L 277.210594 186.338549 
L 277.746229 120.606398 
L 278.281863 114.875905 
L 278.817498 125.157078 
L 279.353133 172.3494 
L 279.888767 182.12495 
L 280.424402 227.968913 
L 280.960037 198.810804 
L 281.495672 227.968913 
L 282.031306 192.237591 
L 282.566941 227.968913 
L 283.102576 139.483318 
L 283.63821 125.999801 
L 284.173845 145.550902 
L 284.70948 178.079896 
L 285.780749 121.280567 
L 286.316384 134.932632 
L 286.852019 227.968913 
L 287.387654 176.05737 
L 287.923288 224.42949 
L 288.458923 194.42866 
L 288.994558 197.799539 
L 290.065827 165.944719 
L 291.137097 196.282645 
L 291.672731 177.237174 
L 292.208366 185.664375 
L 292.744001 187.012727 
L 293.279636 186.675637 
L 293.81527 212.125779 
L 294.350905 227.968913 
L 294.88654 181.282231 
L 295.422174 221.058611 
L 295.957809 166.6189 
L 296.493444 138.134969 
L 297.029079 159.540051 
L 297.564713 191.731956 
L 298.100348 173.023575 
L 298.635983 178.416984 
L 299.171618 176.225912 
L 299.707252 190.046519 
L 300.242887 227.968913 
L 301.314156 184.14748 
L 301.849791 218.53045 
L 302.385426 210.44034 
L 302.921061 191.563413 
L 303.456695 191.900504 
L 303.99233 194.091576 
L 304.527965 184.14748 
L 305.0636 197.799539 
L 305.599234 227.968913 
L 306.134869 168.809972 
L 306.670504 156.506263 
L 307.206138 150.101595 
L 308.277408 159.034419 
L 308.813043 130.044855 
L 309.348677 152.629751 
L 309.884312 227.968913 
L 310.419947 227.968913 
L 310.955581 147.573426 
L 312.026851 139.314776 
L 312.562486 205.889652 
L 313.09812 140.326041 
L 313.633755 144.202553 
L 314.16939 209.429076 
L 314.705025 224.598033 
L 315.240659 218.193363 
L 315.776294 171.843761 
L 316.311929 189.203799 
L 316.847563 167.124533 
L 317.383198 168.978515 
L 317.918833 179.933881 
L 318.454468 227.968913 
L 318.990102 227.968913 
L 319.525737 225.609298 
L 320.061372 192.574678 
L 320.597007 179.596791 
L 321.132641 160.214232 
L 321.668276 152.292667 
L 322.203911 163.416563 
L 322.739545 227.968913 
L 323.810815 227.968913 
L 324.34645 226.789106 
L 324.882084 178.585526 
L 325.417719 168.978515 
L 325.953354 228.306001 
L 326.488989 212.968497 
L 327.024623 227.968913 
L 327.560258 227.968913 
L 328.095893 162.573846 
L 328.631527 227.968913 
L 329.167162 194.765747 
L 329.702797 200.496244 
L 330.238432 224.598033 
L 330.774066 189.035254 
L 331.309701 172.012303 
L 331.845336 170.158328 
L 332.380971 171.675219 
L 333.45224 185.327287 
L 333.987875 174.034833 
L 334.523509 195.439925 
L 335.059144 184.821655 
L 335.594779 198.13663 
L 336.130414 170.832502 
L 336.666048 203.867123 
L 337.201683 223.755314 
L 337.737318 227.968913 
L 338.272952 192.911769 
L 338.808587 192.574678 
L 339.344222 194.260118 
L 339.879857 193.417398 
L 340.415491 197.29391 
L 340.951126 183.641845 
L 341.486761 183.136215 
L 342.022396 188.529621 
L 342.55803 186.170007 
L 343.093665 202.013138 
L 343.6293 176.562996 
L 344.164934 185.158742 
L 344.700569 182.293496 
L 345.236204 194.260118 
L 345.771839 187.349814 
L 346.307473 186.001462 
L 346.843108 171.338129 
L 347.378743 177.237174 
L 347.914378 218.193363 
L 348.450012 227.968913 
L 348.985647 197.799539 
L 349.521282 186.675637 
L 350.056916 184.316022 
L 350.592551 154.820823 
L 351.128186 208.754898 
L 351.663821 192.743221 
L 352.199455 172.012303 
L 352.73509 216.676467 
L 353.270725 208.923444 
L 353.80636 181.113688 
L 354.341994 183.810393 
L 354.877629 221.732786 
L 355.413264 227.968913 
L 355.948898 227.968913 
L 356.484533 220.721522 
L 357.020168 192.237591 
L 357.555803 198.642262 
L 358.091437 160.888407 
L 358.627072 186.001462 
L 359.162707 152.629751 
L 359.698342 140.326041 
L 360.233976 172.180858 
L 360.769611 218.193363 
L 361.305246 145.045269 
L 361.84088 227.968913 
L 362.376515 178.922616 
L 363.447785 150.944311 
L 363.983419 168.809972 
L 364.519054 161.225491 
L 365.054689 159.708594 
L 365.590324 170.32687 
L 366.125958 227.968913 
L 366.661593 178.248439 
L 367.197228 227.968913 
L 367.732862 182.799128 
L 368.268497 211.114514 
L 368.804132 184.316022 
L 369.339767 223.755314 
L 369.875401 169.652689 
L 370.411036 168.978515 
L 370.946671 160.214232 
L 371.482305 179.259704 
L 372.01794 189.877977 
L 372.553575 173.697749 
L 373.08921 189.709429 
L 373.624844 148.753239 
L 374.696114 132.235927 
L 375.231749 157.180437 
L 375.767383 157.68607 
L 376.303018 152.292667 
L 376.838653 168.809972 
L 377.374287 134.258457 
L 377.909922 127.516699 
L 378.445557 134.089915 
L 379.516826 209.429076 
L 380.052461 196.45119 
L 380.588096 166.281816 
L 381.123731 183.810393 
L 381.659365 157.180437 
L 382.195 163.248021 
L 382.730635 161.562581 
L 383.266269 162.910931 
L 383.801904 165.439093 
L 384.337539 164.259286 
L 384.873174 169.484147 
L 385.408808 186.844185 
L 385.944443 181.282231 
L 386.480078 162.573846 
L 387.015713 176.394454 
L 387.551347 157.517521 
L 388.086982 127.01106 
L 388.622617 134.932632 
L 389.158251 149.933046 
L 389.693886 137.966427 
L 390.229521 140.157499 
L 390.765156 133.921367 
L 391.30079 134.76409 
L 391.836425 136.112439 
L 392.37206 122.46038 
L 392.907695 123.471645 
L 393.443329 132.910102 
L 393.978964 122.966025 
L 394.514599 123.471645 
L 395.050233 127.853789 
L 395.585868 122.123296 
L 396.121503 107.291417 
L 396.657138 122.46038 
L 397.192772 126.673976 
L 397.728407 122.797464 
L 398.264042 120.943482 
L 398.799676 127.853789 
L 399.335311 96.504611 
L 399.870946 118.415332 
L 400.406581 122.291844 
L 401.47785 142.854197 
L 402.013485 110.156676 
L 402.54912 110.662309 
L 403.084754 123.977271 
L 403.620389 121.786211 
L 404.156024 130.550488 
L 404.691658 134.595541 
L 405.227293 127.34815 
L 405.762928 129.707771 
L 406.298563 120.437862 
L 406.834197 125.325627 
L 407.369832 119.595133 
L 407.905467 126.842518 
L 408.976736 125.157078 
L 409.512371 138.640601 
L 410.048006 165.102003 
L 410.58364 167.124533 
L 411.119275 122.123296 
L 411.65491 127.179608 
L 412.190545 116.055706 
L 412.726179 114.201736 
L 413.261814 124.819994 
L 413.797449 128.696506 
L 414.333084 116.898435 
L 414.868718 126.673976 
L 415.404353 114.707356 
L 415.939988 114.201736 
L 416.475622 115.718621 
L 417.011257 140.663125 
L 417.546892 138.977686 
L 418.082527 120.100766 
L 418.618161 121.617663 
L 419.153796 136.449529 
L 419.689431 159.202967 
L 420.225066 130.71903 
L 420.7607 158.191702 
L 421.296335 162.405304 
L 421.83197 177.237174 
L 422.367604 183.304757 
L 422.903239 191.900504 
L 423.438874 143.69692 
L 423.974509 133.752825 
L 424.510143 129.03359 
L 425.045778 105.605984 
L 425.581413 98.358593 
L 426.117048 112.179194 
L 426.652682 115.88717 
L 427.188317 111.336477 
L 427.723952 165.102003 
L 428.259586 172.517942 
L 428.795221 128.527958 
L 429.330856 106.280164 
L 429.866491 107.797062 
L 430.402125 126.842518 
L 430.93776 124.651446 
L 431.473395 138.472053 
L 432.009029 164.259286 
L 432.544664 139.988951 
L 433.080299 130.213403 
L 433.615934 133.078644 
L 434.151568 120.437862 
L 434.687203 130.044855 
L 435.222838 102.235104 
L 435.758473 103.414918 
L 436.294107 121.280567 
L 436.829742 93.639352 
L 437.365377 114.370272 
L 437.901011 111.167941 
L 438.436646 117.404067 
L 438.972281 117.572603 
L 439.507916 121.617663 
L 440.04355 115.381537 
L 440.579185 115.381537 
L 441.11482 133.921367 
L 441.650455 116.561338 
L 442.186089 120.100766 
L 442.721724 117.404067 
L 443.257359 104.089086 
L 443.792993 118.078236 
L 444.328628 91.111202 
L 445.399898 123.303109 
L 445.935532 118.415332 
L 446.471167 120.269314 
L 447.006802 111.673561 
L 447.542437 108.302695 
L 448.078071 88.414503 
L 448.613706 85.717792 
L 449.684975 85.717792 
L 450.22061 178.416984 
L 450.756245 157.348979 
L 451.29188 154.820823 
L 451.827514 121.112031 
L 452.363149 114.370272 
L 452.898784 105.77452 
L 453.434419 112.010646 
L 453.970053 205.721107 
L 454.505688 227.968913 
L 455.041323 227.968913 
L 455.576957 184.484565 
L 456.112592 159.371509 
L 456.648227 166.955991 
L 457.183862 191.394871 
L 457.719496 194.091576 
L 458.255131 207.575091 
L 458.790766 226.789106 
L 459.3264 209.429076 
L 459.862035 150.775769 
L 460.39767 152.629751 
L 461.468939 181.956408 
L 462.540209 123.640181 
L 463.075844 131.898843 
L 463.611478 133.752825 
L 464.147113 141.505842 
L 464.682748 151.618486 
L 465.218382 145.71945 
L 465.754017 173.529201 
L 466.289652 183.810393 
L 466.825287 189.709429 
L 467.360921 182.462038 
L 467.896556 142.854197 
L 468.432191 155.326455 
L 468.967826 147.910522 
L 469.50346 151.618486 
L 470.039095 140.831674 
L 470.57473 177.237174 
L 471.110364 221.90133 
L 471.645999 227.968913 
L 472.181634 218.361907 
L 472.717269 171.675219 
L 473.252903 167.630165 
L 473.788538 185.664375 
L 474.324173 175.888821 
L 474.859808 144.034011 
L 475.395442 147.236342 
L 475.931077 177.574261 
L 476.466712 217.856274 
L 477.002346 177.742809 
L 477.537981 162.405304 
L 478.073616 196.45119 
L 478.609251 210.103251 
L 479.144885 199.147895 
L 479.68052 196.45119 
L 480.216155 201.507509 
L 480.75179 216.170835 
L 481.287424 208.754898 
L 481.823059 215.833747 
L 482.358694 203.361492 
L 482.894328 227.968913 
L 483.429963 216.507923 
L 483.965598 227.968913 
L 484.501233 227.968913 
L 485.036867 209.766162 
L 485.572502 201.338967 
L 486.108137 204.372756 
L 486.643771 202.013138 
L 487.179406 192.069046 
L 487.715041 200.159157 
L 488.250676 197.29391 
L 488.78631 184.14748 
L 489.321945 186.675637 
L 489.85758 195.271383 
L 490.393215 227.968913 
L 490.928849 221.227154 
L 491.464484 220.384434 
L 492.000119 185.158742 
L 492.535753 176.731544 
L 493.071388 192.237591 
L 493.607023 154.820823 
L 494.142658 175.888821 
L 494.678292 182.799128 
L 495.213927 162.068214 
L 495.749562 227.800369 
L 496.820831 150.270137 
L 497.356466 161.394033 
L 498.427735 153.64101 
L 498.96337 164.427828 
L 499.499005 227.968913 
L 500.03464 194.091576 
L 500.570274 177.405719 
L 501.105909 177.068631 
L 501.641544 194.260118 
L 502.177179 183.810393 
L 502.712813 183.810393 
L 503.248448 187.855447 
L 503.784083 188.192534 
L 504.319717 182.293496 
L 504.855352 169.147063 
L 505.390987 189.035254 
L 505.926622 185.327287 
L 506.462256 225.609298 
L 506.997891 196.114103 
L 507.533526 179.259704 
L 508.069161 182.630583 
L 508.604795 196.282645 
L 509.14043 167.124533 
L 509.676065 161.731124 
L 510.211699 180.945143 
L 510.747334 163.416563 
L 511.282969 177.911351 
L 511.818604 179.428246 
L 512.889873 168.304346 
L 513.425508 173.697749 
L 514.496777 199.990612 
L 515.032412 165.607635 
L 515.568047 175.888821 
L 516.103681 171.506677 
L 516.639316 182.12495 
L 517.174951 187.349814 
L 517.710586 174.709014 
L 518.24622 171.169587 
L 518.781855 163.922196 
L 519.31749 183.641845 
L 519.853124 177.068631 
L 520.388759 176.225912 
L 520.924394 168.978515 
L 521.995663 189.203799 
L 522.531298 189.372341 
L 523.066933 158.528793 
L 523.602568 160.04569 
L 524.138202 176.05737 
L 524.673837 166.6189 
L 525.745106 164.427828 
L 526.280741 149.933046 
L 526.816376 193.754486 
L 527.352011 158.02316 
L 527.887645 160.719865 
L 528.42328 160.382774 
L 528.958915 174.034833 
L 529.49455 174.877556 
L 530.030184 200.327702 
L 530.565819 212.63141 
L 531.101454 159.540051 
L 531.637088 167.967249 
L 532.172723 182.12495 
L 532.708358 185.664375 
L 533.243993 178.754071 
L 533.779627 167.293075 
L 534.315262 167.293075 
L 534.850897 182.630583 
L 535.386532 168.64143 
L 535.922166 170.158328 
L 536.457801 177.574261 
L 536.993436 175.046098 
L 537.52907 174.709014 
L 538.064705 227.968913 
L 538.60034 227.968913 
L 539.135975 179.765336 
L 539.671609 175.383189 
L 540.207244 181.956408 
L 540.742879 213.979761 
L 541.278514 170.32687 
L 541.814148 167.630165 
L 542.349783 227.968913 
L 542.885418 200.664789 
L 543.421052 145.045269 
L 543.956687 177.237174 
L 544.492322 139.651866 
L 545.027957 145.382354 
L 545.563591 225.103666 
L 546.099226 227.968913 
L 546.634861 170.832502 
L 547.170495 167.630165 
L 547.70613 170.32687 
L 548.241765 135.606813 
L 548.7774 155.157907 
L 549.313034 194.42866 
L 549.848669 177.574261 
L 550.384304 183.136215 
L 550.919939 205.384019 
L 551.455573 164.933461 
L 551.991208 227.968913 
L 552.526843 228.474545 
L 553.062477 227.968913 
L 553.598112 208.080722 
L 554.133747 181.282231 
L 554.669382 188.192534 
L 555.205016 198.13663 
L 555.740651 178.416984 
L 556.276286 165.102003 
L 556.811921 188.361079 
L 557.347555 205.384019 
L 557.88319 185.327287 
L 558.418825 202.518772 
L 558.954459 209.429076 
L 559.490094 227.968913 
L 560.025729 227.968913 
L 560.561364 200.327702 
L 561.096998 225.609298 
L 561.632633 227.968913 
L 562.168268 186.507095 
L 562.703903 227.968913 
L 564.846441 227.968913 
L 565.382076 197.29391 
L 565.917711 212.799954 
L 566.453346 188.698164 
L 566.98898 174.877556 
L 567.524615 178.585526 
L 568.06025 204.709843 
L 568.595885 196.619732 
L 569.131519 190.552148 
L 569.667154 187.181269 
L 570.202789 197.125368 
L 570.738423 177.068631 
L 571.274058 224.260946 
L 571.809693 186.675637 
L 572.345328 196.114103 
L 572.880962 191.731956 
L 573.416597 228.306001 
L 573.952232 194.091576 
L 574.487867 195.102838 
L 575.023501 203.530036 
L 575.559136 227.968913 
L 578.23731 227.968913 
L 578.772944 210.945972 
L 579.308579 227.968913 
L 580.915483 227.968913 
L 581.451118 207.743635 
L 581.986753 227.968913 
L 582.522387 195.102838 
L 583.058022 227.968913 
L 583.593657 227.968913 
L 584.129292 200.159157 
L 584.664926 193.080311 
L 585.200561 211.114514 
L 585.736196 199.822069 
L 586.27183 164.596376 
L 586.807465 193.754486 
L 587.3431 185.49583 
L 587.878735 213.642675 
L 588.414369 203.361492 
L 588.950004 167.124533 
L 589.485639 157.180437 
L 590.021274 177.742809 
L 590.556908 181.956408 
L 591.092543 228.306001 
L 591.628178 187.181269 
L 592.163812 216.002291 
L 592.699447 208.080722 
L 593.235082 193.923031 
L 593.770717 227.968913 
L 594.841986 227.968913 
L 595.377621 209.260531 
L 595.913256 181.282231 
L 596.44889 205.552563 
L 596.984525 185.327287 
L 597.52016 182.799128 
L 598.055794 190.889239 
L 598.591429 227.968913 
L 599.127064 166.281816 
L 599.662699 165.102003 
L 600.198333 160.888407 
L 600.733968 182.799128 
L 601.269603 222.575506 
L 601.805238 159.540051 
L 602.340872 204.204211 
L 602.876507 218.361907 
L 603.412142 194.597205 
L 603.947776 128.022331 
L 604.483411 157.348979 
L 605.019046 177.574261 
L 605.554681 165.102003 
L 606.090315 176.225912 
L 606.62595 224.260946 
L 607.161585 166.955991 
L 607.697219 174.540472 
L 608.232854 152.629751 
L 608.768489 171.169587 
L 609.304124 155.832088 
L 609.839758 173.023575 
L 610.375393 211.957234 
L 610.911028 189.203799 
L 611.446663 193.754486 
L 611.982297 176.562996 
L 612.517932 177.911351 
L 613.053567 218.193363 
L 613.589201 227.968913 
L 614.660471 161.731124 
L 615.196106 173.529201 
L 615.73174 189.877977 
L 616.267375 160.719865 
L 616.80301 179.259704 
L 617.338645 154.146648 
L 617.874279 199.316437 
L 618.409914 170.32687 
L 618.945549 168.978515 
L 619.481183 163.416563 
L 620.016818 188.866712 
L 620.552453 167.630165 
L 621.088088 166.113274 
L 621.623722 167.630165 
L 622.159357 184.484565 
L 622.694992 169.315605 
L 623.230627 163.753654 
L 623.766261 219.204627 
L 624.301896 194.597205 
L 624.837531 163.416563 
L 625.373165 150.438679 
L 625.9088 131.730301 
L 626.444435 131.730301 
L 626.98007 124.482904 
L 628.051339 183.810393 
L 628.586974 197.125368 
L 629.122609 185.83292 
L 629.658243 193.754486 
L 630.193878 126.168343 
L 630.729513 128.527958 
L 631.265147 160.719865 
L 631.800782 183.304757 
L 632.336417 189.877977 
L 632.872052 192.069046 
L 633.407686 209.766162 
L 633.943321 161.225491 
L 634.478956 202.181684 
L 635.01459 153.64101 
L 635.550225 191.731956 
L 636.08586 159.034419 
L 636.621495 175.720279 
L 637.157129 168.978515 
L 637.692764 165.270551 
L 638.228399 197.799539 
L 639.299668 158.360244 
L 640.370938 167.798707 
L 640.906572 150.775769 
L 641.442207 175.720279 
L 641.977842 160.719865 
L 642.513477 210.44034 
L 643.049111 180.270966 
L 643.584746 180.102423 
L 644.120381 166.955991 
L 644.656016 164.090744 
L 645.19165 151.955576 
L 645.727285 158.191702 
L 646.26292 161.562581 
L 646.798554 136.786613 
L 647.334189 142.854197 
L 647.869824 122.797464 
L 648.405459 128.696506 
L 649.476728 187.181269 
L 650.012363 155.494998 
L 650.547998 178.079896 
L 651.083632 177.911351 
L 651.619267 177.574261 
L 652.154902 165.439093 
L 652.690536 128.359415 
L 653.226171 144.708185 
L 653.761806 127.34815 
L 654.297441 182.96767 
L 654.833075 178.416984 
L 655.36871 146.562167 
L 655.904345 145.887992 
L 656.43998 140.326041 
L 656.975614 138.809144 
L 657.511249 140.831674 
L 658.046884 132.404469 
L 658.582518 227.968913 
L 659.118153 191.057784 
L 659.653788 168.64143 
L 660.189423 220.552979 
L 660.725057 163.416563 
L 661.260692 141.168758 
L 661.796327 188.023992 
L 662.331962 217.856274 
L 662.867596 227.968913 
L 663.403231 197.125368 
L 664.4745 178.585526 
L 665.010135 198.305175 
L 665.54577 181.787863 
L 666.081405 181.787863 
L 666.617039 162.405304 
L 667.152674 200.664789 
L 667.688309 204.204211 
L 668.223943 176.731544 
L 668.759578 191.226326 
L 669.295213 179.428246 
L 669.830848 196.788277 
L 670.366482 197.799539 
L 670.902117 192.237591 
L 671.437752 195.60847 
L 671.973387 227.968913 
L 672.509021 197.29391 
L 673.044656 205.384019 
L 673.580291 204.035667 
L 674.115925 185.49583 
L 674.65156 186.507095 
L 675.187195 191.900504 
L 675.72283 211.957234 
L 676.258464 202.518772 
L 676.794099 169.98978 
L 677.329734 211.114514 
L 677.865369 159.708594 
L 678.401003 158.865877 
L 678.936638 166.113274 
L 679.472273 204.035667 
L 679.472273 204.035667 
" clip-path="url(#p6477c21d0c)" style="fill: none; stroke: #1f77b4; stroke-opacity: 0.7; stroke-width: 1.5; stroke-linecap: square"/>
   </g>
   <g id="line2d_32">
    <path d="M 84.917727 87.110444 
L 85.988997 118.934586 
L 86.524631 174.677633 
L 87.060266 103.183541 
L 87.595901 95.948632 
L 88.131536 100.552194 
L 88.66717 99.66658 
L 89.202805 95.852183 
L 89.73844 93.755855 
L 90.274075 89.981099 
L 91.345344 72.238199 
L 91.880979 99.697348 
L 92.416613 93.955089 
L 93.487883 107.085006 
L 94.023518 107.705186 
L 94.559152 68.529631 
L 95.094787 80.121769 
L 95.630422 88.102178 
L 96.166057 81.733838 
L 96.701691 63.059713 
L 97.237326 63.400706 
L 97.772961 69.323667 
L 98.308595 69.364733 
L 98.84423 66.911326 
L 99.379865 77.729471 
L 100.451134 62.667104 
L 100.986769 72.188908 
L 101.522404 66.230263 
L 102.058038 82.792907 
L 102.593673 81.644941 
L 103.129308 78.282576 
L 104.200577 61.730975 
L 104.736212 58.222367 
L 105.271847 61.941284 
L 105.807482 81.702046 
L 106.343116 71.654031 
L 106.878751 79.991623 
L 107.414386 75.347547 
L 109.02129 86.085357 
L 109.556925 184.288457 
L 110.092559 202.850643 
L 110.628194 171.607613 
L 111.163829 174.658583 
L 111.699464 134.736639 
L 112.235098 106.283128 
L 112.770733 166.740285 
L 113.306368 194.097348 
L 113.842002 180.24246 
L 114.913272 166.021601 
L 115.448907 188.530744 
L 115.984541 189.132626 
L 116.520176 194.977643 
L 117.055811 184.41115 
L 117.591446 189.83398 
L 118.12708 190.844692 
L 118.662715 191.144602 
L 119.19835 200.811958 
L 119.733984 197.3788 
L 120.269619 192.864218 
L 120.805254 206.152382 
L 121.340889 201.338525 
L 121.876523 191.441249 
L 122.412158 157.968805 
L 122.947793 175.001628 
L 123.483428 167.039933 
L 124.019062 163.381314 
L 124.554697 164.988193 
L 125.090332 163.913479 
L 125.625966 155.509481 
L 126.161601 158.26028 
L 126.697236 164.691843 
L 127.232871 165.708948 
L 127.768505 166.275164 
L 128.30414 165.720491 
L 128.839775 163.099607 
L 129.37541 163.392574 
L 129.911044 161.775463 
L 130.446679 170.298644 
L 130.982314 175.190022 
L 131.517948 177.442378 
L 132.053583 172.954378 
L 132.589218 165.001935 
L 133.124853 162.192251 
L 133.660487 175.810117 
L 134.196122 170.963363 
L 134.731757 171.993417 
L 135.267391 180.523449 
L 135.803026 177.712034 
L 136.338661 168.060425 
L 137.40993 144.5699 
L 137.945565 153.443728 
L 139.016835 179.876964 
L 139.552469 181.375393 
L 140.088104 172.639294 
L 140.623739 98.188252 
L 141.159373 86.536151 
L 141.695008 89.483192 
L 142.230643 87.844022 
L 142.766278 84.69931 
L 143.301912 77.699714 
L 143.837547 73.583301 
L 144.373182 73.972389 
L 144.908817 73.897987 
L 145.444451 79.173061 
L 145.980086 77.360842 
L 146.515721 85.366973 
L 147.051355 80.52237 
L 147.58699 88.654867 
L 148.122625 92.201588 
L 148.65826 90.204309 
L 149.193894 80.985056 
L 149.729529 86.255061 
L 150.265164 88.229152 
L 150.800799 89.601483 
L 151.336433 88.47691 
L 151.872068 86.443059 
L 152.407703 89.64208 
L 152.943337 91.007792 
L 153.478972 91.497145 
L 154.014607 92.450116 
L 154.550242 97.961743 
L 155.085876 101.008991 
L 155.621511 101.068586 
L 156.157146 110.806203 
L 157.228415 100.544441 
L 157.76405 102.145892 
L 158.299685 101.485943 
L 158.835319 110.064832 
L 159.370954 109.945035 
L 159.906589 100.410479 
L 160.442224 102.477527 
L 160.977858 106.145276 
L 161.513493 90.787432 
L 162.049128 90.953556 
L 162.584762 88.136712 
L 163.120397 98.068808 
L 163.656032 95.97408 
L 164.191667 96.554171 
L 164.727301 99.473218 
L 165.262936 88.145618 
L 165.798571 85.240896 
L 166.334206 98.04281 
L 166.86984 115.906455 
L 167.405475 110.160657 
L 167.94111 110.128621 
L 168.476744 111.355435 
L 169.012379 107.933589 
L 169.548014 115.192434 
L 170.083649 110.041272 
L 170.619283 85.058498 
L 171.154918 87.258912 
L 171.690553 62.515803 
L 172.226188 83.173435 
L 172.761822 83.652544 
L 173.297457 86.637371 
L 173.833092 66.594554 
L 174.368726 78.14412 
L 174.904361 84.337219 
L 175.439996 69.123694 
L 175.975631 73.307383 
L 176.511265 79.48647 
L 177.0469 79.336975 
L 177.582535 81.489555 
L 178.11817 117.655283 
L 178.653804 117.38894 
L 179.189439 96.941514 
L 179.725074 96.925719 
L 180.260708 87.312551 
L 180.796343 81.542538 
L 181.331978 116.042044 
L 181.867613 107.205902 
L 182.403247 101.433151 
L 182.938882 100.00301 
L 183.474517 110.343152 
L 184.010152 129.769483 
L 184.545786 126.078374 
L 185.081421 83.972231 
L 185.617056 77.404904 
L 186.15269 82.284623 
L 186.688325 107.855374 
L 187.22396 92.104071 
L 187.759595 92.833164 
L 188.295229 89.502467 
L 188.830864 65.897622 
L 189.366499 61.693202 
L 189.902133 77.579089 
L 190.437768 57.944247 
L 191.509038 78.560523 
L 192.044672 78.327146 
L 192.580307 65.694909 
L 193.115942 65.591243 
L 194.187211 42.76593 
L 194.722846 47.314463 
L 195.258481 33.775162 
L 195.794115 28.233231 
L 196.32975 55.159544 
L 197.40102 43.618563 
L 197.936654 47.203498 
L 198.472289 35.051548 
L 199.007924 26.047676 
L 199.543559 32.320323 
L 200.079193 60.158291 
L 200.614828 51.481176 
L 201.150463 30.979799 
L 201.686097 24.322151 
L 202.221732 34.915375 
L 203.293002 27.907378 
L 203.828636 54.01184 
L 204.364271 39.256506 
L 204.899906 38.192608 
L 205.435541 31.718845 
L 205.971175 41.102167 
L 206.50681 46.358575 
L 207.042445 54.356655 
L 207.578079 48.373795 
L 208.113714 63.109829 
L 209.184984 79.279321 
L 209.720618 71.861978 
L 210.256253 75.914909 
L 210.791888 217.487511 
L 211.327523 220.520979 
L 211.863157 218.672595 
L 212.398792 122.776521 
L 212.934427 121.696906 
L 213.470061 90.857928 
L 214.005696 152.987783 
L 214.541331 198.272728 
L 215.076966 212.057419 
L 215.6126 171.79804 
L 216.148235 157.456971 
L 216.68387 178.402689 
L 217.755139 171.702236 
L 218.290774 182.933304 
L 218.826409 191.524777 
L 219.362043 175.905048 
L 219.897678 170.968308 
L 220.433313 186.223179 
L 221.504582 181.75705 
L 222.040217 191.816672 
L 222.575852 194.573585 
L 223.111486 193.099203 
L 223.647121 181.423677 
L 224.182756 186.429141 
L 224.718391 205.184061 
L 225.254025 212.218744 
L 225.78966 204.217666 
L 226.325295 207.742216 
L 226.86093 198.514839 
L 227.396564 196.492121 
L 227.932199 159.510288 
L 228.467834 177.816492 
L 229.003468 220.328982 
L 229.539103 217.243881 
L 230.074738 218.68267 
L 230.610373 224.227966 
L 231.146007 214.990007 
L 231.681642 217.110449 
L 232.217277 212.050863 
L 233.288546 225.448759 
L 233.824181 227.127867 
L 234.359816 227.77627 
L 234.89545 223.087507 
L 235.431085 219.651698 
L 235.96672 203.045687 
L 236.502355 134.95119 
L 237.037989 139.532619 
L 238.109259 58.195943 
L 238.644894 76.062189 
L 239.180528 85.414952 
L 239.716163 85.841258 
L 240.251798 54.165541 
L 240.787432 56.964445 
L 241.323067 57.862652 
L 241.858702 73.766569 
L 242.929971 47.670001 
L 243.465606 54.900703 
L 244.001241 55.766614 
L 244.536876 48.846298 
L 245.07251 43.774942 
L 245.608145 58.638686 
L 246.14378 49.534913 
L 246.679414 68.716812 
L 247.215049 97.79007 
L 247.750684 94.418149 
L 248.286319 63.561944 
L 248.821953 67.020581 
L 249.357588 57.689195 
L 249.893223 54.347431 
L 250.428857 60.164808 
L 250.964492 49.075985 
L 251.500127 57.564223 
L 252.035762 53.050309 
L 252.571396 49.624447 
L 253.107031 49.996666 
L 253.642666 48.432233 
L 254.178301 41.850806 
L 254.713935 43.511415 
L 255.24957 51.949125 
L 255.785205 44.904258 
L 256.320839 56.970293 
L 256.856474 50.801623 
L 257.392109 51.170059 
L 257.927744 56.027204 
L 258.463378 51.411284 
L 258.999013 55.54491 
L 259.534648 57.159623 
L 260.070283 54.624894 
L 260.605917 77.357281 
L 262.212821 37.852324 
L 262.748456 47.705841 
L 263.284091 46.070132 
L 263.819726 43.979097 
L 264.35536 69.03361 
L 264.890995 64.269899 
L 265.42663 52.2288 
L 265.962265 46.61663 
L 266.497899 51.565115 
L 267.033534 52.472555 
L 267.569169 51.620599 
L 268.104803 81.450681 
L 268.640438 78.613526 
L 269.176073 71.725251 
L 269.711708 81.91572 
L 270.247342 87.058467 
L 270.782977 72.190508 
L 271.318612 81.054636 
L 271.854247 80.351979 
L 272.389881 83.729663 
L 272.925516 81.272631 
L 273.461151 76.405031 
L 273.996785 90.613854 
L 274.53242 100.232011 
L 275.068055 112.557472 
L 275.60369 162.129353 
L 276.139324 185.957648 
L 276.674959 159.038601 
L 277.210594 184.027149 
L 277.746229 128.541902 
L 278.281863 119.839146 
L 278.817498 124.127758 
L 279.353133 167.658394 
L 279.888767 179.067326 
L 280.424402 221.354212 
L 280.960037 195.135034 
L 281.495672 221.3208 
L 282.031306 190.956322 
L 282.566941 218.264848 
L 283.102576 144.398338 
L 283.63821 133.171605 
L 284.173845 141.90629 
L 284.70948 176.428111 
L 285.245115 156.360483 
L 285.780749 128.838164 
L 286.316384 131.402325 
L 286.852019 219.351724 
L 287.387654 182.425658 
L 287.923288 212.885687 
L 288.458923 198.419271 
L 288.994558 192.196455 
L 289.530192 183.069294 
L 290.065827 176.834888 
L 290.601462 178.88368 
L 291.137097 193.824164 
L 291.672731 177.565814 
L 292.208366 186.216805 
L 292.744001 186.60149 
L 293.279636 189.045096 
L 293.81527 205.757436 
L 294.350905 217.747522 
L 294.88654 185.996315 
L 295.422174 209.734836 
L 295.957809 177.877091 
L 296.493444 153.576347 
L 297.029079 156.704293 
L 297.564713 183.944812 
L 298.100348 181.498268 
L 298.635983 184.865836 
L 299.171618 180.941098 
L 299.707252 184.185478 
L 300.242887 211.129475 
L 301.314156 188.82734 
L 301.849791 209.673447 
L 302.385426 202.340258 
L 302.921061 191.385768 
L 303.456695 188.920649 
L 303.99233 193.66002 
L 304.527965 188.027115 
L 305.0636 196.472904 
L 305.599234 213.498899 
L 306.134869 180.652239 
L 306.670504 167.341956 
L 307.206138 157.991076 
L 307.741773 160.648744 
L 308.277408 159.727956 
L 308.813043 146.767276 
L 309.348677 151.501664 
L 309.884312 215.350518 
L 310.419947 218.273995 
L 310.955581 159.654644 
L 312.026851 141.827281 
L 312.562486 192.262953 
L 313.09812 153.896151 
L 313.633755 150.062742 
L 314.16939 200.521572 
L 314.705025 217.227699 
L 315.240659 205.182353 
L 315.776294 179.008496 
L 316.311929 183.42515 
L 317.383198 173.756448 
L 317.918833 177.261843 
L 318.454468 210.611842 
L 318.990102 222.89643 
L 319.525737 217.857873 
L 320.061372 191.024243 
L 320.597007 187.664294 
L 321.132641 172.075418 
L 321.668276 161.836065 
L 322.203911 166.88727 
L 322.739545 209.055723 
L 323.27518 223.938594 
L 323.810815 220.238305 
L 324.34645 214.644633 
L 324.882084 185.033926 
L 325.417719 175.670743 
L 325.953354 207.183624 
L 326.488989 214.204387 
L 327.024623 218.915024 
L 327.560258 226.188768 
L 328.095893 173.53691 
L 328.631527 221.661422 
L 329.167162 197.171904 
L 329.702797 194.058582 
L 330.238432 213.183735 
L 330.774066 200.14127 
L 331.309701 178.960881 
L 331.845336 172.186931 
L 333.45224 187.66215 
L 333.987875 182.249274 
L 334.523509 189.600271 
L 335.059144 186.715039 
L 335.594779 190.855911 
L 336.130414 182.940353 
L 336.666048 195.139957 
L 337.201683 215.384647 
L 337.737318 220.803646 
L 338.272952 195.446186 
L 338.808587 196.506044 
L 339.344222 196.476389 
L 339.879857 190.246715 
L 340.415491 190.766279 
L 341.486761 187.038762 
L 342.022396 189.386427 
L 342.55803 189.00889 
L 343.093665 192.562879 
L 343.6293 183.981048 
L 344.164934 188.890746 
L 344.700569 188.258395 
L 345.236204 194.016597 
L 345.771839 184.355023 
L 346.307473 185.853435 
L 346.843108 172.118058 
L 347.378743 180.439088 
L 347.914378 201.643767 
L 348.450012 212.145472 
L 349.521282 187.158698 
L 350.056916 185.66976 
L 350.592551 165.751849 
L 351.128186 194.233248 
L 351.663821 194.543902 
L 352.199455 182.213738 
L 352.73509 202.104429 
L 353.270725 207.705415 
L 353.80636 182.051054 
L 354.341994 188.389163 
L 354.877629 211.733894 
L 355.413264 214.487042 
L 355.948898 221.162236 
L 356.484533 214.654029 
L 357.020168 197.329653 
L 357.555803 192.982401 
L 358.091437 167.100426 
L 358.627072 185.214444 
L 359.162707 164.937044 
L 359.698342 154.2431 
L 360.233976 169.578757 
L 360.769611 209.567326 
L 361.305246 158.996591 
L 361.84088 215.847207 
L 362.376515 186.129606 
L 363.447785 155.999023 
L 363.983419 166.356949 
L 364.519054 161.04127 
L 365.054689 163.344406 
L 365.590324 172.608572 
L 366.125958 211.18698 
L 366.661593 187.837415 
L 367.197228 212.678248 
L 367.732862 188.341439 
L 368.268497 198.065817 
L 368.804132 183.447802 
L 369.339767 203.802923 
L 369.875401 183.328935 
L 370.411036 183.421363 
L 370.946671 167.525202 
L 371.482305 181.290534 
L 372.01794 184.579461 
L 372.553575 182.032714 
L 373.08921 186.012795 
L 373.624844 174.249113 
L 374.696114 140.996452 
L 375.231749 156.645783 
L 375.767383 161.999442 
L 376.303018 162.76148 
L 376.838653 168.876133 
L 377.374287 148.243168 
L 377.909922 134.79226 
L 378.445557 136.264608 
L 378.981192 155.166012 
L 379.516826 196.787467 
L 380.052461 193.527202 
L 380.588096 171.772115 
L 381.123731 175.845146 
L 381.659365 165.91718 
L 382.195 163.41078 
L 382.730635 169.462361 
L 383.266269 165.809276 
L 383.801904 173.577186 
L 384.337539 170.838913 
L 384.873174 173.316635 
L 385.408808 182.781509 
L 385.944443 176.865655 
L 387.015713 174.670461 
L 387.551347 174.463017 
L 388.086982 145.398716 
L 388.622617 139.159426 
L 389.158251 149.210153 
L 389.693886 141.309591 
L 390.229521 138.300669 
L 390.765156 133.163769 
L 391.30079 134.028946 
L 391.836425 136.171982 
L 392.907695 120.648876 
L 393.443329 126.521318 
L 393.978964 127.257517 
L 394.514599 121.034209 
L 395.050233 122.861118 
L 395.585868 123.102316 
L 396.121503 116.047648 
L 396.657138 118.311327 
L 397.192772 123.604729 
L 397.728407 123.320349 
L 398.264042 123.36912 
L 398.799676 122.386812 
L 399.335311 108.957973 
L 399.870946 115.664365 
L 400.406581 120.107007 
L 400.942215 126.9592 
L 401.47785 131.749486 
L 402.54912 112.685867 
L 403.084754 123.801694 
L 403.620389 123.598548 
L 404.156024 124.90792 
L 404.691658 136.221464 
L 405.227293 127.443008 
L 405.762928 126.875691 
L 406.298563 127.872958 
L 406.834197 124.27627 
L 407.369832 121.474183 
L 407.905467 127.633746 
L 408.441102 125.666178 
L 408.976736 128.122745 
L 409.512371 134.813512 
L 410.048006 146.52071 
L 410.58364 164.669774 
L 411.119275 137.707635 
L 411.65491 127.722894 
L 412.726179 118.603265 
L 413.261814 127.162011 
L 413.797449 129.550708 
L 414.333084 121.844914 
L 414.868718 122.877444 
L 415.404353 118.692068 
L 415.939988 118.517823 
L 416.475622 120.794055 
L 417.546892 132.906178 
L 418.082527 128.610253 
L 418.618161 122.76943 
L 419.153796 125.093029 
L 419.689431 143.710466 
L 420.225066 140.253507 
L 420.7607 147.92902 
L 421.83197 175.871183 
L 422.367604 180.049893 
L 422.903239 188.572885 
L 423.438874 153.772144 
L 425.045778 109.572577 
L 425.581413 104.456693 
L 426.117048 114.788191 
L 426.652682 118.691468 
L 427.188317 114.401426 
L 427.723952 156.708016 
L 428.259586 167.859145 
L 428.795221 133.548806 
L 429.330856 110.115156 
L 429.866491 109.401851 
L 430.402125 123.260925 
L 430.93776 124.797222 
L 431.473395 135.650092 
L 432.009029 157.439022 
L 433.080299 136.12726 
L 434.151568 121.080564 
L 434.687203 123.376462 
L 435.222838 113.376036 
L 435.758473 107.800999 
L 436.294107 117.129525 
L 436.829742 106.349481 
L 437.365377 112.789966 
L 437.901011 112.32927 
L 438.436646 114.534684 
L 438.972281 112.733892 
L 439.507916 121.031641 
L 440.04355 114.199767 
L 440.579185 117.083201 
L 441.11482 124.482801 
L 441.650455 120.242414 
L 442.186089 118.720607 
L 442.721724 114.99729 
L 443.792993 110.41119 
L 444.328628 106.091728 
L 444.864263 98.207419 
L 445.399898 121.673375 
L 445.935532 118.474385 
L 447.006802 115.526635 
L 447.542437 109.684239 
L 448.078071 96.728109 
L 448.613706 90.908757 
L 449.149341 87.418635 
L 449.684975 90.367781 
L 450.22061 168.557404 
L 450.756245 159.457614 
L 451.29188 154.524239 
L 452.363149 114.183277 
L 452.898784 108.951748 
L 453.434419 114.961365 
L 453.970053 192.864424 
L 454.505688 216.403672 
L 455.041323 217.997543 
L 456.112592 161.043911 
L 456.648227 164.720186 
L 457.183862 186.477354 
L 457.719496 186.643534 
L 458.255131 195.51051 
L 458.790766 213.389013 
L 459.3264 205.702391 
L 459.862035 170.108612 
L 460.39767 153.739442 
L 460.933305 163.302311 
L 461.468939 182.585705 
L 462.004574 173.504651 
L 462.540209 137.591633 
L 463.075844 135.353179 
L 463.611478 136.321957 
L 464.147113 136.052265 
L 464.682748 150.415823 
L 465.218382 158.843404 
L 465.754017 154.841327 
L 466.289652 176.855753 
L 466.825287 182.019886 
L 467.360921 181.526193 
L 467.896556 154.087156 
L 468.432191 149.893723 
L 468.967826 155.619208 
L 469.50346 156.528159 
L 470.039095 147.292878 
L 470.57473 168.758259 
L 471.110364 209.793981 
L 471.645999 211.528878 
L 472.181634 210.985665 
L 472.717269 179.508929 
L 473.252903 170.711046 
L 473.788538 181.290326 
L 474.324173 175.17914 
L 474.859808 153.334828 
L 475.395442 152.335357 
L 475.931077 173.819472 
L 476.466712 206.076493 
L 477.002346 180.63753 
L 477.537981 177.484997 
L 478.073616 191.765257 
L 478.609251 200.071087 
L 479.144885 199.018146 
L 479.68052 194.889598 
L 480.216155 198.801783 
L 480.75179 209.404992 
L 481.287424 206.997556 
L 481.823059 208.81982 
L 482.358694 204.76266 
L 482.894328 211.624324 
L 483.965598 217.890495 
L 484.501233 224.594331 
L 485.036867 208.247261 
L 485.572502 202.585318 
L 486.108137 204.211483 
L 486.643771 204.469309 
L 487.179406 196.916876 
L 487.715041 198.254542 
L 488.250676 198.327422 
L 488.78631 188.045403 
L 489.321945 187.570602 
L 489.85758 193.091586 
L 490.393215 206.436479 
L 490.928849 215.863655 
L 491.464484 217.4549 
L 492.000119 193.484388 
L 492.535753 184.749522 
L 493.071388 192.183252 
L 493.607023 164.642909 
L 494.678292 181.451216 
L 495.213927 179.545244 
L 495.749562 209.747719 
L 496.285197 188.657334 
L 496.820831 156.091167 
L 497.892101 167.921997 
L 498.427735 154.565311 
L 498.96337 163.892711 
L 499.499005 213.941688 
L 500.03464 192.330635 
L 500.570274 178.383084 
L 501.105909 176.692427 
L 501.641544 182.480583 
L 502.177179 182.833095 
L 502.712813 177.858141 
L 503.784083 192.872041 
L 504.319717 181.554457 
L 504.855352 173.372582 
L 505.390987 182.98669 
L 505.926622 188.882666 
L 506.462256 200.832311 
L 506.997891 195.230865 
L 507.533526 182.043522 
L 508.069161 183.449591 
L 508.604795 188.809013 
L 509.14043 175.540456 
L 509.676065 174.277531 
L 510.211699 182.049041 
L 510.747334 173.648502 
L 511.282969 173.57955 
L 511.818604 178.443301 
L 512.354238 171.054748 
L 512.889873 175.815988 
L 513.425508 170.642518 
L 513.961143 183.466527 
L 514.496777 190.927129 
L 515.032412 175.274384 
L 515.568047 171.617243 
L 516.639316 177.5613 
L 517.174951 182.700706 
L 517.710586 177.63749 
L 518.24622 175.877271 
L 518.781855 166.765571 
L 519.31749 177.409074 
L 519.853124 178.770214 
L 520.388759 176.168132 
L 520.924394 172.825082 
L 521.460029 177.627581 
L 521.995663 176.795737 
L 522.531298 179.595104 
L 523.066933 168.954944 
L 523.602568 163.088487 
L 524.138202 171.39484 
L 525.209472 166.29512 
L 525.745106 164.203503 
L 526.280741 155.766569 
L 526.816376 176.390002 
L 527.887645 157.582947 
L 528.42328 163.250515 
L 528.958915 178.314387 
L 529.49455 177.96756 
L 530.565819 200.902393 
L 531.101454 174.074897 
L 531.637088 172.120053 
L 532.708358 186.218068 
L 533.243993 182.783767 
L 533.779627 172.154734 
L 534.315262 170.705228 
L 534.850897 183.536979 
L 535.386532 172.852959 
L 535.922166 170.821342 
L 536.457801 175.474401 
L 536.993436 179.012036 
L 537.52907 176.102474 
L 538.064705 216.728088 
L 538.60034 218.901423 
L 539.135975 187.656331 
L 539.671609 180.18129 
L 540.207244 181.625237 
L 540.742879 200.917515 
L 541.278514 173.588942 
L 541.814148 173.901558 
L 542.349783 220.008515 
L 542.885418 203.064069 
L 543.421052 151.775573 
L 543.956687 176.880712 
L 544.492322 149.038898 
L 545.027957 146.502533 
L 545.563591 220.321642 
L 546.099226 225.430704 
L 546.634861 175.736413 
L 547.170495 170.010866 
L 547.70613 175.737049 
L 548.241765 147.837309 
L 548.7774 155.734758 
L 549.313034 190.108649 
L 549.848669 180.106229 
L 550.384304 185.292256 
L 550.919939 195.270257 
L 551.455573 171.445879 
L 551.991208 212.591679 
L 552.526843 227.498555 
L 553.062477 222.541773 
L 554.133747 192.297323 
L 554.669382 189.726645 
L 555.205016 194.735376 
L 555.740651 186.445292 
L 556.276286 176.183331 
L 557.347555 199.540403 
L 557.88319 189.827548 
L 558.954459 200.895295 
L 559.490094 217.697775 
L 560.025729 222.421651 
L 560.561364 208.06805 
L 561.632633 223.045654 
L 562.168268 192.714277 
L 562.703903 217.143627 
L 563.239537 225.797976 
L 563.775172 225.096117 
L 564.310807 223.898006 
L 564.846441 224.926713 
L 565.382076 203.419277 
L 565.917711 212.122006 
L 566.453346 192.564555 
L 566.98898 178.145932 
L 567.524615 183.811057 
L 568.06025 201.391488 
L 568.595885 193.67434 
L 569.131519 192.52652 
L 569.667154 183.204239 
L 570.202789 198.782065 
L 570.738423 181.171099 
L 571.274058 215.433242 
L 571.809693 192.992626 
L 572.345328 199.699643 
L 572.880962 195.663351 
L 573.416597 222.40311 
L 573.952232 198.429428 
L 575.023501 199.307079 
L 575.559136 221.08937 
L 576.094771 223.293143 
L 576.630405 227.704038 
L 577.16604 222.795795 
L 577.701675 226.926497 
L 578.23731 225.547981 
L 578.772944 217.719474 
L 579.308579 224.743141 
L 579.844214 227.510252 
L 580.379848 226.562272 
L 580.915483 225.856088 
L 581.451118 210.229904 
L 581.986753 222.087289 
L 582.522387 202.421651 
L 583.058022 216.967563 
L 583.593657 223.250891 
L 584.129292 204.841006 
L 584.664926 198.369526 
L 585.200561 202.006106 
L 585.736196 200.611087 
L 586.27183 177.017756 
L 586.807465 192.226521 
L 587.3431 188.277529 
L 587.878735 206.785188 
L 588.414369 200.95645 
L 588.950004 178.632249 
L 589.485639 170.179049 
L 590.021274 172.446452 
L 590.556908 185.687783 
L 591.092543 212.26927 
L 591.628178 195.518542 
L 592.163812 204.986697 
L 592.699447 207.528156 
L 593.235082 194.141835 
L 593.770717 220.308111 
L 594.306351 221.677839 
L 594.841986 219.914276 
L 595.377621 210.477234 
L 595.913256 191.174496 
L 596.44889 199.726841 
L 596.984525 191.353882 
L 597.52016 185.009524 
L 598.055794 191.102348 
L 598.591429 218.303633 
L 599.127064 174.348349 
L 599.662699 176.41122 
L 600.198333 170.458729 
L 600.733968 183.891457 
L 601.269603 214.10695 
L 601.805238 167.130073 
L 602.340872 199.645682 
L 602.876507 212.692925 
L 603.412142 196.412252 
L 603.947776 135.453063 
L 605.019046 174.716597 
L 605.554681 169.208311 
L 606.090315 175.39717 
L 606.62595 219.984289 
L 607.161585 168.810599 
L 607.697219 170.544657 
L 608.232854 156.067069 
L 608.768489 169.404723 
L 609.304124 160.423518 
L 609.839758 173.529534 
L 610.375393 200.247105 
L 610.911028 188.889959 
L 611.446663 194.383188 
L 611.982297 180.259327 
L 612.517932 179.191805 
L 613.053567 209.014781 
L 613.589201 218.927859 
L 614.124836 201.281822 
L 614.660471 170.382508 
L 615.196106 174.966453 
L 615.73174 183.696536 
L 616.267375 171.47053 
L 616.80301 177.650063 
L 617.338645 166.134554 
L 617.874279 194.97997 
L 618.409914 172.617162 
L 618.945549 170.451765 
L 619.481183 170.788192 
L 620.016818 177.725337 
L 620.552453 171.456754 
L 621.088088 167.210187 
L 621.623722 165.57669 
L 622.159357 180.075492 
L 622.694992 176.785922 
L 623.230627 168.261639 
L 623.766261 198.700222 
L 624.301896 192.137444 
L 624.837531 166.484781 
L 625.373165 159.388206 
L 625.9088 139.108127 
L 626.444435 136.478775 
L 626.98007 126.604281 
L 628.051339 180.777809 
L 628.586974 188.510586 
L 629.122609 180.65781 
L 629.658243 189.962889 
L 630.193878 134.592393 
L 630.729513 131.148254 
L 631.800782 182.242456 
L 632.336417 182.780977 
L 632.872052 189.815796 
L 633.407686 205.211636 
L 633.943321 165.072415 
L 634.478956 196.534227 
L 635.01459 160.121789 
L 635.550225 189.367114 
L 636.08586 162.502512 
L 636.621495 171.840876 
L 637.157129 172.382758 
L 637.692764 173.514713 
L 638.228399 190.989426 
L 639.299668 164.414978 
L 639.835303 164.178747 
L 640.370938 165.20849 
L 640.906572 157.428505 
L 641.442207 172.097011 
L 641.977842 162.868279 
L 642.513477 199.187102 
L 643.049111 179.682101 
L 643.584746 177.587885 
L 644.120381 169.019931 
L 644.656016 164.214419 
L 645.19165 155.770244 
L 645.727285 158.821439 
L 646.26292 159.295578 
L 646.798554 148.651939 
L 647.334189 142.577523 
L 647.869824 132.425635 
L 648.405459 129.975188 
L 648.941093 151.546476 
L 649.476728 181.160253 
L 650.012363 163.379415 
L 650.547998 171.966589 
L 651.083632 173.4936 
L 651.619267 174.226545 
L 652.154902 166.269696 
L 652.690536 135.442544 
L 653.226171 140.896719 
L 653.761806 130.599127 
L 654.297441 176.731088 
L 654.833075 176.701767 
L 655.36871 154.912284 
L 655.904345 148.257118 
L 656.43998 149.769897 
L 656.975614 141.790691 
L 657.511249 143.996879 
L 658.046884 143.297869 
L 658.582518 217.120866 
L 659.653788 176.014018 
L 660.189423 199.981184 
L 660.725057 169.239524 
L 661.260692 156.064813 
L 662.331962 206.03565 
L 662.867596 216.514916 
L 663.403231 201.426813 
L 663.938866 182.516731 
L 664.4745 178.328235 
L 665.010135 188.635694 
L 665.54577 185.135673 
L 666.081405 183.021253 
L 666.617039 171.973652 
L 667.152674 192.630255 
L 667.688309 196.1795 
L 668.223943 182.693423 
L 668.759578 188.801365 
L 669.295213 182.340565 
L 669.830848 196.047799 
L 670.366482 196.058121 
L 670.902117 196.211198 
L 671.437752 195.707332 
L 671.973387 222.437135 
L 672.509021 198.020169 
L 673.044656 202.548838 
L 673.580291 202.509584 
L 674.115925 189.176362 
L 674.65156 188.605086 
L 675.187195 194.647865 
L 675.72283 205.466024 
L 676.258464 202.082514 
L 676.794099 179.589995 
L 677.329734 200.678844 
L 677.865369 174.747794 
L 678.401003 168.089213 
L 678.936638 169.98956 
L 679.472273 190.295726 
L 679.472273 190.295726 
" clip-path="url(#p6477c21d0c)" style="fill: none; stroke: #ff7f0e; stroke-opacity: 0.7; stroke-width: 1.5; stroke-linecap: square"/>
   </g>
   <g id="patch_3">
    <path d="M 55.19 238.84 
L 55.19 10.8 
" style="fill: none; stroke: #000000; stroke-width: 0.8; stroke-linejoin: miter; stroke-linecap: square"/>
   </g>
   <g id="patch_4">
    <path d="M 709.2 238.84 
L 709.2 10.8 
" style="fill: none; stroke: #000000; stroke-width: 0.8; stroke-linejoin: miter; stroke-linecap: square"/>
   </g>
   <g id="patch_5">
    <path d="M 55.19 238.84 
L 709.2 238.84 
" style="fill: none; stroke: #000000; stroke-width: 0.8; stroke-linejoin: miter; stroke-linecap: square"/>
   </g>
   <g id="patch_6">
    <path d="M 55.19 10.8 
L 709.2 10.8 
" style="fill: none; stroke: #000000; stroke-width: 0.8; stroke-linejoin: miter; stroke-linecap: square"/>
   </g>
   <g id="legend_1">
    <g id="patch_7">
     <path d="M 442.349062 63.09875 
L 699.4 63.09875 
Q 702.2 63.09875 702.2 60.29875 
L 702.2 20.6 
Q 702.2 17.8 699.4 17.8 
L 442.349062 17.8 
Q 439.549062 17.8 439.549062 20.6 
L 439.549062 60.29875 
Q 439.549062 63.09875 442.349062 63.09875 
z
" style="fill: #ffffff; opacity: 0.8; stroke: #cccccc; stroke-linejoin: miter"/>
    </g>
    <g id="line2d_33">
     <path d="M 445.149062 29.137813 
L 459.149062 29.137813 
L 473.149062 29.137813 
" style="fill: none; stroke: #1f77b4; stroke-opacity: 0.7; stroke-width: 1.5; stroke-linecap: square"/>
    </g>
    <g id="text_18">
     <!-- Actual -->
     <g transform="translate(484.349062 34.037813) scale(0.14 -0.14)">
      <defs>
       <path id="DejaVuSans-41" d="M 2188 4044 
L 1331 1722 
L 3047 1722 
L 2188 4044 
z
M 1831 4666 
L 2547 4666 
L 4325 0 
L 3669 0 
L 3244 1197 
L 1141 1197 
L 716 0 
L 50 0 
L 1831 4666 
z
" transform="scale(0.015625)"/>
       <path id="DejaVuSans-63" d="M 3122 3366 
L 3122 2828 
Q 2878 2963 2633 3030 
Q 2388 3097 2138 3097 
Q 1578 3097 1268 2742 
Q 959 2388 959 1747 
Q 959 1106 1268 751 
Q 1578 397 2138 397 
Q 2388 397 2633 464 
Q 2878 531 3122 666 
L 3122 134 
Q 2881 22 2623 -34 
Q 2366 -91 2075 -91 
Q 1284 -91 818 406 
Q 353 903 353 1747 
Q 353 2603 823 3093 
Q 1294 3584 2113 3584 
Q 2378 3584 2631 3529 
Q 2884 3475 3122 3366 
z
" transform="scale(0.015625)"/>
       <path id="DejaVuSans-74" d="M 1172 4494 
L 1172 3500 
L 2356 3500 
L 2356 3053 
L 1172 3053 
L 1172 1153 
Q 1172 725 1289 603 
Q 1406 481 1766 481 
L 2356 481 
L 2356 0 
L 1766 0 
Q 1100 0 847 248 
Q 594 497 594 1153 
L 594 3053 
L 172 3053 
L 172 3500 
L 594 3500 
L 594 4494 
L 1172 4494 
z
" transform="scale(0.015625)"/>
       <path id="DejaVuSans-75" d="M 544 1381 
L 544 3500 
L 1119 3500 
L 1119 1403 
Q 1119 906 1312 657 
Q 1506 409 1894 409 
Q 2359 409 2629 706 
Q 2900 1003 2900 1516 
L 2900 3500 
L 3475 3500 
L 3475 0 
L 2900 0 
L 2900 538 
Q 2691 219 2414 64 
Q 2138 -91 1772 -91 
Q 1169 -91 856 284 
Q 544 659 544 1381 
z
M 1991 3584 
L 1991 3584 
z
" transform="scale(0.015625)"/>
      </defs>
      <use xlink:href="#DejaVuSans-41"/>
      <use xlink:href="#DejaVuSans-63" x="66.658203"/>
      <use xlink:href="#DejaVuSans-74" x="121.638672"/>
      <use xlink:href="#DejaVuSans-75" x="160.847656"/>
      <use xlink:href="#DejaVuSans-61" x="224.226562"/>
      <use xlink:href="#DejaVuSans-6c" x="285.505859"/>
     </g>
    </g>
    <g id="line2d_34">
     <path d="M 445.149062 49.687188 
L 459.149062 49.687188 
L 473.149062 49.687188 
" style="fill: none; stroke: #ff7f0e; stroke-opacity: 0.7; stroke-width: 1.5; stroke-linecap: square"/>
    </g>
    <g id="text_19">
     <!-- Stacked LSTM+GBT Prediction -->
     <g transform="translate(484.349062 54.587188) scale(0.14 -0.14)">
      <defs>
       <path id="DejaVuSans-6b" d="M 581 4863 
L 1159 4863 
L 1159 1991 
L 2875 3500 
L 3609 3500 
L 1753 1863 
L 3688 0 
L 2938 0 
L 1159 1709 
L 1159 0 
L 581 0 
L 581 4863 
z
" transform="scale(0.015625)"/>
       <path id="DejaVuSans-64" d="M 2906 2969 
L 2906 4863 
L 3481 4863 
L 3481 0 
L 2906 0 
L 2906 525 
Q 2725 213 2448 61 
Q 2172 -91 1784 -91 
Q 1150 -91 751 415 
Q 353 922 353 1747 
Q 353 2572 751 3078 
Q 1150 3584 1784 3584 
Q 2172 3584 2448 3432 
Q 2725 3281 2906 2969 
z
M 947 1747 
Q 947 1113 1208 752 
Q 1469 391 1925 391 
Q 2381 391 2643 752 
Q 2906 1113 2906 1747 
Q 2906 2381 2643 2742 
Q 2381 3103 1925 3103 
Q 1469 3103 1208 2742 
Q 947 2381 947 1747 
z
" transform="scale(0.015625)"/>
       <path id="DejaVuSans-20" transform="scale(0.015625)"/>
       <path id="DejaVuSans-4c" d="M 628 4666 
L 1259 4666 
L 1259 531 
L 3531 531 
L 3531 0 
L 628 0 
L 628 4666 
z
" transform="scale(0.015625)"/>
       <path id="DejaVuSans-54" d="M -19 4666 
L 3928 4666 
L 3928 4134 
L 2272 4134 
L 2272 0 
L 1638 0 
L 1638 4134 
L -19 4134 
L -19 4666 
z
" transform="scale(0.015625)"/>
       <path id="DejaVuSans-4d" d="M 628 4666 
L 1569 4666 
L 2759 1491 
L 3956 4666 
L 4897 4666 
L 4897 0 
L 4281 0 
L 4281 4097 
L 3078 897 
L 2444 897 
L 1241 4097 
L 1241 0 
L 628 0 
L 628 4666 
z
" transform="scale(0.015625)"/>
       <path id="DejaVuSans-2b" d="M 2944 4013 
L 2944 2272 
L 4684 2272 
L 4684 1741 
L 2944 1741 
L 2944 0 
L 2419 0 
L 2419 1741 
L 678 1741 
L 678 2272 
L 2419 2272 
L 2419 4013 
L 2944 4013 
z
" transform="scale(0.015625)"/>
       <path id="DejaVuSans-47" d="M 3809 666 
L 3809 1919 
L 2778 1919 
L 2778 2438 
L 4434 2438 
L 4434 434 
Q 4069 175 3628 42 
Q 3188 -91 2688 -91 
Q 1594 -91 976 548 
Q 359 1188 359 2328 
Q 359 3472 976 4111 
Q 1594 4750 2688 4750 
Q 3144 4750 3555 4637 
Q 3966 4525 4313 4306 
L 4313 3634 
Q 3963 3931 3569 4081 
Q 3175 4231 2741 4231 
Q 1884 4231 1454 3753 
Q 1025 3275 1025 2328 
Q 1025 1384 1454 906 
Q 1884 428 2741 428 
Q 3075 428 3337 486 
Q 3600 544 3809 666 
z
" transform="scale(0.015625)"/>
       <path id="DejaVuSans-42" d="M 1259 2228 
L 1259 519 
L 2272 519 
Q 2781 519 3026 730 
Q 3272 941 3272 1375 
Q 3272 1813 3026 2020 
Q 2781 2228 2272 2228 
L 1259 2228 
z
M 1259 4147 
L 1259 2741 
L 2194 2741 
Q 2656 2741 2882 2914 
Q 3109 3088 3109 3444 
Q 3109 3797 2882 3972 
Q 2656 4147 2194 4147 
L 1259 4147 
z
M 628 4666 
L 2241 4666 
Q 2963 4666 3353 4366 
Q 3744 4066 3744 3513 
Q 3744 3084 3544 2831 
Q 3344 2578 2956 2516 
Q 3422 2416 3680 2098 
Q 3938 1781 3938 1306 
Q 3938 681 3513 340 
Q 3088 0 2303 0 
L 628 0 
L 628 4666 
z
" transform="scale(0.015625)"/>
       <path id="DejaVuSans-50" d="M 1259 4147 
L 1259 2394 
L 2053 2394 
Q 2494 2394 2734 2622 
Q 2975 2850 2975 3272 
Q 2975 3691 2734 3919 
Q 2494 4147 2053 4147 
L 1259 4147 
z
M 628 4666 
L 2053 4666 
Q 2838 4666 3239 4311 
Q 3641 3956 3641 3272 
Q 3641 2581 3239 2228 
Q 2838 1875 2053 1875 
L 1259 1875 
L 1259 0 
L 628 0 
L 628 4666 
z
" transform="scale(0.015625)"/>
       <path id="DejaVuSans-72" d="M 2631 2963 
Q 2534 3019 2420 3045 
Q 2306 3072 2169 3072 
Q 1681 3072 1420 2755 
Q 1159 2438 1159 1844 
L 1159 0 
L 581 0 
L 581 3500 
L 1159 3500 
L 1159 2956 
Q 1341 3275 1631 3429 
Q 1922 3584 2338 3584 
Q 2397 3584 2469 3576 
Q 2541 3569 2628 3553 
L 2631 2963 
z
" transform="scale(0.015625)"/>
       <path id="DejaVuSans-69" d="M 603 3500 
L 1178 3500 
L 1178 0 
L 603 0 
L 603 3500 
z
M 603 4863 
L 1178 4863 
L 1178 4134 
L 603 4134 
L 603 4863 
z
" transform="scale(0.015625)"/>
       <path id="DejaVuSans-6f" d="M 1959 3097 
Q 1497 3097 1228 2736 
Q 959 2375 959 1747 
Q 959 1119 1226 758 
Q 1494 397 1959 397 
Q 2419 397 2687 759 
Q 2956 1122 2956 1747 
Q 2956 2369 2687 2733 
Q 2419 3097 1959 3097 
z
M 1959 3584 
Q 2709 3584 3137 3096 
Q 3566 2609 3566 1747 
Q 3566 888 3137 398 
Q 2709 -91 1959 -91 
Q 1206 -91 779 398 
Q 353 888 353 1747 
Q 353 2609 779 3096 
Q 1206 3584 1959 3584 
z
" transform="scale(0.015625)"/>
      </defs>
      <use xlink:href="#DejaVuSans-53"/>
      <use xlink:href="#DejaVuSans-74" x="63.476562"/>
      <use xlink:href="#DejaVuSans-61" x="102.685547"/>
      <use xlink:href="#DejaVuSans-63" x="163.964844"/>
      <use xlink:href="#DejaVuSans-6b" x="218.945312"/>
      <use xlink:href="#DejaVuSans-65" x="273.230469"/>
      <use xlink:href="#DejaVuSans-64" x="334.753906"/>
      <use xlink:href="#DejaVuSans-20" x="398.230469"/>
      <use xlink:href="#DejaVuSans-4c" x="430.017578"/>
      <use xlink:href="#DejaVuSans-53" x="485.730469"/>
      <use xlink:href="#DejaVuSans-54" x="549.207031"/>
      <use xlink:href="#DejaVuSans-4d" x="610.291016"/>
      <use xlink:href="#DejaVuSans-2b" x="696.570312"/>
      <use xlink:href="#DejaVuSans-47" x="780.359375"/>
      <use xlink:href="#DejaVuSans-42" x="857.849609"/>
      <use xlink:href="#DejaVuSans-54" x="926.453125"/>
      <use xlink:href="#DejaVuSans-20" x="987.537109"/>
      <use xlink:href="#DejaVuSans-50" x="1019.324219"/>
      <use xlink:href="#DejaVuSans-72" x="1077.876953"/>
      <use xlink:href="#DejaVuSans-65" x="1116.740234"/>
      <use xlink:href="#DejaVuSans-64" x="1178.263672"/>
      <use xlink:href="#DejaVuSans-69" x="1241.740234"/>
      <use xlink:href="#DejaVuSans-63" x="1269.523438"/>
      <use xlink:href="#DejaVuSans-74" x="1324.503906"/>
      <use xlink:href="#DejaVuSans-69" x="1363.712891"/>
      <use xlink:href="#DejaVuSans-6f" x="1391.496094"/>
      <use xlink:href="#DejaVuSans-6e" x="1452.677734"/>
     </g>
    </g>
   </g>
  </g>
 </g>
 <defs>
  <clipPath id="p6477c21d0c">
   <rect x="55.19" y="10.8" width="654.01" height="228.04"/>
  </clipPath>
 </defs>
</svg>
