<?xml version="1.0" encoding="utf-8" standalone="no"?>
<!DOCTYPE svg PUBLIC "-//W3C//DTD SVG 1.1//EN"
  "http://www.w3.org/Graphics/SVG/1.1/DTD/svg11.dtd">
<svg xmlns:xlink="http://www.w3.org/1999/xlink" width="720pt" height="288pt" viewBox="0 0 720 288" xmlns="http://www.w3.org/2000/svg" version="1.1">
 <metadata>
  <rdf:RDF xmlns:dc="http://purl.org/dc/elements/1.1/" xmlns:cc="http://creativecommons.org/ns#" xmlns:rdf="http://www.w3.org/1999/02/22-rdf-syntax-ns#">
   <cc:Work>
    <dc:type rdf:resource="http://purl.org/dc/dcmitype/StillImage"/>
    <dc:date>2025-04-15T16:30:20.618599</dc:date>
    <dc:format>image/svg+xml</dc:format>
    <dc:creator>
     <cc:Agent>
      <dc:title>Matplotlib v3.9.2, https://matplotlib.org/</dc:title>
     </cc:Agent>
    </dc:creator>
   </cc:Work>
  </rdf:RDF>
 </metadata>
 <defs>
  <style type="text/css">*{stroke-linejoin: round; stroke-linecap: butt}</style>
 </defs>
 <g id="figure_1">
  <g id="patch_1">
   <path d="M 0 288 
L 720 288 
L 720 0 
L 0 0 
z
" style="fill: #ffffff"/>
  </g>
  <g id="axes_1">
   <g id="patch_2">
    <path d="M 55.19 238.84 
L 709.2 238.84 
L 709.2 10.8 
L 55.19 10.8 
z
" style="fill: #ffffff"/>
   </g>
   <g id="matplotlib.axis_1">
    <g id="xtick_1">
     <g id="line2d_1">
      <path d="M 84.917727 238.84 
L 84.917727 10.8 
" clip-path="url(#p5b233f1380)" style="fill: none; stroke: #b0b0b0; stroke-width: 0.8; stroke-linecap: square"/>
     </g>
     <g id="line2d_2">
      <defs>
       <path id="m680afc933b" d="M 0 0 
L 0 3.5 
" style="stroke: #000000; stroke-width: 0.8"/>
      </defs>
      <g>
       <use xlink:href="#m680afc933b" x="84.917727" y="238.84" style="stroke: #000000; stroke-width: 0.8"/>
      </g>
     </g>
     <g id="text_1">
      <!-- 0 -->
      <g transform="translate(81.100227 254.958125) scale(0.12 -0.12)">
       <defs>
        <path id="DejaVuSans-30" d="M 2034 4250 
Q 1547 4250 1301 3770 
Q 1056 3291 1056 2328 
Q 1056 1369 1301 889 
Q 1547 409 2034 409 
Q 2525 409 2770 889 
Q 3016 1369 3016 2328 
Q 3016 3291 2770 3770 
Q 2525 4250 2034 4250 
z
M 2034 4750 
Q 2819 4750 3233 4129 
Q 3647 3509 3647 2328 
Q 3647 1150 3233 529 
Q 2819 -91 2034 -91 
Q 1250 -91 836 529 
Q 422 1150 422 2328 
Q 422 3509 836 4129 
Q 1250 4750 2034 4750 
z
" transform="scale(0.015625)"/>
       </defs>
       <use xlink:href="#DejaVuSans-30"/>
      </g>
     </g>
    </g>
    <g id="xtick_2">
     <g id="line2d_3">
      <path d="M 192.044672 238.84 
L 192.044672 10.8 
" clip-path="url(#p5b233f1380)" style="fill: none; stroke: #b0b0b0; stroke-width: 0.8; stroke-linecap: square"/>
     </g>
     <g id="line2d_4">
      <g>
       <use xlink:href="#m680afc933b" x="192.044672" y="238.84" style="stroke: #000000; stroke-width: 0.8"/>
      </g>
     </g>
     <g id="text_2">
      <!-- 200 -->
      <g transform="translate(180.592172 254.958125) scale(0.12 -0.12)">
       <defs>
        <path id="DejaVuSans-32" d="M 1228 531 
L 3431 531 
L 3431 0 
L 469 0 
L 469 531 
Q 828 903 1448 1529 
Q 2069 2156 2228 2338 
Q 2531 2678 2651 2914 
Q 2772 3150 2772 3378 
Q 2772 3750 2511 3984 
Q 2250 4219 1831 4219 
Q 1534 4219 1204 4116 
Q 875 4013 500 3803 
L 500 4441 
Q 881 4594 1212 4672 
Q 1544 4750 1819 4750 
Q 2544 4750 2975 4387 
Q 3406 4025 3406 3419 
Q 3406 3131 3298 2873 
Q 3191 2616 2906 2266 
Q 2828 2175 2409 1742 
Q 1991 1309 1228 531 
z
" transform="scale(0.015625)"/>
       </defs>
       <use xlink:href="#DejaVuSans-32"/>
       <use xlink:href="#DejaVuSans-30" x="63.623047"/>
       <use xlink:href="#DejaVuSans-30" x="127.246094"/>
      </g>
     </g>
    </g>
    <g id="xtick_3">
     <g id="line2d_5">
      <path d="M 299.171618 238.84 
L 299.171618 10.8 
" clip-path="url(#p5b233f1380)" style="fill: none; stroke: #b0b0b0; stroke-width: 0.8; stroke-linecap: square"/>
     </g>
     <g id="line2d_6">
      <g>
       <use xlink:href="#m680afc933b" x="299.171618" y="238.84" style="stroke: #000000; stroke-width: 0.8"/>
      </g>
     </g>
     <g id="text_3">
      <!-- 400 -->
      <g transform="translate(287.719118 254.958125) scale(0.12 -0.12)">
       <defs>
        <path id="DejaVuSans-34" d="M 2419 4116 
L 825 1625 
L 2419 1625 
L 2419 4116 
z
M 2253 4666 
L 3047 4666 
L 3047 1625 
L 3713 1625 
L 3713 1100 
L 3047 1100 
L 3047 0 
L 2419 0 
L 2419 1100 
L 313 1100 
L 313 1709 
L 2253 4666 
z
" transform="scale(0.015625)"/>
       </defs>
       <use xlink:href="#DejaVuSans-34"/>
       <use xlink:href="#DejaVuSans-30" x="63.623047"/>
       <use xlink:href="#DejaVuSans-30" x="127.246094"/>
      </g>
     </g>
    </g>
    <g id="xtick_4">
     <g id="line2d_7">
      <path d="M 406.298563 238.84 
L 406.298563 10.8 
" clip-path="url(#p5b233f1380)" style="fill: none; stroke: #b0b0b0; stroke-width: 0.8; stroke-linecap: square"/>
     </g>
     <g id="line2d_8">
      <g>
       <use xlink:href="#m680afc933b" x="406.298563" y="238.84" style="stroke: #000000; stroke-width: 0.8"/>
      </g>
     </g>
     <g id="text_4">
      <!-- 600 -->
      <g transform="translate(394.846063 254.958125) scale(0.12 -0.12)">
       <defs>
        <path id="DejaVuSans-36" d="M 2113 2584 
Q 1688 2584 1439 2293 
Q 1191 2003 1191 1497 
Q 1191 994 1439 701 
Q 1688 409 2113 409 
Q 2538 409 2786 701 
Q 3034 994 3034 1497 
Q 3034 2003 2786 2293 
Q 2538 2584 2113 2584 
z
M 3366 4563 
L 3366 3988 
Q 3128 4100 2886 4159 
Q 2644 4219 2406 4219 
Q 1781 4219 1451 3797 
Q 1122 3375 1075 2522 
Q 1259 2794 1537 2939 
Q 1816 3084 2150 3084 
Q 2853 3084 3261 2657 
Q 3669 2231 3669 1497 
Q 3669 778 3244 343 
Q 2819 -91 2113 -91 
Q 1303 -91 875 529 
Q 447 1150 447 2328 
Q 447 3434 972 4092 
Q 1497 4750 2381 4750 
Q 2619 4750 2861 4703 
Q 3103 4656 3366 4563 
z
" transform="scale(0.015625)"/>
       </defs>
       <use xlink:href="#DejaVuSans-36"/>
       <use xlink:href="#DejaVuSans-30" x="63.623047"/>
       <use xlink:href="#DejaVuSans-30" x="127.246094"/>
      </g>
     </g>
    </g>
    <g id="xtick_5">
     <g id="line2d_9">
      <path d="M 513.425508 238.84 
L 513.425508 10.8 
" clip-path="url(#p5b233f1380)" style="fill: none; stroke: #b0b0b0; stroke-width: 0.8; stroke-linecap: square"/>
     </g>
     <g id="line2d_10">
      <g>
       <use xlink:href="#m680afc933b" x="513.425508" y="238.84" style="stroke: #000000; stroke-width: 0.8"/>
      </g>
     </g>
     <g id="text_5">
      <!-- 800 -->
      <g transform="translate(501.973008 254.958125) scale(0.12 -0.12)">
       <defs>
        <path id="DejaVuSans-38" d="M 2034 2216 
Q 1584 2216 1326 1975 
Q 1069 1734 1069 1313 
Q 1069 891 1326 650 
Q 1584 409 2034 409 
Q 2484 409 2743 651 
Q 3003 894 3003 1313 
Q 3003 1734 2745 1975 
Q 2488 2216 2034 2216 
z
M 1403 2484 
Q 997 2584 770 2862 
Q 544 3141 544 3541 
Q 544 4100 942 4425 
Q 1341 4750 2034 4750 
Q 2731 4750 3128 4425 
Q 3525 4100 3525 3541 
Q 3525 3141 3298 2862 
Q 3072 2584 2669 2484 
Q 3125 2378 3379 2068 
Q 3634 1759 3634 1313 
Q 3634 634 3220 271 
Q 2806 -91 2034 -91 
Q 1263 -91 848 271 
Q 434 634 434 1313 
Q 434 1759 690 2068 
Q 947 2378 1403 2484 
z
M 1172 3481 
Q 1172 3119 1398 2916 
Q 1625 2713 2034 2713 
Q 2441 2713 2670 2916 
Q 2900 3119 2900 3481 
Q 2900 3844 2670 4047 
Q 2441 4250 2034 4250 
Q 1625 4250 1398 4047 
Q 1172 3844 1172 3481 
z
" transform="scale(0.015625)"/>
       </defs>
       <use xlink:href="#DejaVuSans-38"/>
       <use xlink:href="#DejaVuSans-30" x="63.623047"/>
       <use xlink:href="#DejaVuSans-30" x="127.246094"/>
      </g>
     </g>
    </g>
    <g id="xtick_6">
     <g id="line2d_11">
      <path d="M 620.552453 238.84 
L 620.552453 10.8 
" clip-path="url(#p5b233f1380)" style="fill: none; stroke: #b0b0b0; stroke-width: 0.8; stroke-linecap: square"/>
     </g>
     <g id="line2d_12">
      <g>
       <use xlink:href="#m680afc933b" x="620.552453" y="238.84" style="stroke: #000000; stroke-width: 0.8"/>
      </g>
     </g>
     <g id="text_6">
      <!-- 1000 -->
      <g transform="translate(605.282453 254.958125) scale(0.12 -0.12)">
       <defs>
        <path id="DejaVuSans-31" d="M 794 531 
L 1825 531 
L 1825 4091 
L 703 3866 
L 703 4441 
L 1819 4666 
L 2450 4666 
L 2450 531 
L 3481 531 
L 3481 0 
L 794 0 
L 794 531 
z
" transform="scale(0.015625)"/>
       </defs>
       <use xlink:href="#DejaVuSans-31"/>
       <use xlink:href="#DejaVuSans-30" x="63.623047"/>
       <use xlink:href="#DejaVuSans-30" x="127.246094"/>
       <use xlink:href="#DejaVuSans-30" x="190.869141"/>
      </g>
     </g>
    </g>
    <g id="text_7">
     <!-- Samples -->
     <g transform="translate(348.03 273.61125) scale(0.16 -0.16)">
      <defs>
       <path id="DejaVuSans-53" d="M 3425 4513 
L 3425 3897 
Q 3066 4069 2747 4153 
Q 2428 4238 2131 4238 
Q 1616 4238 1336 4038 
Q 1056 3838 1056 3469 
Q 1056 3159 1242 3001 
Q 1428 2844 1947 2747 
L 2328 2669 
Q 3034 2534 3370 2195 
Q 3706 1856 3706 1288 
Q 3706 609 3251 259 
Q 2797 -91 1919 -91 
Q 1588 -91 1214 -16 
Q 841 59 441 206 
L 441 856 
Q 825 641 1194 531 
Q 1563 422 1919 422 
Q 2459 422 2753 634 
Q 3047 847 3047 1241 
Q 3047 1584 2836 1778 
Q 2625 1972 2144 2069 
L 1759 2144 
Q 1053 2284 737 2584 
Q 422 2884 422 3419 
Q 422 4038 858 4394 
Q 1294 4750 2059 4750 
Q 2388 4750 2728 4690 
Q 3069 4631 3425 4513 
z
" transform="scale(0.015625)"/>
       <path id="DejaVuSans-61" d="M 2194 1759 
Q 1497 1759 1228 1600 
Q 959 1441 959 1056 
Q 959 750 1161 570 
Q 1363 391 1709 391 
Q 2188 391 2477 730 
Q 2766 1069 2766 1631 
L 2766 1759 
L 2194 1759 
z
M 3341 1997 
L 3341 0 
L 2766 0 
L 2766 531 
Q 2569 213 2275 61 
Q 1981 -91 1556 -91 
Q 1019 -91 701 211 
Q 384 513 384 1019 
Q 384 1609 779 1909 
Q 1175 2209 1959 2209 
L 2766 2209 
L 2766 2266 
Q 2766 2663 2505 2880 
Q 2244 3097 1772 3097 
Q 1472 3097 1187 3025 
Q 903 2953 641 2809 
L 641 3341 
Q 956 3463 1253 3523 
Q 1550 3584 1831 3584 
Q 2591 3584 2966 3190 
Q 3341 2797 3341 1997 
z
" transform="scale(0.015625)"/>
       <path id="DejaVuSans-6d" d="M 3328 2828 
Q 3544 3216 3844 3400 
Q 4144 3584 4550 3584 
Q 5097 3584 5394 3201 
Q 5691 2819 5691 2113 
L 5691 0 
L 5113 0 
L 5113 2094 
Q 5113 2597 4934 2840 
Q 4756 3084 4391 3084 
Q 3944 3084 3684 2787 
Q 3425 2491 3425 1978 
L 3425 0 
L 2847 0 
L 2847 2094 
Q 2847 2600 2669 2842 
Q 2491 3084 2119 3084 
Q 1678 3084 1418 2786 
Q 1159 2488 1159 1978 
L 1159 0 
L 581 0 
L 581 3500 
L 1159 3500 
L 1159 2956 
Q 1356 3278 1631 3431 
Q 1906 3584 2284 3584 
Q 2666 3584 2933 3390 
Q 3200 3197 3328 2828 
z
" transform="scale(0.015625)"/>
       <path id="DejaVuSans-70" d="M 1159 525 
L 1159 -1331 
L 581 -1331 
L 581 3500 
L 1159 3500 
L 1159 2969 
Q 1341 3281 1617 3432 
Q 1894 3584 2278 3584 
Q 2916 3584 3314 3078 
Q 3713 2572 3713 1747 
Q 3713 922 3314 415 
Q 2916 -91 2278 -91 
Q 1894 -91 1617 61 
Q 1341 213 1159 525 
z
M 3116 1747 
Q 3116 2381 2855 2742 
Q 2594 3103 2138 3103 
Q 1681 3103 1420 2742 
Q 1159 2381 1159 1747 
Q 1159 1113 1420 752 
Q 1681 391 2138 391 
Q 2594 391 2855 752 
Q 3116 1113 3116 1747 
z
" transform="scale(0.015625)"/>
       <path id="DejaVuSans-6c" d="M 603 4863 
L 1178 4863 
L 1178 0 
L 603 0 
L 603 4863 
z
" transform="scale(0.015625)"/>
       <path id="DejaVuSans-65" d="M 3597 1894 
L 3597 1613 
L 953 1613 
Q 991 1019 1311 708 
Q 1631 397 2203 397 
Q 2534 397 2845 478 
Q 3156 559 3463 722 
L 3463 178 
Q 3153 47 2828 -22 
Q 2503 -91 2169 -91 
Q 1331 -91 842 396 
Q 353 884 353 1716 
Q 353 2575 817 3079 
Q 1281 3584 2069 3584 
Q 2775 3584 3186 3129 
Q 3597 2675 3597 1894 
z
M 3022 2063 
Q 3016 2534 2758 2815 
Q 2500 3097 2075 3097 
Q 1594 3097 1305 2825 
Q 1016 2553 972 2059 
L 3022 2063 
z
" transform="scale(0.015625)"/>
       <path id="DejaVuSans-73" d="M 2834 3397 
L 2834 2853 
Q 2591 2978 2328 3040 
Q 2066 3103 1784 3103 
Q 1356 3103 1142 2972 
Q 928 2841 928 2578 
Q 928 2378 1081 2264 
Q 1234 2150 1697 2047 
L 1894 2003 
Q 2506 1872 2764 1633 
Q 3022 1394 3022 966 
Q 3022 478 2636 193 
Q 2250 -91 1575 -91 
Q 1294 -91 989 -36 
Q 684 19 347 128 
L 347 722 
Q 666 556 975 473 
Q 1284 391 1588 391 
Q 1994 391 2212 530 
Q 2431 669 2431 922 
Q 2431 1156 2273 1281 
Q 2116 1406 1581 1522 
L 1381 1569 
Q 847 1681 609 1914 
Q 372 2147 372 2553 
Q 372 3047 722 3315 
Q 1072 3584 1716 3584 
Q 2034 3584 2315 3537 
Q 2597 3491 2834 3397 
z
" transform="scale(0.015625)"/>
      </defs>
      <use xlink:href="#DejaVuSans-53"/>
      <use xlink:href="#DejaVuSans-61" x="63.476562"/>
      <use xlink:href="#DejaVuSans-6d" x="124.755859"/>
      <use xlink:href="#DejaVuSans-70" x="222.167969"/>
      <use xlink:href="#DejaVuSans-6c" x="285.644531"/>
      <use xlink:href="#DejaVuSans-65" x="313.427734"/>
      <use xlink:href="#DejaVuSans-73" x="374.951172"/>
     </g>
    </g>
   </g>
   <g id="matplotlib.axis_2">
    <g id="ytick_1">
     <g id="line2d_13">
      <path d="M 55.19 227.968913 
L 709.2 227.968913 
" clip-path="url(#p5b233f1380)" style="fill: none; stroke: #b0b0b0; stroke-width: 0.8; stroke-linecap: square"/>
     </g>
     <g id="line2d_14">
      <defs>
       <path id="m680bab0afc" d="M 0 0 
L -3.5 0 
" style="stroke: #000000; stroke-width: 0.8"/>
      </defs>
      <g>
       <use xlink:href="#m680bab0afc" x="55.19" y="227.968913" style="stroke: #000000; stroke-width: 0.8"/>
      </g>
     </g>
     <g id="text_8">
      <!-- 0.0 -->
      <g transform="translate(29.10625 232.527976) scale(0.12 -0.12)">
       <defs>
        <path id="DejaVuSans-2e" d="M 684 794 
L 1344 794 
L 1344 0 
L 684 0 
L 684 794 
z
" transform="scale(0.015625)"/>
       </defs>
       <use xlink:href="#DejaVuSans-30"/>
       <use xlink:href="#DejaVuSans-2e" x="63.623047"/>
       <use xlink:href="#DejaVuSans-30" x="95.410156"/>
      </g>
     </g>
    </g>
    <g id="ytick_2">
     <g id="line2d_15">
      <path d="M 55.19 201.964984 
L 709.2 201.964984 
" clip-path="url(#p5b233f1380)" style="fill: none; stroke: #b0b0b0; stroke-width: 0.8; stroke-linecap: square"/>
     </g>
     <g id="line2d_16">
      <g>
       <use xlink:href="#m680bab0afc" x="55.19" y="201.964984" style="stroke: #000000; stroke-width: 0.8"/>
      </g>
     </g>
     <g id="text_9">
      <!-- 0.5 -->
      <g transform="translate(29.10625 206.524047) scale(0.12 -0.12)">
       <defs>
        <path id="DejaVuSans-35" d="M 691 4666 
L 3169 4666 
L 3169 4134 
L 1269 4134 
L 1269 2991 
Q 1406 3038 1543 3061 
Q 1681 3084 1819 3084 
Q 2600 3084 3056 2656 
Q 3513 2228 3513 1497 
Q 3513 744 3044 326 
Q 2575 -91 1722 -91 
Q 1428 -91 1123 -41 
Q 819 9 494 109 
L 494 744 
Q 775 591 1075 516 
Q 1375 441 1709 441 
Q 2250 441 2565 725 
Q 2881 1009 2881 1497 
Q 2881 1984 2565 2268 
Q 2250 2553 1709 2553 
Q 1456 2553 1204 2497 
Q 953 2441 691 2322 
L 691 4666 
z
" transform="scale(0.015625)"/>
       </defs>
       <use xlink:href="#DejaVuSans-30"/>
       <use xlink:href="#DejaVuSans-2e" x="63.623047"/>
       <use xlink:href="#DejaVuSans-35" x="95.410156"/>
      </g>
     </g>
    </g>
    <g id="ytick_3">
     <g id="line2d_17">
      <path d="M 55.19 175.961055 
L 709.2 175.961055 
" clip-path="url(#p5b233f1380)" style="fill: none; stroke: #b0b0b0; stroke-width: 0.8; stroke-linecap: square"/>
     </g>
     <g id="line2d_18">
      <g>
       <use xlink:href="#m680bab0afc" x="55.19" y="175.961055" style="stroke: #000000; stroke-width: 0.8"/>
      </g>
     </g>
     <g id="text_10">
      <!-- 1.0 -->
      <g transform="translate(29.10625 180.520118) scale(0.12 -0.12)">
       <use xlink:href="#DejaVuSans-31"/>
       <use xlink:href="#DejaVuSans-2e" x="63.623047"/>
       <use xlink:href="#DejaVuSans-30" x="95.410156"/>
      </g>
     </g>
    </g>
    <g id="ytick_4">
     <g id="line2d_19">
      <path d="M 55.19 149.957126 
L 709.2 149.957126 
" clip-path="url(#p5b233f1380)" style="fill: none; stroke: #b0b0b0; stroke-width: 0.8; stroke-linecap: square"/>
     </g>
     <g id="line2d_20">
      <g>
       <use xlink:href="#m680bab0afc" x="55.19" y="149.957126" style="stroke: #000000; stroke-width: 0.8"/>
      </g>
     </g>
     <g id="text_11">
      <!-- 1.5 -->
      <g transform="translate(29.10625 154.516189) scale(0.12 -0.12)">
       <use xlink:href="#DejaVuSans-31"/>
       <use xlink:href="#DejaVuSans-2e" x="63.623047"/>
       <use xlink:href="#DejaVuSans-35" x="95.410156"/>
      </g>
     </g>
    </g>
    <g id="ytick_5">
     <g id="line2d_21">
      <path d="M 55.19 123.953197 
L 709.2 123.953197 
" clip-path="url(#p5b233f1380)" style="fill: none; stroke: #b0b0b0; stroke-width: 0.8; stroke-linecap: square"/>
     </g>
     <g id="line2d_22">
      <g>
       <use xlink:href="#m680bab0afc" x="55.19" y="123.953197" style="stroke: #000000; stroke-width: 0.8"/>
      </g>
     </g>
     <g id="text_12">
      <!-- 2.0 -->
      <g transform="translate(29.10625 128.51226) scale(0.12 -0.12)">
       <use xlink:href="#DejaVuSans-32"/>
       <use xlink:href="#DejaVuSans-2e" x="63.623047"/>
       <use xlink:href="#DejaVuSans-30" x="95.410156"/>
      </g>
     </g>
    </g>
    <g id="ytick_6">
     <g id="line2d_23">
      <path d="M 55.19 97.949268 
L 709.2 97.949268 
" clip-path="url(#p5b233f1380)" style="fill: none; stroke: #b0b0b0; stroke-width: 0.8; stroke-linecap: square"/>
     </g>
     <g id="line2d_24">
      <g>
       <use xlink:href="#m680bab0afc" x="55.19" y="97.949268" style="stroke: #000000; stroke-width: 0.8"/>
      </g>
     </g>
     <g id="text_13">
      <!-- 2.5 -->
      <g transform="translate(29.10625 102.508331) scale(0.12 -0.12)">
       <use xlink:href="#DejaVuSans-32"/>
       <use xlink:href="#DejaVuSans-2e" x="63.623047"/>
       <use xlink:href="#DejaVuSans-35" x="95.410156"/>
      </g>
     </g>
    </g>
    <g id="ytick_7">
     <g id="line2d_25">
      <path d="M 55.19 71.945339 
L 709.2 71.945339 
" clip-path="url(#p5b233f1380)" style="fill: none; stroke: #b0b0b0; stroke-width: 0.8; stroke-linecap: square"/>
     </g>
     <g id="line2d_26">
      <g>
       <use xlink:href="#m680bab0afc" x="55.19" y="71.945339" style="stroke: #000000; stroke-width: 0.8"/>
      </g>
     </g>
     <g id="text_14">
      <!-- 3.0 -->
      <g transform="translate(29.10625 76.504402) scale(0.12 -0.12)">
       <defs>
        <path id="DejaVuSans-33" d="M 2597 2516 
Q 3050 2419 3304 2112 
Q 3559 1806 3559 1356 
Q 3559 666 3084 287 
Q 2609 -91 1734 -91 
Q 1441 -91 1130 -33 
Q 819 25 488 141 
L 488 750 
Q 750 597 1062 519 
Q 1375 441 1716 441 
Q 2309 441 2620 675 
Q 2931 909 2931 1356 
Q 2931 1769 2642 2001 
Q 2353 2234 1838 2234 
L 1294 2234 
L 1294 2753 
L 1863 2753 
Q 2328 2753 2575 2939 
Q 2822 3125 2822 3475 
Q 2822 3834 2567 4026 
Q 2313 4219 1838 4219 
Q 1578 4219 1281 4162 
Q 984 4106 628 3988 
L 628 4550 
Q 988 4650 1302 4700 
Q 1616 4750 1894 4750 
Q 2613 4750 3031 4423 
Q 3450 4097 3450 3541 
Q 3450 3153 3228 2886 
Q 3006 2619 2597 2516 
z
" transform="scale(0.015625)"/>
       </defs>
       <use xlink:href="#DejaVuSans-33"/>
       <use xlink:href="#DejaVuSans-2e" x="63.623047"/>
       <use xlink:href="#DejaVuSans-30" x="95.410156"/>
      </g>
     </g>
    </g>
    <g id="ytick_8">
     <g id="line2d_27">
      <path d="M 55.19 45.94141 
L 709.2 45.94141 
" clip-path="url(#p5b233f1380)" style="fill: none; stroke: #b0b0b0; stroke-width: 0.8; stroke-linecap: square"/>
     </g>
     <g id="line2d_28">
      <g>
       <use xlink:href="#m680bab0afc" x="55.19" y="45.94141" style="stroke: #000000; stroke-width: 0.8"/>
      </g>
     </g>
     <g id="text_15">
      <!-- 3.5 -->
      <g transform="translate(29.10625 50.500473) scale(0.12 -0.12)">
       <use xlink:href="#DejaVuSans-33"/>
       <use xlink:href="#DejaVuSans-2e" x="63.623047"/>
       <use xlink:href="#DejaVuSans-35" x="95.410156"/>
      </g>
     </g>
    </g>
    <g id="ytick_9">
     <g id="line2d_29">
      <path d="M 55.19 19.937481 
L 709.2 19.937481 
" clip-path="url(#p5b233f1380)" style="fill: none; stroke: #b0b0b0; stroke-width: 0.8; stroke-linecap: square"/>
     </g>
     <g id="line2d_30">
      <g>
       <use xlink:href="#m680bab0afc" x="55.19" y="19.937481" style="stroke: #000000; stroke-width: 0.8"/>
      </g>
     </g>
     <g id="text_16">
      <!-- 4.0 -->
      <g transform="translate(29.10625 24.496544) scale(0.12 -0.12)">
       <use xlink:href="#DejaVuSans-34"/>
       <use xlink:href="#DejaVuSans-2e" x="63.623047"/>
       <use xlink:href="#DejaVuSans-30" x="95.410156"/>
      </g>
     </g>
    </g>
    <g id="text_17">
     <!-- Range -->
     <g transform="translate(21.77875 150.1725) rotate(-90) scale(0.16 -0.16)">
      <defs>
       <path id="DejaVuSans-52" d="M 2841 2188 
Q 3044 2119 3236 1894 
Q 3428 1669 3622 1275 
L 4263 0 
L 3584 0 
L 2988 1197 
Q 2756 1666 2539 1819 
Q 2322 1972 1947 1972 
L 1259 1972 
L 1259 0 
L 628 0 
L 628 4666 
L 2053 4666 
Q 2853 4666 3247 4331 
Q 3641 3997 3641 3322 
Q 3641 2881 3436 2590 
Q 3231 2300 2841 2188 
z
M 1259 4147 
L 1259 2491 
L 2053 2491 
Q 2509 2491 2742 2702 
Q 2975 2913 2975 3322 
Q 2975 3731 2742 3939 
Q 2509 4147 2053 4147 
L 1259 4147 
z
" transform="scale(0.015625)"/>
       <path id="DejaVuSans-6e" d="M 3513 2113 
L 3513 0 
L 2938 0 
L 2938 2094 
Q 2938 2591 2744 2837 
Q 2550 3084 2163 3084 
Q 1697 3084 1428 2787 
Q 1159 2491 1159 1978 
L 1159 0 
L 581 0 
L 581 3500 
L 1159 3500 
L 1159 2956 
Q 1366 3272 1645 3428 
Q 1925 3584 2291 3584 
Q 2894 3584 3203 3211 
Q 3513 2838 3513 2113 
z
" transform="scale(0.015625)"/>
       <path id="DejaVuSans-67" d="M 2906 1791 
Q 2906 2416 2648 2759 
Q 2391 3103 1925 3103 
Q 1463 3103 1205 2759 
Q 947 2416 947 1791 
Q 947 1169 1205 825 
Q 1463 481 1925 481 
Q 2391 481 2648 825 
Q 2906 1169 2906 1791 
z
M 3481 434 
Q 3481 -459 3084 -895 
Q 2688 -1331 1869 -1331 
Q 1566 -1331 1297 -1286 
Q 1028 -1241 775 -1147 
L 775 -588 
Q 1028 -725 1275 -790 
Q 1522 -856 1778 -856 
Q 2344 -856 2625 -561 
Q 2906 -266 2906 331 
L 2906 616 
Q 2728 306 2450 153 
Q 2172 0 1784 0 
Q 1141 0 747 490 
Q 353 981 353 1791 
Q 353 2603 747 3093 
Q 1141 3584 1784 3584 
Q 2172 3584 2450 3431 
Q 2728 3278 2906 2969 
L 2906 3500 
L 3481 3500 
L 3481 434 
z
" transform="scale(0.015625)"/>
      </defs>
      <use xlink:href="#DejaVuSans-52"/>
      <use xlink:href="#DejaVuSans-61" x="67.232422"/>
      <use xlink:href="#DejaVuSans-6e" x="128.511719"/>
      <use xlink:href="#DejaVuSans-67" x="191.890625"/>
      <use xlink:href="#DejaVuSans-65" x="255.367188"/>
     </g>
    </g>
   </g>
   <g id="line2d_31">
    <path d="M 84.917727 79.144582 
L 85.453362 107.291417 
L 85.988997 117.404067 
L 86.524631 187.012727 
L 87.060266 85.549244 
L 87.595901 99.369858 
L 88.131536 103.920538 
L 89.73844 91.785383 
L 90.274075 95.998978 
L 90.809709 69.537577 
L 91.345344 64.144168 
L 91.880979 109.31396 
L 92.416613 93.302268 
L 92.952248 109.988128 
L 93.487883 112.347755 
L 94.023518 106.954333 
L 94.559152 58.413662 
L 95.094787 76.784956 
L 95.630422 91.111202 
L 96.166057 76.110787 
L 96.701691 53.020265 
L 97.237326 59.762024 
L 97.772961 69.369016 
L 98.308595 66.335234 
L 98.84423 67.17795 
L 99.379865 83.526727 
L 99.9155 67.17795 
L 100.451134 55.548415 
L 100.986769 73.751173 
L 101.522404 61.278909 
L 102.058038 88.414503 
L 102.593673 86.223425 
L 103.129308 74.08827 
L 103.664943 65.99815 
L 104.200577 49.143753 
L 104.736212 50.323554 
L 105.271847 60.099108 
L 105.807482 89.594304 
L 106.343116 65.492517 
L 106.878751 82.683997 
L 107.414386 81.672745 
L 107.95002 75.268058 
L 108.485655 85.21216 
L 109.02129 84.369443 
L 109.556925 208.923444 
L 110.092559 211.283058 
L 110.628194 168.809972 
L 111.163829 185.158742 
L 111.699464 125.999801 
L 112.235098 99.032774 
L 112.770733 173.192117 
L 113.306368 192.069046 
L 114.377637 166.955991 
L 114.913272 166.450358 
L 115.448907 203.024403 
L 115.984541 190.215061 
L 116.520176 203.361492 
L 117.055811 186.844185 
L 117.591446 191.394871 
L 118.12708 200.833331 
L 118.662715 192.069046 
L 119.19835 216.845011 
L 119.733984 191.563413 
L 120.269619 193.754486 
L 120.805254 220.047346 
L 122.412158 173.192117 
L 122.947793 176.731544 
L 123.483428 160.04569 
L 124.019062 161.899666 
L 124.554697 162.236762 
L 125.090332 158.865877 
L 125.625966 146.393625 
L 126.161601 166.281816 
L 127.232871 160.719865 
L 127.768505 163.416563 
L 128.30414 160.888407 
L 128.839775 160.551316 
L 129.37541 159.540051 
L 130.446679 185.664375 
L 130.982314 176.900089 
L 131.517948 172.686484 
L 132.053583 166.281816 
L 132.589218 158.360244 
L 133.124853 178.754071 
L 133.660487 164.427828 
L 134.196122 163.753654 
L 134.731757 177.911351 
L 135.267391 188.866712 
L 135.803026 183.136215 
L 136.338661 156.169178 
L 136.874296 149.764504 
L 137.40993 127.853789 
L 137.945565 175.383189 
L 138.4812 163.585105 
L 139.016835 188.023992 
L 139.552469 191.731956 
L 140.088104 166.787449 
L 140.623739 80.66148 
L 141.159373 83.358178 
L 141.695008 83.695275 
L 142.230643 84.875076 
L 142.766278 73.076992 
L 143.301912 73.919709 
L 143.837547 68.02068 
L 144.373182 72.739908 
L 144.908817 73.582625 
L 145.444451 84.200895 
L 145.980086 75.099522 
L 146.515721 87.403226 
L 147.051355 79.818751 
L 147.58699 86.223425 
L 148.122625 101.560936 
L 148.65826 85.380708 
L 149.193894 74.930974 
L 149.729529 92.122467 
L 150.265164 90.605569 
L 150.800799 91.27975 
L 151.336433 81.335648 
L 151.872068 83.189642 
L 152.407703 93.302268 
L 152.943337 88.583039 
L 153.478972 90.774105 
L 154.014607 93.470816 
L 154.550242 105.268899 
L 155.085876 101.89802 
L 155.621511 104.594731 
L 156.157146 117.066983 
L 156.692781 102.740737 
L 157.228415 101.729472 
L 157.76405 103.414918 
L 158.835319 110.662309 
L 159.370954 99.032774 
L 159.906589 107.122881 
L 160.442224 107.628514 
L 160.977858 104.763267 
L 161.513493 78.133317 
L 162.049128 79.818751 
L 162.584762 80.492932 
L 163.120397 115.718621 
L 163.656032 87.908871 
L 164.191667 105.437435 
L 164.727301 96.841695 
L 165.262936 85.043624 
L 165.798571 76.61642 
L 166.334206 111.167941 
L 166.86984 126.336892 
L 167.405475 104.42617 
L 167.94111 109.988128 
L 168.476744 110.999393 
L 169.012379 109.988128 
L 169.548014 125.831259 
L 170.083649 103.414918 
L 170.619283 65.323969 
L 171.154918 88.751588 
L 171.690553 45.604326 
L 172.226188 85.886341 
L 172.761822 77.459137 
L 173.297457 85.21216 
L 173.833092 52.346084 
L 174.368726 77.122052 
L 174.904361 82.852546 
L 175.439996 61.784541 
L 175.975631 74.08827 
L 176.511265 78.807498 
L 177.0469 73.751173 
L 177.582535 87.23469 
L 178.11817 136.618071 
L 178.653804 125.831259 
L 179.189439 94.144997 
L 179.725074 101.055291 
L 180.260708 79.650215 
L 180.796343 75.605167 
L 181.331978 132.573018 
L 181.867613 102.740737 
L 182.403247 99.706942 
L 182.938882 99.875478 
L 184.010152 139.314776 
L 184.545786 123.808729 
L 185.081421 73.414076 
L 185.617056 72.234276 
L 186.15269 84.875076 
L 186.688325 120.774946 
L 187.22396 85.043624 
L 187.759595 95.493346 
L 188.295229 89.762853 
L 188.830864 61.616005 
L 189.366499 60.60474 
L 189.902133 81.504184 
L 190.437768 52.009 
L 190.973403 74.425354 
L 191.509038 81.335648 
L 192.044672 82.178377 
L 192.580307 64.312704 
L 193.115942 67.346499 
L 193.651577 55.042783 
L 194.187211 39.199664 
L 194.722846 43.244712 
L 195.258481 27.233032 
L 195.794115 21.165455 
L 196.32975 57.908042 
L 196.865385 49.817934 
L 197.40102 38.862555 
L 197.936654 51.334832 
L 198.472289 32.120809 
L 199.007924 22.008159 
L 199.543559 25.716135 
L 200.079193 65.99815 
L 200.614828 52.51462 
L 201.150463 25.716135 
L 201.686097 22.008159 
L 202.221732 31.952261 
L 202.757367 31.109544 
L 203.293002 21.671075 
L 203.828636 56.728229 
L 204.364271 35.997321 
L 204.899906 33.637706 
L 205.435541 23.693617 
L 205.971175 41.727814 
L 206.50681 45.772874 
L 207.042445 53.357349 
L 207.578079 45.098706 
L 208.113714 64.986885 
L 208.649349 76.279336 
L 209.184984 81.841293 
L 209.720618 63.638535 
L 210.256253 74.425354 
L 210.791888 227.968913 
L 211.327523 227.968913 
L 211.863157 223.081138 
L 212.398792 107.122881 
L 212.934427 129.03359 
L 213.470061 85.549244 
L 214.005696 161.394033 
L 214.541331 204.709843 
L 215.076966 213.979761 
L 215.6126 168.978515 
L 216.148235 154.483733 
L 216.68387 184.821655 
L 217.219505 176.731544 
L 217.755139 161.225491 
L 218.290774 182.799128 
L 218.826409 193.923031 
L 219.362043 170.66396 
L 219.897678 165.776177 
L 220.433313 192.574678 
L 220.968948 175.046098 
L 221.504582 176.731544 
L 222.040217 198.13663 
L 222.575852 187.686902 
L 223.111486 194.091576 
L 223.647121 176.731544 
L 224.182756 186.338549 
L 224.718391 214.485393 
L 225.254025 215.833747 
L 225.78966 208.080722 
L 226.325295 216.002291 
L 226.86093 191.563413 
L 227.396564 197.462452 
L 227.932199 146.562167 
L 228.467834 176.731544 
L 229.003468 226.95765 
L 229.539103 227.968913 
L 230.074738 218.698995 
L 230.610373 227.968913 
L 231.146007 227.968913 
L 231.681642 219.204627 
L 232.217277 215.328114 
L 232.752912 227.968913 
L 234.89545 227.968913 
L 235.431085 221.564242 
L 235.96672 202.687315 
L 236.502355 123.808729 
L 237.037989 138.303511 
L 238.109259 51.166283 
L 238.644894 79.313118 
L 239.180528 87.403226 
L 239.716163 83.863811 
L 240.251798 47.795392 
L 240.787432 53.357349 
L 241.323067 56.05406 
L 241.858702 82.346913 
L 242.394337 55.885512 
L 242.929971 43.750344 
L 243.465606 54.537163 
L 244.001241 53.862982 
L 244.536876 41.727814 
L 245.07251 35.491688 
L 245.608145 56.222596 
L 246.14378 45.94141 
L 246.679414 74.930974 
L 247.215049 110.325212 
L 247.750684 95.493346 
L 248.286319 59.762024 
L 248.821953 64.312704 
L 249.357588 54.705699 
L 249.893223 51.334832 
L 250.428857 64.986885 
L 250.964492 47.458308 
L 251.500127 60.773289 
L 252.035762 45.267242 
L 252.571396 50.155018 
L 253.107031 50.997723 
L 253.642666 50.829187 
L 254.178301 36.165869 
L 254.713935 39.705284 
L 255.24957 54.537163 
L 255.785205 44.255977 
L 256.320839 60.436204 
L 256.856474 45.772874 
L 257.392109 54.874247 
L 257.927744 57.233874 
L 258.463378 51.166283 
L 259.534648 60.773289 
L 260.070283 48.469573 
L 260.605917 85.717792 
L 261.141552 56.728229 
L 261.677187 47.626856 
L 262.212821 30.098279 
L 262.748456 45.772874 
L 263.284091 46.952675 
L 263.819726 40.548013 
L 264.35536 72.739908 
L 264.890995 69.874661 
L 265.42663 54.537163 
L 265.962265 45.267242 
L 267.033534 52.51462 
L 267.569169 58.58221 
L 268.104803 92.459563 
L 268.640438 74.425354 
L 269.176073 71.728643 
L 269.711708 83.695275 
L 270.247342 85.380708 
L 270.782977 66.67233 
L 271.318612 78.63895 
L 271.854247 77.627685 
L 272.389881 80.155847 
L 272.925516 84.537979 
L 273.461151 72.065727 
L 273.996785 94.650629 
L 275.068055 117.404067 
L 275.60369 175.046098 
L 276.139324 190.552148 
L 276.674959 155.494998 
L 277.210594 186.338549 
L 277.746229 120.606398 
L 278.281863 114.875905 
L 278.817498 125.157078 
L 279.353133 172.3494 
L 279.888767 182.12495 
L 280.424402 227.968913 
L 280.960037 198.810804 
L 281.495672 227.968913 
L 282.031306 192.237591 
L 282.566941 227.968913 
L 283.102576 139.483318 
L 283.63821 125.999801 
L 284.173845 145.550902 
L 284.70948 178.079896 
L 285.780749 121.280567 
L 286.316384 134.932632 
L 286.852019 227.968913 
L 287.387654 176.05737 
L 287.923288 224.42949 
L 288.458923 194.42866 
L 288.994558 197.799539 
L 290.065827 165.944719 
L 291.137097 196.282645 
L 291.672731 177.237174 
L 292.208366 185.664375 
L 292.744001 187.012727 
L 293.279636 186.675637 
L 293.81527 212.125779 
L 294.350905 227.968913 
L 294.88654 181.282231 
L 295.422174 221.058611 
L 295.957809 166.6189 
L 296.493444 138.134969 
L 297.029079 159.540051 
L 297.564713 191.731956 
L 298.100348 173.023575 
L 298.635983 178.416984 
L 299.171618 176.225912 
L 299.707252 190.046519 
L 300.242887 227.968913 
L 301.314156 184.14748 
L 301.849791 218.53045 
L 302.385426 210.44034 
L 302.921061 191.563413 
L 303.456695 191.900504 
L 303.99233 194.091576 
L 304.527965 184.14748 
L 305.0636 197.799539 
L 305.599234 227.968913 
L 306.134869 168.809972 
L 306.670504 156.506263 
L 307.206138 150.101595 
L 308.277408 159.034419 
L 308.813043 130.044855 
L 309.348677 152.629751 
L 309.884312 227.968913 
L 310.419947 227.968913 
L 310.955581 147.573426 
L 312.026851 139.314776 
L 312.562486 205.889652 
L 313.09812 140.326041 
L 313.633755 144.202553 
L 314.16939 209.429076 
L 314.705025 224.598033 
L 315.240659 218.193363 
L 315.776294 171.843761 
L 316.311929 189.203799 
L 316.847563 167.124533 
L 317.383198 168.978515 
L 317.918833 179.933881 
L 318.454468 227.968913 
L 318.990102 227.968913 
L 319.525737 225.609298 
L 320.061372 192.574678 
L 320.597007 179.596791 
L 321.132641 160.214232 
L 321.668276 152.292667 
L 322.203911 163.416563 
L 322.739545 227.968913 
L 323.810815 227.968913 
L 324.34645 226.789106 
L 324.882084 178.585526 
L 325.417719 168.978515 
L 325.953354 228.306001 
L 326.488989 212.968497 
L 327.024623 227.968913 
L 327.560258 227.968913 
L 328.095893 162.573846 
L 328.631527 227.968913 
L 329.167162 194.765747 
L 329.702797 200.496244 
L 330.238432 224.598033 
L 330.774066 189.035254 
L 331.309701 172.012303 
L 331.845336 170.158328 
L 332.380971 171.675219 
L 333.45224 185.327287 
L 333.987875 174.034833 
L 334.523509 195.439925 
L 335.059144 184.821655 
L 335.594779 198.13663 
L 336.130414 170.832502 
L 336.666048 203.867123 
L 337.201683 223.755314 
L 337.737318 227.968913 
L 338.272952 192.911769 
L 338.808587 192.574678 
L 339.344222 194.260118 
L 339.879857 193.417398 
L 340.415491 197.29391 
L 340.951126 183.641845 
L 341.486761 183.136215 
L 342.022396 188.529621 
L 342.55803 186.170007 
L 343.093665 202.013138 
L 343.6293 176.562996 
L 344.164934 185.158742 
L 344.700569 182.293496 
L 345.236204 194.260118 
L 345.771839 187.349814 
L 346.307473 186.001462 
L 346.843108 171.338129 
L 347.378743 177.237174 
L 347.914378 218.193363 
L 348.450012 227.968913 
L 348.985647 197.799539 
L 349.521282 186.675637 
L 350.056916 184.316022 
L 350.592551 154.820823 
L 351.128186 208.754898 
L 351.663821 192.743221 
L 352.199455 172.012303 
L 352.73509 216.676467 
L 353.270725 208.923444 
L 353.80636 181.113688 
L 354.341994 183.810393 
L 354.877629 221.732786 
L 355.413264 227.968913 
L 355.948898 227.968913 
L 356.484533 220.721522 
L 357.020168 192.237591 
L 357.555803 198.642262 
L 358.091437 160.888407 
L 358.627072 186.001462 
L 359.162707 152.629751 
L 359.698342 140.326041 
L 360.233976 172.180858 
L 360.769611 218.193363 
L 361.305246 145.045269 
L 361.84088 227.968913 
L 362.376515 178.922616 
L 363.447785 150.944311 
L 363.983419 168.809972 
L 364.519054 161.225491 
L 365.054689 159.708594 
L 365.590324 170.32687 
L 366.125958 227.968913 
L 366.661593 178.248439 
L 367.197228 227.968913 
L 367.732862 182.799128 
L 368.268497 211.114514 
L 368.804132 184.316022 
L 369.339767 223.755314 
L 369.875401 169.652689 
L 370.411036 168.978515 
L 370.946671 160.214232 
L 371.482305 179.259704 
L 372.01794 189.877977 
L 372.553575 173.697749 
L 373.08921 189.709429 
L 373.624844 148.753239 
L 374.696114 132.235927 
L 375.231749 157.180437 
L 375.767383 157.68607 
L 376.303018 152.292667 
L 376.838653 168.809972 
L 377.374287 134.258457 
L 377.909922 127.516699 
L 378.445557 134.089915 
L 379.516826 209.429076 
L 380.052461 196.45119 
L 380.588096 166.281816 
L 381.123731 183.810393 
L 381.659365 157.180437 
L 382.195 163.248021 
L 382.730635 161.562581 
L 383.266269 162.910931 
L 383.801904 165.439093 
L 384.337539 164.259286 
L 384.873174 169.484147 
L 385.408808 186.844185 
L 385.944443 181.282231 
L 386.480078 162.573846 
L 387.015713 176.394454 
L 387.551347 157.517521 
L 388.086982 127.01106 
L 388.622617 134.932632 
L 389.158251 149.933046 
L 389.693886 137.966427 
L 390.229521 140.157499 
L 390.765156 133.921367 
L 391.30079 134.76409 
L 391.836425 136.112439 
L 392.37206 122.46038 
L 392.907695 123.471645 
L 393.443329 132.910102 
L 393.978964 122.966025 
L 394.514599 123.471645 
L 395.050233 127.853789 
L 395.585868 122.123296 
L 396.121503 107.291417 
L 396.657138 122.46038 
L 397.192772 126.673976 
L 397.728407 122.797464 
L 398.264042 120.943482 
L 398.799676 127.853789 
L 399.335311 96.504611 
L 399.870946 118.415332 
L 400.406581 122.291844 
L 401.47785 142.854197 
L 402.013485 110.156676 
L 402.54912 110.662309 
L 403.084754 123.977271 
L 403.620389 121.786211 
L 404.156024 130.550488 
L 404.691658 134.595541 
L 405.227293 127.34815 
L 405.762928 129.707771 
L 406.298563 120.437862 
L 406.834197 125.325627 
L 407.369832 119.595133 
L 407.905467 126.842518 
L 408.976736 125.157078 
L 409.512371 138.640601 
L 410.048006 165.102003 
L 410.58364 167.124533 
L 411.119275 122.123296 
L 411.65491 127.179608 
L 412.190545 116.055706 
L 412.726179 114.201736 
L 413.261814 124.819994 
L 413.797449 128.696506 
L 414.333084 116.898435 
L 414.868718 126.673976 
L 415.404353 114.707356 
L 415.939988 114.201736 
L 416.475622 115.718621 
L 417.011257 140.663125 
L 417.546892 138.977686 
L 418.082527 120.100766 
L 418.618161 121.617663 
L 419.153796 136.449529 
L 419.689431 159.202967 
L 420.225066 130.71903 
L 420.7607 158.191702 
L 421.296335 162.405304 
L 421.83197 177.237174 
L 422.367604 183.304757 
L 422.903239 191.900504 
L 423.438874 143.69692 
L 423.974509 133.752825 
L 424.510143 129.03359 
L 425.045778 105.605984 
L 425.581413 98.358593 
L 426.117048 112.179194 
L 426.652682 115.88717 
L 427.188317 111.336477 
L 427.723952 165.102003 
L 428.259586 172.517942 
L 428.795221 128.527958 
L 429.330856 106.280164 
L 429.866491 107.797062 
L 430.402125 126.842518 
L 430.93776 124.651446 
L 431.473395 138.472053 
L 432.009029 164.259286 
L 432.544664 139.988951 
L 433.080299 130.213403 
L 433.615934 133.078644 
L 434.151568 120.437862 
L 434.687203 130.044855 
L 435.222838 102.235104 
L 435.758473 103.414918 
L 436.294107 121.280567 
L 436.829742 93.639352 
L 437.365377 114.370272 
L 437.901011 111.167941 
L 438.436646 117.404067 
L 438.972281 117.572603 
L 439.507916 121.617663 
L 440.04355 115.381537 
L 440.579185 115.381537 
L 441.11482 133.921367 
L 441.650455 116.561338 
L 442.186089 120.100766 
L 442.721724 117.404067 
L 443.257359 104.089086 
L 443.792993 118.078236 
L 444.328628 91.111202 
L 445.399898 123.303109 
L 445.935532 118.415332 
L 446.471167 120.269314 
L 447.006802 111.673561 
L 447.542437 108.302695 
L 448.078071 88.414503 
L 448.613706 85.717792 
L 449.684975 85.717792 
L 450.22061 178.416984 
L 450.756245 157.348979 
L 451.29188 154.820823 
L 451.827514 121.112031 
L 452.363149 114.370272 
L 452.898784 105.77452 
L 453.434419 112.010646 
L 453.970053 205.721107 
L 454.505688 227.968913 
L 455.041323 227.968913 
L 455.576957 184.484565 
L 456.112592 159.371509 
L 456.648227 166.955991 
L 457.183862 191.394871 
L 457.719496 194.091576 
L 458.255131 207.575091 
L 458.790766 226.789106 
L 459.3264 209.429076 
L 459.862035 150.775769 
L 460.39767 152.629751 
L 461.468939 181.956408 
L 462.540209 123.640181 
L 463.075844 131.898843 
L 463.611478 133.752825 
L 464.147113 141.505842 
L 464.682748 151.618486 
L 465.218382 145.71945 
L 465.754017 173.529201 
L 466.289652 183.810393 
L 466.825287 189.709429 
L 467.360921 182.462038 
L 467.896556 142.854197 
L 468.432191 155.326455 
L 468.967826 147.910522 
L 469.50346 151.618486 
L 470.039095 140.831674 
L 470.57473 177.237174 
L 471.110364 221.90133 
L 471.645999 227.968913 
L 472.181634 218.361907 
L 472.717269 171.675219 
L 473.252903 167.630165 
L 473.788538 185.664375 
L 474.324173 175.888821 
L 474.859808 144.034011 
L 475.395442 147.236342 
L 475.931077 177.574261 
L 476.466712 217.856274 
L 477.002346 177.742809 
L 477.537981 162.405304 
L 478.073616 196.45119 
L 478.609251 210.103251 
L 479.144885 199.147895 
L 479.68052 196.45119 
L 480.216155 201.507509 
L 480.75179 216.170835 
L 481.287424 208.754898 
L 481.823059 215.833747 
L 482.358694 203.361492 
L 482.894328 227.968913 
L 483.429963 216.507923 
L 483.965598 227.968913 
L 484.501233 227.968913 
L 485.036867 209.766162 
L 485.572502 201.338967 
L 486.108137 204.372756 
L 486.643771 202.013138 
L 487.179406 192.069046 
L 487.715041 200.159157 
L 488.250676 197.29391 
L 488.78631 184.14748 
L 489.321945 186.675637 
L 489.85758 195.271383 
L 490.393215 227.968913 
L 490.928849 221.227154 
L 491.464484 220.384434 
L 492.000119 185.158742 
L 492.535753 176.731544 
L 493.071388 192.237591 
L 493.607023 154.820823 
L 494.142658 175.888821 
L 494.678292 182.799128 
L 495.213927 162.068214 
L 495.749562 227.800369 
L 496.820831 150.270137 
L 497.356466 161.394033 
L 498.427735 153.64101 
L 498.96337 164.427828 
L 499.499005 227.968913 
L 500.03464 194.091576 
L 500.570274 177.405719 
L 501.105909 177.068631 
L 501.641544 194.260118 
L 502.177179 183.810393 
L 502.712813 183.810393 
L 503.248448 187.855447 
L 503.784083 188.192534 
L 504.319717 182.293496 
L 504.855352 169.147063 
L 505.390987 189.035254 
L 505.926622 185.327287 
L 506.462256 225.609298 
L 506.997891 196.114103 
L 507.533526 179.259704 
L 508.069161 182.630583 
L 508.604795 196.282645 
L 509.14043 167.124533 
L 509.676065 161.731124 
L 510.211699 180.945143 
L 510.747334 163.416563 
L 511.282969 177.911351 
L 511.818604 179.428246 
L 512.889873 168.304346 
L 513.425508 173.697749 
L 514.496777 199.990612 
L 515.032412 165.607635 
L 515.568047 175.888821 
L 516.103681 171.506677 
L 516.639316 182.12495 
L 517.174951 187.349814 
L 517.710586 174.709014 
L 518.24622 171.169587 
L 518.781855 163.922196 
L 519.31749 183.641845 
L 519.853124 177.068631 
L 520.388759 176.225912 
L 520.924394 168.978515 
L 521.995663 189.203799 
L 522.531298 189.372341 
L 523.066933 158.528793 
L 523.602568 160.04569 
L 524.138202 176.05737 
L 524.673837 166.6189 
L 525.745106 164.427828 
L 526.280741 149.933046 
L 526.816376 193.754486 
L 527.352011 158.02316 
L 527.887645 160.719865 
L 528.42328 160.382774 
L 528.958915 174.034833 
L 529.49455 174.877556 
L 530.030184 200.327702 
L 530.565819 212.63141 
L 531.101454 159.540051 
L 531.637088 167.967249 
L 532.172723 182.12495 
L 532.708358 185.664375 
L 533.243993 178.754071 
L 533.779627 167.293075 
L 534.315262 167.293075 
L 534.850897 182.630583 
L 535.386532 168.64143 
L 535.922166 170.158328 
L 536.457801 177.574261 
L 536.993436 175.046098 
L 537.52907 174.709014 
L 538.064705 227.968913 
L 538.60034 227.968913 
L 539.135975 179.765336 
L 539.671609 175.383189 
L 540.207244 181.956408 
L 540.742879 213.979761 
L 541.278514 170.32687 
L 541.814148 167.630165 
L 542.349783 227.968913 
L 542.885418 200.664789 
L 543.421052 145.045269 
L 543.956687 177.237174 
L 544.492322 139.651866 
L 545.027957 145.382354 
L 545.563591 225.103666 
L 546.099226 227.968913 
L 546.634861 170.832502 
L 547.170495 167.630165 
L 547.70613 170.32687 
L 548.241765 135.606813 
L 548.7774 155.157907 
L 549.313034 194.42866 
L 549.848669 177.574261 
L 550.384304 183.136215 
L 550.919939 205.384019 
L 551.455573 164.933461 
L 551.991208 227.968913 
L 552.526843 228.474545 
L 553.062477 227.968913 
L 553.598112 208.080722 
L 554.133747 181.282231 
L 554.669382 188.192534 
L 555.205016 198.13663 
L 555.740651 178.416984 
L 556.276286 165.102003 
L 556.811921 188.361079 
L 557.347555 205.384019 
L 557.88319 185.327287 
L 558.418825 202.518772 
L 558.954459 209.429076 
L 559.490094 227.968913 
L 560.025729 227.968913 
L 560.561364 200.327702 
L 561.096998 225.609298 
L 561.632633 227.968913 
L 562.168268 186.507095 
L 562.703903 227.968913 
L 564.846441 227.968913 
L 565.382076 197.29391 
L 565.917711 212.799954 
L 566.453346 188.698164 
L 566.98898 174.877556 
L 567.524615 178.585526 
L 568.06025 204.709843 
L 568.595885 196.619732 
L 569.131519 190.552148 
L 569.667154 187.181269 
L 570.202789 197.125368 
L 570.738423 177.068631 
L 571.274058 224.260946 
L 571.809693 186.675637 
L 572.345328 196.114103 
L 572.880962 191.731956 
L 573.416597 228.306001 
L 573.952232 194.091576 
L 574.487867 195.102838 
L 575.023501 203.530036 
L 575.559136 227.968913 
L 578.23731 227.968913 
L 578.772944 210.945972 
L 579.308579 227.968913 
L 580.915483 227.968913 
L 581.451118 207.743635 
L 581.986753 227.968913 
L 582.522387 195.102838 
L 583.058022 227.968913 
L 583.593657 227.968913 
L 584.129292 200.159157 
L 584.664926 193.080311 
L 585.200561 211.114514 
L 585.736196 199.822069 
L 586.27183 164.596376 
L 586.807465 193.754486 
L 587.3431 185.49583 
L 587.878735 213.642675 
L 588.414369 203.361492 
L 588.950004 167.124533 
L 589.485639 157.180437 
L 590.021274 177.742809 
L 590.556908 181.956408 
L 591.092543 228.306001 
L 591.628178 187.181269 
L 592.163812 216.002291 
L 592.699447 208.080722 
L 593.235082 193.923031 
L 593.770717 227.968913 
L 594.841986 227.968913 
L 595.377621 209.260531 
L 595.913256 181.282231 
L 596.44889 205.552563 
L 596.984525 185.327287 
L 597.52016 182.799128 
L 598.055794 190.889239 
L 598.591429 227.968913 
L 599.127064 166.281816 
L 599.662699 165.102003 
L 600.198333 160.888407 
L 600.733968 182.799128 
L 601.269603 222.575506 
L 601.805238 159.540051 
L 602.340872 204.204211 
L 602.876507 218.361907 
L 603.412142 194.597205 
L 603.947776 128.022331 
L 604.483411 157.348979 
L 605.019046 177.574261 
L 605.554681 165.102003 
L 606.090315 176.225912 
L 606.62595 224.260946 
L 607.161585 166.955991 
L 607.697219 174.540472 
L 608.232854 152.629751 
L 608.768489 171.169587 
L 609.304124 155.832088 
L 609.839758 173.023575 
L 610.375393 211.957234 
L 610.911028 189.203799 
L 611.446663 193.754486 
L 611.982297 176.562996 
L 612.517932 177.911351 
L 613.053567 218.193363 
L 613.589201 227.968913 
L 614.660471 161.731124 
L 615.196106 173.529201 
L 615.73174 189.877977 
L 616.267375 160.719865 
L 616.80301 179.259704 
L 617.338645 154.146648 
L 617.874279 199.316437 
L 618.409914 170.32687 
L 618.945549 168.978515 
L 619.481183 163.416563 
L 620.016818 188.866712 
L 620.552453 167.630165 
L 621.088088 166.113274 
L 621.623722 167.630165 
L 622.159357 184.484565 
L 622.694992 169.315605 
L 623.230627 163.753654 
L 623.766261 219.204627 
L 624.301896 194.597205 
L 624.837531 163.416563 
L 625.373165 150.438679 
L 625.9088 131.730301 
L 626.444435 131.730301 
L 626.98007 124.482904 
L 628.051339 183.810393 
L 628.586974 197.125368 
L 629.122609 185.83292 
L 629.658243 193.754486 
L 630.193878 126.168343 
L 630.729513 128.527958 
L 631.265147 160.719865 
L 631.800782 183.304757 
L 632.336417 189.877977 
L 632.872052 192.069046 
L 633.407686 209.766162 
L 633.943321 161.225491 
L 634.478956 202.181684 
L 635.01459 153.64101 
L 635.550225 191.731956 
L 636.08586 159.034419 
L 636.621495 175.720279 
L 637.157129 168.978515 
L 637.692764 165.270551 
L 638.228399 197.799539 
L 639.299668 158.360244 
L 640.370938 167.798707 
L 640.906572 150.775769 
L 641.442207 175.720279 
L 641.977842 160.719865 
L 642.513477 210.44034 
L 643.049111 180.270966 
L 643.584746 180.102423 
L 644.120381 166.955991 
L 644.656016 164.090744 
L 645.19165 151.955576 
L 645.727285 158.191702 
L 646.26292 161.562581 
L 646.798554 136.786613 
L 647.334189 142.854197 
L 647.869824 122.797464 
L 648.405459 128.696506 
L 649.476728 187.181269 
L 650.012363 155.494998 
L 650.547998 178.079896 
L 651.083632 177.911351 
L 651.619267 177.574261 
L 652.154902 165.439093 
L 652.690536 128.359415 
L 653.226171 144.708185 
L 653.761806 127.34815 
L 654.297441 182.96767 
L 654.833075 178.416984 
L 655.36871 146.562167 
L 655.904345 145.887992 
L 656.43998 140.326041 
L 656.975614 138.809144 
L 657.511249 140.831674 
L 658.046884 132.404469 
L 658.582518 227.968913 
L 659.118153 191.057784 
L 659.653788 168.64143 
L 660.189423 220.552979 
L 660.725057 163.416563 
L 661.260692 141.168758 
L 661.796327 188.023992 
L 662.331962 217.856274 
L 662.867596 227.968913 
L 663.403231 197.125368 
L 664.4745 178.585526 
L 665.010135 198.305175 
L 665.54577 181.787863 
L 666.081405 181.787863 
L 666.617039 162.405304 
L 667.152674 200.664789 
L 667.688309 204.204211 
L 668.223943 176.731544 
L 668.759578 191.226326 
L 669.295213 179.428246 
L 669.830848 196.788277 
L 670.366482 197.799539 
L 670.902117 192.237591 
L 671.437752 195.60847 
L 671.973387 227.968913 
L 672.509021 197.29391 
L 673.044656 205.384019 
L 673.580291 204.035667 
L 674.115925 185.49583 
L 674.65156 186.507095 
L 675.187195 191.900504 
L 675.72283 211.957234 
L 676.258464 202.518772 
L 676.794099 169.98978 
L 677.329734 211.114514 
L 677.865369 159.708594 
L 678.401003 158.865877 
L 678.936638 166.113274 
L 679.472273 204.035667 
L 679.472273 204.035667 
" clip-path="url(#p5b233f1380)" style="fill: none; stroke: #1f77b4; stroke-opacity: 0.7; stroke-width: 1.5; stroke-linecap: square"/>
   </g>
   <g id="line2d_32">
    <path d="M 84.917727 111.499768 
L 85.453362 73.772525 
L 85.988997 107.904579 
L 86.524631 164.096367 
L 87.060266 172.518209 
L 87.595901 89.370602 
L 88.131536 101.361798 
L 88.66717 81.939263 
L 89.202805 85.675919 
L 89.73844 95.578594 
L 90.274075 72.659794 
L 90.809709 67.62435 
L 91.345344 65.134291 
L 91.880979 66.200065 
L 92.416613 79.59919 
L 92.952248 74.530081 
L 93.487883 104.952423 
L 94.023518 124.527567 
L 94.559152 103.061429 
L 95.094787 72.076478 
L 95.630422 51.197828 
L 96.166057 105.223058 
L 96.701691 85.969555 
L 97.237326 41.24646 
L 97.772961 44.667087 
L 98.308595 69.297161 
L 98.84423 79.970609 
L 99.379865 71.660395 
L 99.9155 93.842148 
L 100.451134 68.839391 
L 100.986769 68.95999 
L 101.522404 55.459398 
L 102.058038 64.84295 
L 102.593673 59.865213 
L 103.129308 108.037107 
L 103.664943 68.670991 
L 104.736212 53.676677 
L 105.271847 41.959638 
L 105.807482 47.327305 
L 106.343116 78.857444 
L 106.878751 69.195409 
L 107.414386 119.465569 
L 107.95002 99.560167 
L 108.485655 87.953448 
L 109.02129 83.374719 
L 109.556925 50.554361 
L 110.092559 182.296989 
L 110.628194 181.226339 
L 111.163829 153.961906 
L 111.699464 113.077684 
L 112.235098 145.97293 
L 112.770733 124.494566 
L 113.306368 187.918298 
L 113.842002 208.628715 
L 114.377637 146.22468 
L 114.913272 193.758593 
L 115.448907 160.124453 
L 115.984541 209.299973 
L 116.520176 160.484203 
L 117.591446 195.28001 
L 118.12708 188.822529 
L 118.662715 200.889415 
L 119.19835 199.672279 
L 119.733984 200.585425 
L 120.269619 198.201892 
L 120.805254 181.823236 
L 121.340889 208.369905 
L 121.876523 200.572539 
L 122.412158 155.61143 
L 122.947793 161.279516 
L 123.483428 158.219012 
L 124.019062 163.185924 
L 124.554697 164.499727 
L 125.090332 138.525874 
L 125.625966 130.854093 
L 126.161601 141.832814 
L 126.697236 142.268327 
L 127.232871 166.162693 
L 127.768505 160.457166 
L 128.30414 159.195961 
L 128.839775 145.036385 
L 129.911044 163.546177 
L 130.446679 161.094334 
L 130.982314 176.132297 
L 131.517948 168.300037 
L 132.053583 164.824685 
L 132.589218 148.777381 
L 133.124853 150.109505 
L 133.660487 174.495021 
L 134.196122 175.369543 
L 134.731757 164.195465 
L 135.267391 165.873291 
L 135.803026 161.702561 
L 136.338661 201.913762 
L 136.874296 181.218065 
L 137.945565 126.100871 
L 138.4812 184.424591 
L 139.016835 172.720087 
L 139.552469 177.236802 
L 140.623739 152.662963 
L 141.159373 103.510345 
L 141.695008 75.437834 
L 142.230643 74.741817 
L 142.766278 89.848683 
L 143.301912 71.055491 
L 143.837547 63.154081 
L 144.373182 95.143689 
L 144.908817 91.088486 
L 145.444451 69.20332 
L 145.980086 65.836297 
L 146.515721 86.491753 
L 147.051355 80.40937 
L 147.58699 123.182088 
L 148.122625 75.679813 
L 148.65826 95.802382 
L 149.193894 79.152431 
L 149.729529 70.384758 
L 150.265164 76.190381 
L 150.800799 73.775129 
L 151.336433 79.774881 
L 151.872068 77.644586 
L 152.407703 85.092169 
L 152.943337 97.165351 
L 153.478972 93.474982 
L 154.014607 82.055187 
L 154.550242 85.103192 
L 155.085876 96.332058 
L 155.621511 120.541957 
L 156.157146 95.229023 
L 156.692781 108.252823 
L 157.228415 91.556646 
L 157.76405 87.753144 
L 158.299685 90.907674 
L 158.835319 96.251336 
L 159.370954 113.111734 
L 159.906589 95.979189 
L 160.442224 108.712044 
L 160.977858 104.661726 
L 161.513493 103.875862 
L 162.049128 77.284922 
L 162.584762 71.43254 
L 163.120397 70.412111 
L 163.656032 134.144058 
L 164.191667 89.571228 
L 164.727301 138.752217 
L 165.262936 95.544073 
L 165.798571 77.562252 
L 166.334206 68.279522 
L 166.86984 88.108902 
L 167.405475 157.487415 
L 167.94111 174.341526 
L 168.476744 126.629095 
L 169.012379 103.582015 
L 169.548014 125.145286 
L 170.083649 133.023044 
L 170.619283 93.06536 
L 171.154918 82.765587 
L 171.690553 76.660104 
L 172.226188 52.603761 
L 173.297457 122.94936 
L 174.368726 59.221561 
L 174.904361 60.897893 
L 175.439996 68.711116 
L 176.511265 55.1935 
L 177.0469 61.722915 
L 177.582535 58.605509 
L 178.11817 71.099957 
L 178.653804 93.759207 
L 179.189439 103.905162 
L 179.725074 91.399481 
L 180.260708 58.063124 
L 181.331978 84.775035 
L 181.867613 88.058832 
L 182.403247 96.385488 
L 182.938882 94.098374 
L 183.474517 70.98991 
L 184.010152 93.728208 
L 184.545786 133.647322 
L 185.081421 115.494138 
L 185.617056 78.421212 
L 186.15269 52.719066 
L 186.688325 81.524334 
L 187.22396 167.154838 
L 187.759595 79.363089 
L 188.295229 74.359437 
L 188.830864 81.928041 
L 189.366499 78.095895 
L 189.902133 53.542253 
L 190.437768 45.741565 
L 190.973403 59.388918 
L 191.509038 48.054755 
L 192.044672 65.15831 
L 192.580307 70.54537 
L 193.115942 83.554576 
L 193.651577 51.583519 
L 194.187211 49.389936 
L 194.722846 60.778769 
L 195.258481 51.571144 
L 195.794115 34.431792 
L 196.32975 35.498471 
L 197.40102 91.87466 
L 197.936654 84.705808 
L 198.472289 53.152098 
L 199.007924 46.091086 
L 199.543559 40.786099 
L 200.079193 50.788491 
L 200.614828 49.973265 
L 201.686097 36.124256 
L 202.221732 43.423465 
L 202.757367 40.72637 
L 203.293002 34.830068 
L 203.828636 43.343996 
L 204.364271 46.506015 
L 204.899906 57.251407 
L 205.435541 50.583823 
L 205.971175 51.48059 
L 206.50681 50.554175 
L 207.042445 63.881333 
L 207.578079 54.995081 
L 208.113714 59.022038 
L 208.649349 65.60301 
L 209.184984 58.56247 
L 209.720618 56.714515 
L 210.256253 157.912227 
L 210.791888 53.805547 
L 211.327523 199.022221 
L 211.863157 209.68194 
L 212.398792 194.552421 
L 212.934427 111.683617 
L 213.470061 157.341694 
L 214.005696 182.735502 
L 214.541331 161.958477 
L 215.076966 206.090746 
L 215.6126 196.23229 
L 216.148235 204.259705 
L 216.68387 152.868345 
L 217.219505 191.225334 
L 217.755139 189.008682 
L 218.290774 196.017085 
L 218.826409 190.688225 
L 219.362043 210.290206 
L 220.433313 185.218679 
L 220.968948 187.409308 
L 221.504582 197.401136 
L 222.040217 132.933016 
L 222.575852 202.345368 
L 223.111486 194.115529 
L 223.647121 196.051091 
L 224.182756 200.86217 
L 224.718391 185.618605 
L 225.254025 185.396062 
L 225.78966 213.73996 
L 226.325295 191.263578 
L 226.86093 209.925641 
L 227.396564 187.532449 
L 227.932199 184.087965 
L 228.467834 197.80436 
L 229.003468 190.333034 
L 229.539103 211.121931 
L 230.074738 196.609363 
L 230.610373 219.18518 
L 231.146007 210.791735 
L 231.681642 211.862166 
L 232.217277 206.465088 
L 232.752912 212.077056 
L 233.824181 190.974418 
L 234.359816 216.814185 
L 234.89545 223.017585 
L 235.96672 219.94135 
L 236.502355 217.967083 
L 237.037989 145.545235 
L 237.573624 134.599447 
L 238.109259 120.22444 
L 238.644894 63.386339 
L 239.180528 57.648381 
L 239.716163 82.886409 
L 240.251798 69.684401 
L 240.787432 66.021461 
L 241.323067 59.431437 
L 241.858702 65.345544 
L 242.394337 80.668052 
L 242.929971 69.228516 
L 243.465606 42.638654 
L 244.001241 57.352439 
L 244.536876 64.647085 
L 245.07251 42.397891 
L 245.608145 43.791387 
L 246.14378 38.005219 
L 246.679414 45.47382 
L 247.215049 66.493577 
L 247.750684 67.795725 
L 248.286319 86.125034 
L 248.821953 64.64122 
L 249.357588 49.827234 
L 249.893223 53.432342 
L 250.428857 66.529983 
L 250.964492 55.746053 
L 251.500127 38.144182 
L 252.035762 49.419075 
L 252.571396 57.901941 
L 253.107031 44.871867 
L 253.642666 43.371622 
L 254.178301 51.099983 
L 254.713935 41.712029 
L 255.24957 40.857397 
L 255.785205 57.47186 
L 256.320839 47.523232 
L 256.856474 66.496032 
L 257.392109 62.959308 
L 257.927744 64.934558 
L 258.463378 54.395447 
L 258.999013 46.304075 
L 260.070283 56.396414 
L 260.605917 44.392931 
L 261.141552 52.887366 
L 261.677187 45.921571 
L 262.212821 40.531733 
L 262.748456 37.06059 
L 263.284091 41.943927 
L 263.819726 49.653255 
L 264.35536 42.002714 
L 264.890995 59.080068 
L 265.42663 66.939208 
L 265.962265 45.682617 
L 266.497899 44.303579 
L 267.033534 55.395652 
L 267.569169 55.339878 
L 268.104803 51.341986 
L 268.640438 69.840178 
L 269.176073 69.00908 
L 269.711708 59.092964 
L 270.247342 66.488965 
L 270.782977 60.906337 
L 271.854247 79.537279 
L 272.389881 85.109392 
L 272.925516 78.180833 
L 273.461151 66.222955 
L 273.996785 60.029062 
L 274.53242 90.486582 
L 275.068055 77.541904 
L 275.60369 90.127241 
L 276.139324 186.32885 
L 276.674959 147.129252 
L 277.210594 136.792342 
L 277.746229 145.893256 
L 278.281863 130.743736 
L 278.817498 166.053049 
L 279.353133 182.460574 
L 279.888767 177.03169 
L 280.424402 203.971672 
L 280.960037 171.259875 
L 282.031306 202.769041 
L 282.566941 202.624734 
L 283.102576 210.835694 
L 283.63821 179.380361 
L 284.173845 169.485418 
L 284.70948 178.073179 
L 285.245115 170.558607 
L 285.780749 173.210059 
L 286.316384 130.02633 
L 286.852019 188.362112 
L 287.387654 201.840849 
L 287.923288 182.8489 
L 288.458923 200.072093 
L 288.994558 172.365265 
L 289.530192 170.327924 
L 290.065827 188.253624 
L 290.601462 169.578378 
L 291.137097 197.21299 
L 291.672731 199.846962 
L 292.208366 185.701357 
L 293.279636 187.189146 
L 293.81527 182.034216 
L 294.88654 194.320393 
L 295.422174 180.0019 
L 295.957809 198.342622 
L 296.493444 185.616112 
L 297.029079 144.556848 
L 297.564713 196.850211 
L 298.100348 180.836944 
L 298.635983 203.677713 
L 299.171618 207.014192 
L 299.707252 177.595012 
L 300.242887 177.403168 
L 300.778522 192.005417 
L 301.849791 147.110194 
L 302.385426 199.636555 
L 302.921061 200.652579 
L 303.456695 179.019126 
L 303.99233 149.165186 
L 304.527965 206.51521 
L 305.0636 194.548543 
L 305.599234 204.852795 
L 306.134869 208.795617 
L 307.206138 143.332489 
L 307.741773 183.490135 
L 308.277408 179.94262 
L 308.813043 178.01859 
L 309.348677 152.894725 
L 309.884312 176.889599 
L 310.419947 190.076898 
L 310.955581 198.59701 
L 311.491216 199.869597 
L 312.026851 157.743424 
L 312.562486 177.974171 
L 313.09812 159.802589 
L 313.633755 218.959949 
L 314.16939 155.843427 
L 314.705025 207.783207 
L 315.240659 188.470072 
L 315.776294 196.330284 
L 316.311929 163.426191 
L 316.847563 177.100964 
L 317.383198 179.435441 
L 317.918833 189.115666 
L 318.454468 182.455481 
L 318.990102 208.496977 
L 319.525737 207.647772 
L 320.061372 190.710055 
L 321.132641 179.05108 
L 321.668276 183.016165 
L 322.203911 209.118957 
L 322.739545 199.448357 
L 323.27518 219.851901 
L 324.34645 172.98415 
L 324.882084 181.479041 
L 325.417719 162.609483 
L 325.953354 177.900158 
L 326.488989 187.634436 
L 327.024623 205.740135 
L 327.560258 170.716132 
L 328.095893 206.607041 
L 328.631527 169.776171 
L 329.167162 188.204897 
L 329.702797 202.251537 
L 330.238432 200.35371 
L 330.774066 184.227334 
L 331.309701 172.758433 
L 331.845336 158.479411 
L 332.916605 186.946525 
L 333.45224 186.385417 
L 333.987875 177.328109 
L 334.523509 181.545493 
L 335.059144 189.017684 
L 335.594779 176.341101 
L 336.130414 189.584586 
L 336.666048 174.880768 
L 337.201683 195.351987 
L 337.737318 197.142579 
L 338.272952 192.737371 
L 338.808587 193.184406 
L 339.344222 172.058579 
L 339.879857 181.746067 
L 340.415491 181.328029 
L 340.951126 193.657477 
L 341.486761 184.204026 
L 342.022396 160.210103 
L 342.55803 189.41848 
L 343.093665 158.941701 
L 343.6293 186.683954 
L 344.164934 191.62583 
L 344.700569 175.648628 
L 345.236204 183.846544 
L 345.771839 172.638312 
L 346.307473 174.090663 
L 346.843108 198.617169 
L 347.378743 195.802153 
L 347.914378 183.429141 
L 348.450012 191.38648 
L 348.985647 181.021413 
L 349.521282 166.040538 
L 350.056916 174.258591 
L 350.592551 202.574878 
L 351.128186 179.484019 
L 351.663821 187.275438 
L 352.199455 193.080429 
L 352.73509 173.554335 
L 353.270725 197.686408 
L 353.80636 199.209735 
L 354.341994 167.499845 
L 354.877629 179.106301 
L 355.413264 201.989027 
L 355.948898 194.372298 
L 356.484533 193.052396 
L 357.020168 193.448394 
L 357.555803 161.319108 
L 358.091437 212.005388 
L 358.627072 186.980178 
L 360.233976 150.817308 
L 360.769611 181.341501 
L 361.305246 187.84828 
L 361.84088 142.850632 
L 362.376515 210.155387 
L 362.91215 146.892605 
L 363.447785 149.797717 
L 363.983419 178.626993 
L 364.519054 142.504069 
L 365.054689 194.10688 
L 365.590324 163.330981 
L 366.125958 181.259211 
L 366.661593 188.227898 
L 367.197228 184.835846 
L 367.732862 176.068932 
L 368.268497 195.069486 
L 368.804132 181.705684 
L 369.339767 190.012067 
L 369.875401 175.046737 
L 370.411036 197.150666 
L 370.946671 161.100193 
L 372.01794 193.044054 
L 372.553575 202.39627 
L 373.08921 185.371365 
L 373.624844 181.255664 
L 374.160479 189.040484 
L 374.696114 155.696672 
L 375.231749 165.683304 
L 375.767383 188.276908 
L 376.303018 180.041364 
L 376.838653 185.103238 
L 377.374287 178.965122 
L 377.909922 137.156414 
L 378.445557 132.764505 
L 378.981192 149.637513 
L 379.516826 188.847647 
L 380.052461 203.345356 
L 380.588096 206.633706 
L 381.123731 187.902655 
L 381.659365 193.871433 
L 382.195 184.392631 
L 382.730635 194.095218 
L 383.266269 167.743895 
L 383.801904 190.150019 
L 384.337539 172.360801 
L 384.873174 179.898542 
L 385.408808 180.193412 
L 385.944443 181.443314 
L 386.480078 177.223264 
L 387.015713 181.104844 
L 387.551347 186.310411 
L 388.086982 181.150404 
L 388.622617 142.30472 
L 389.693886 206.154516 
L 390.229521 174.611417 
L 390.765156 165.010382 
L 391.30079 150.418498 
L 391.836425 142.022399 
L 392.37206 136.892624 
L 392.907695 130.552806 
L 393.443329 155.283943 
L 393.978964 151.460248 
L 394.514599 144.706387 
L 395.585868 134.657341 
L 396.121503 167.528848 
L 396.657138 135.34115 
L 397.192772 143.328862 
L 397.728407 139.204475 
L 398.264042 141.233843 
L 398.799676 139.27054 
L 399.335311 150.134714 
L 399.870946 131.087838 
L 400.406581 151.663149 
L 400.942215 152.149507 
L 401.47785 138.224872 
L 402.013485 155.859516 
L 402.54912 123.286159 
L 403.084754 121.09296 
L 403.620389 145.048202 
L 404.156024 146.567499 
L 404.691658 162.998435 
L 405.227293 154.916201 
L 405.762928 154.326394 
L 406.298563 130.318131 
L 406.834197 138.557456 
L 407.369832 140.447669 
L 407.905467 148.232535 
L 408.441102 148.415386 
L 408.976736 150.455474 
L 409.512371 138.890901 
L 410.048006 136.534163 
L 410.58364 159.721055 
L 411.119275 160.042857 
L 411.65491 128.171356 
L 412.190545 164.603934 
L 412.726179 136.196291 
L 413.261814 141.052338 
L 413.797449 148.976377 
L 414.333084 158.9526 
L 414.868718 127.797625 
L 415.404353 149.355155 
L 415.939988 158.258301 
L 416.475622 124.698881 
L 417.011257 168.530553 
L 417.546892 181.575212 
L 418.082527 172.951111 
L 418.618161 154.447302 
L 419.153796 158.530882 
L 419.689431 169.4591 
L 420.225066 155.808026 
L 420.7607 150.969588 
L 421.296335 186.748819 
L 421.83197 187.37307 
L 422.367604 187.221894 
L 422.903239 203.081293 
L 423.438874 194.675156 
L 423.974509 164.358719 
L 424.510143 157.497725 
L 425.045778 162.773729 
L 425.581413 158.270892 
L 426.652682 126.610496 
L 427.188317 132.15453 
L 427.723952 127.779218 
L 428.259586 166.105307 
L 428.795221 166.470892 
L 429.330856 146.640136 
L 429.866491 109.970954 
L 430.402125 136.326909 
L 430.93776 146.490441 
L 431.473395 169.714191 
L 432.009029 180.908546 
L 432.544664 178.759893 
L 433.080299 139.661991 
L 433.615934 137.653869 
L 434.151568 141.982961 
L 434.687203 132.137908 
L 435.222838 157.348434 
L 436.294107 118.47216 
L 436.829742 168.156877 
L 437.365377 107.479259 
L 437.901011 111.76579 
L 438.436646 133.501509 
L 438.972281 148.044488 
L 439.507916 171.331049 
L 440.04355 162.808993 
L 440.579185 133.16471 
L 441.11482 130.058916 
L 441.650455 162.86016 
L 442.186089 148.482549 
L 442.721724 141.925384 
L 443.257359 131.275377 
L 443.792993 135.024092 
L 444.328628 142.946661 
L 444.864263 95.752126 
L 445.935532 123.153098 
L 446.471167 138.729439 
L 447.006802 147.327944 
L 447.542437 138.889245 
L 448.078071 114.561276 
L 448.613706 96.168283 
L 449.149341 92.318691 
L 449.684975 91.372016 
L 450.22061 97.780088 
L 450.756245 195.844594 
L 451.29188 162.111718 
L 451.827514 174.251635 
L 452.363149 148.822751 
L 452.898784 142.373184 
L 453.434419 103.663965 
L 453.970053 131.712173 
L 454.505688 207.757411 
L 455.041323 217.484949 
L 455.576957 213.883884 
L 456.112592 151.06579 
L 456.648227 133.141045 
L 457.183862 179.784239 
L 457.719496 200.122283 
L 458.255131 210.527669 
L 458.790766 192.449668 
L 459.3264 184.345162 
L 459.862035 173.073167 
L 460.39767 175.283682 
L 460.933305 157.38996 
L 461.468939 172.422204 
L 462.004574 206.260309 
L 462.540209 188.278101 
L 463.075844 135.91818 
L 463.611478 132.340983 
L 464.147113 148.488005 
L 465.218382 171.379165 
L 465.754017 158.729028 
L 466.289652 157.152172 
L 466.825287 169.096875 
L 467.360921 194.298917 
L 467.896556 183.450977 
L 468.432191 145.55115 
L 468.967826 173.030686 
L 469.50346 140.340325 
L 470.039095 209.52352 
L 470.57473 181.002867 
L 471.110364 180.157679 
L 471.645999 188.21007 
L 472.181634 183.860577 
L 472.717269 173.261778 
L 473.252903 160.325996 
L 473.788538 193.37391 
L 474.324173 193.37727 
L 474.859808 207.752778 
L 475.395442 178.257943 
L 475.931077 173.111172 
L 476.466712 179.370032 
L 477.002346 177.321358 
L 477.537981 183.626404 
L 478.073616 181.430698 
L 478.609251 196.455133 
L 479.144885 185.591316 
L 479.68052 195.903467 
L 480.216155 154.472461 
L 480.75179 197.316772 
L 481.287424 194.336478 
L 481.823059 202.625163 
L 482.358694 189.565909 
L 482.894328 187.582106 
L 483.429963 192.092475 
L 483.965598 201.361048 
L 484.501233 190.853993 
L 485.036867 215.767816 
L 485.572502 192.789325 
L 486.108137 181.832409 
L 486.643771 189.443385 
L 487.179406 180.548358 
L 487.715041 195.658543 
L 488.250676 196.978745 
L 488.78631 189.468305 
L 489.321945 192.463705 
L 489.85758 197.964699 
L 490.393215 201.396104 
L 490.928849 199.133886 
L 491.464484 204.036783 
L 492.000119 168.296832 
L 492.535753 177.855649 
L 493.071388 192.795984 
L 493.607023 197.920504 
L 494.142658 180.558426 
L 494.678292 189.397044 
L 495.213927 177.518534 
L 495.749562 151.227699 
L 496.285197 190.641733 
L 496.820831 181.93863 
L 497.356466 160.05039 
L 497.892101 185.40402 
L 498.96337 169.086949 
L 499.499005 182.392404 
L 500.03464 199.857384 
L 501.105909 176.110871 
L 501.641544 179.000371 
L 502.177179 167.753728 
L 502.712813 191.52689 
L 503.248448 193.595358 
L 503.784083 198.954913 
L 504.319717 175.692392 
L 504.855352 170.555352 
L 505.926622 195.39471 
L 506.462256 182.738649 
L 506.997891 188.478687 
L 508.069161 162.030283 
L 508.604795 169.25494 
L 509.14043 199.319903 
L 509.676065 198.287502 
L 510.211699 192.473702 
L 510.747334 159.334571 
L 511.818604 180.438984 
L 512.354238 176.671161 
L 512.889873 166.321067 
L 513.425508 170.633048 
L 513.961143 188.92021 
L 514.496777 188.64633 
L 515.032412 190.319782 
L 515.568047 142.765813 
L 516.103681 172.980294 
L 516.639316 167.460687 
L 517.174951 203.162928 
L 517.710586 211.470181 
L 518.24622 186.836231 
L 518.781855 137.015914 
L 519.31749 155.057799 
L 519.853124 184.104361 
L 520.388759 186.480135 
L 520.924394 187.844985 
L 521.460029 183.538996 
L 521.995663 168.08853 
L 522.531298 169.648225 
L 523.066933 183.014823 
L 523.602568 168.959146 
L 524.138202 181.749136 
L 524.673837 165.474996 
L 525.209472 177.139009 
L 525.745106 184.480271 
L 526.280741 159.018306 
L 526.816376 156.261611 
L 527.352011 182.657794 
L 527.887645 166.135835 
L 528.42328 172.00195 
L 528.958915 180.196943 
L 529.49455 180.670085 
L 530.030184 184.751699 
L 530.565819 191.982983 
L 531.101454 196.921115 
L 531.637088 159.34322 
L 532.172723 187.532669 
L 532.708358 182.473114 
L 533.243993 187.625945 
L 533.779627 180.956359 
L 534.315262 184.884208 
L 534.850897 172.599959 
L 535.386532 184.733497 
L 535.922166 189.657071 
L 536.457801 168.499851 
L 536.993436 188.961712 
L 538.064705 174.448095 
L 538.60034 193.055363 
L 539.135975 205.573678 
L 539.671609 198.40219 
L 540.207244 165.167777 
L 540.742879 172.876025 
L 541.278514 194.81662 
L 541.814148 167.307093 
L 542.349783 186.194335 
L 542.885418 199.380391 
L 543.421052 208.57673 
L 543.956687 141.653422 
L 544.492322 148.194053 
L 545.027957 149.072741 
L 545.563591 142.733729 
L 546.099226 198.171656 
L 546.634861 213.214788 
L 547.170495 154.474613 
L 547.70613 161.548198 
L 548.241765 188.254294 
L 548.7774 124.075135 
L 549.313034 127.511509 
L 549.848669 186.357152 
L 550.384304 181.65063 
L 550.919939 182.337229 
L 551.455573 189.934904 
L 551.991208 160.267073 
L 552.526843 185.622371 
L 553.062477 190.590587 
L 553.598112 193.371631 
L 554.133747 198.107401 
L 554.669382 164.19089 
L 555.205016 182.563507 
L 555.740651 183.624036 
L 556.276286 182.503592 
L 556.811921 175.977348 
L 557.347555 182.898238 
L 557.88319 193.507364 
L 558.418825 171.098648 
L 558.954459 179.412616 
L 559.490094 193.795916 
L 560.025729 185.774391 
L 560.561364 183.802405 
L 561.096998 188.243311 
L 561.632633 175.473824 
L 562.168268 182.680383 
L 562.703903 187.008697 
L 563.239537 178.35895 
L 563.775172 196.20918 
L 564.310807 178.615595 
L 564.846441 180.416156 
L 565.382076 190.868097 
L 565.917711 176.304699 
L 566.453346 173.381937 
L 566.98898 197.068333 
L 568.06025 150.127349 
L 568.595885 194.257992 
L 569.131519 157.749878 
L 569.667154 158.728718 
L 570.202789 189.656634 
L 571.274058 176.9648 
L 571.809693 175.20761 
L 572.345328 191.516943 
L 572.880962 167.308004 
L 573.416597 188.268439 
L 573.952232 184.169189 
L 574.487867 187.763376 
L 575.023501 151.970877 
L 575.559136 178.298973 
L 576.094771 189.008 
L 576.630405 178.261607 
L 577.16604 183.31548 
L 577.701675 200.425857 
L 578.23731 184.706252 
L 578.772944 197.565016 
L 579.308579 181.3327 
L 580.379848 195.396734 
L 580.915483 189.220768 
L 581.451118 191.564601 
L 581.986753 199.243391 
L 582.522387 189.38113 
L 583.058022 198.227243 
L 583.593657 182.299292 
L 584.129292 194.056231 
L 584.664926 184.317619 
L 585.200561 165.157522 
L 585.736196 187.39768 
L 586.27183 185.963758 
L 586.807465 159.635764 
L 587.3431 178.800117 
L 587.878735 188.418502 
L 588.414369 183.834247 
L 588.950004 194.896945 
L 589.485639 168.873 
L 590.021274 136.763451 
L 590.556908 171.417108 
L 591.092543 191.335592 
L 591.628178 185.323258 
L 592.163812 192.166789 
L 592.699447 179.452493 
L 593.235082 172.997331 
L 593.770717 158.955346 
L 594.306351 179.539935 
L 594.841986 179.514767 
L 595.377621 178.960782 
L 595.913256 153.595497 
L 596.44889 161.670415 
L 596.984525 182.377869 
L 597.52016 184.682646 
L 598.055794 167.323442 
L 598.591429 190.928381 
L 599.127064 193.319044 
L 599.662699 160.499753 
L 600.198333 149.434246 
L 600.733968 183.38308 
L 601.269603 187.274034 
L 601.805238 198.388473 
L 602.340872 144.493498 
L 602.876507 187.097956 
L 603.412142 195.06116 
L 603.947776 208.699024 
L 604.483411 171.608974 
L 605.019046 165.167504 
L 605.554681 146.77996 
L 606.090315 149.934491 
L 606.62595 189.086771 
L 607.161585 201.347823 
L 607.697219 141.11725 
L 608.232854 144.676597 
L 608.768489 157.886194 
L 609.304124 186.471641 
L 609.839758 187.632349 
L 610.375393 177.438262 
L 611.446663 200.206731 
L 611.982297 184.52721 
L 612.517932 183.200405 
L 613.053567 192.747951 
L 613.589201 193.51127 
L 614.124836 184.406748 
L 614.660471 205.067222 
L 615.196106 160.819477 
L 615.73174 167.414604 
L 616.267375 185.819469 
L 617.338645 164.152066 
L 617.874279 192.922451 
L 618.409914 200.227969 
L 618.945549 167.258821 
L 619.481183 172.418993 
L 620.016818 152.698203 
L 620.552453 161.940628 
L 621.088088 152.203631 
L 621.623722 159.244122 
L 622.159357 180.555116 
L 622.694992 184.19401 
L 623.230627 148.866807 
L 623.766261 144.139073 
L 624.301896 192.875283 
L 624.837531 197.349566 
L 625.373165 146.839076 
L 625.9088 120.948244 
L 626.444435 151.608603 
L 626.98007 129.847509 
L 627.515704 125.95975 
L 628.051339 142.225914 
L 628.586974 174.831423 
L 629.122609 179.367004 
L 629.658243 172.861338 
L 630.193878 194.583935 
L 630.729513 185.891756 
L 631.265147 121.409002 
L 631.800782 184.531875 
L 632.872052 159.810574 
L 633.407686 193.204658 
L 633.943321 215.518232 
L 634.478956 198.438945 
L 635.01459 195.003027 
L 635.550225 122.230677 
L 636.08586 169.029775 
L 636.621495 165.996618 
L 637.157129 184.191164 
L 637.692764 140.746996 
L 638.228399 157.883106 
L 638.764034 189.754334 
L 639.299668 174.589451 
L 639.835303 147.04964 
L 640.906572 133.253225 
L 641.442207 162.971106 
L 642.513477 193.029528 
L 643.049111 203.089232 
L 643.584746 197.982865 
L 644.120381 146.05832 
L 644.656016 151.03662 
L 645.19165 144.42194 
L 645.727285 122.965913 
L 646.26292 131.348696 
L 646.798554 174.311488 
L 647.334189 174.557577 
L 647.869824 168.187895 
L 648.405459 133.665717 
L 648.941093 148.052039 
L 649.476728 178.492364 
L 650.012363 194.175574 
L 650.547998 188.028034 
L 651.083632 195.588234 
L 651.619267 167.265008 
L 652.154902 171.655504 
L 652.690536 170.774224 
L 653.226171 120.173762 
L 653.761806 160.358769 
L 654.297441 147.691036 
L 654.833075 171.108574 
L 655.36871 188.669307 
L 655.904345 137.721602 
L 656.43998 139.24421 
L 656.975614 196.916756 
L 657.511249 182.006289 
L 658.046884 149.877 
L 658.582518 170.36516 
L 659.118153 195.36478 
L 659.653788 187.752924 
L 660.189423 166.246409 
L 660.725057 194.391799 
L 661.260692 192.808458 
L 661.796327 155.006979 
L 662.331962 189.244678 
L 662.867596 190.802007 
L 663.403231 185.40357 
L 663.938866 199.72932 
L 664.4745 170.800797 
L 665.54577 194.229457 
L 666.081405 176.998915 
L 666.617039 190.882543 
L 667.152674 201.634891 
L 667.688309 187.823691 
L 668.223943 194.092773 
L 668.759578 165.408094 
L 669.295213 170.985148 
L 669.830848 199.564591 
L 670.366482 191.499202 
L 670.902117 187.847973 
L 671.437752 195.939237 
L 671.973387 192.397212 
L 672.509021 191.113204 
L 673.044656 206.158428 
L 673.580291 185.325508 
L 674.115925 196.517953 
L 674.65156 189.875233 
L 675.187195 181.021503 
L 675.72283 178.233717 
L 676.258464 201.932996 
L 676.794099 197.259572 
L 677.329734 181.670417 
L 677.865369 182.395855 
L 678.401003 203.800449 
L 678.936638 157.746258 
L 679.472273 172.283421 
L 679.472273 172.283421 
" clip-path="url(#p5b233f1380)" style="fill: none; stroke: #ff7f0e; stroke-opacity: 0.7; stroke-width: 1.5; stroke-linecap: square"/>
   </g>
   <g id="patch_3">
    <path d="M 55.19 238.84 
L 55.19 10.8 
" style="fill: none; stroke: #000000; stroke-width: 0.8; stroke-linejoin: miter; stroke-linecap: square"/>
   </g>
   <g id="patch_4">
    <path d="M 709.2 238.84 
L 709.2 10.8 
" style="fill: none; stroke: #000000; stroke-width: 0.8; stroke-linejoin: miter; stroke-linecap: square"/>
   </g>
   <g id="patch_5">
    <path d="M 55.19 238.84 
L 709.2 238.84 
" style="fill: none; stroke: #000000; stroke-width: 0.8; stroke-linejoin: miter; stroke-linecap: square"/>
   </g>
   <g id="patch_6">
    <path d="M 55.19 10.8 
L 709.2 10.8 
" style="fill: none; stroke: #000000; stroke-width: 0.8; stroke-linejoin: miter; stroke-linecap: square"/>
   </g>
   <g id="legend_1">
    <g id="patch_7">
     <path d="M 543.289062 63.09875 
L 699.4 63.09875 
Q 702.2 63.09875 702.2 60.29875 
L 702.2 20.6 
Q 702.2 17.8 699.4 17.8 
L 543.289062 17.8 
Q 540.489063 17.8 540.489063 20.6 
L 540.489063 60.29875 
Q 540.489063 63.09875 543.289062 63.09875 
z
" style="fill: #ffffff; opacity: 0.8; stroke: #cccccc; stroke-linejoin: miter"/>
    </g>
    <g id="line2d_33">
     <path d="M 546.089063 29.137813 
L 560.089063 29.137813 
L 574.089063 29.137813 
" style="fill: none; stroke: #1f77b4; stroke-opacity: 0.7; stroke-width: 1.5; stroke-linecap: square"/>
    </g>
    <g id="text_18">
     <!-- Actual -->
     <g transform="translate(585.289063 34.037813) scale(0.14 -0.14)">
      <defs>
       <path id="DejaVuSans-41" d="M 2188 4044 
L 1331 1722 
L 3047 1722 
L 2188 4044 
z
M 1831 4666 
L 2547 4666 
L 4325 0 
L 3669 0 
L 3244 1197 
L 1141 1197 
L 716 0 
L 50 0 
L 1831 4666 
z
" transform="scale(0.015625)"/>
       <path id="DejaVuSans-63" d="M 3122 3366 
L 3122 2828 
Q 2878 2963 2633 3030 
Q 2388 3097 2138 3097 
Q 1578 3097 1268 2742 
Q 959 2388 959 1747 
Q 959 1106 1268 751 
Q 1578 397 2138 397 
Q 2388 397 2633 464 
Q 2878 531 3122 666 
L 3122 134 
Q 2881 22 2623 -34 
Q 2366 -91 2075 -91 
Q 1284 -91 818 406 
Q 353 903 353 1747 
Q 353 2603 823 3093 
Q 1294 3584 2113 3584 
Q 2378 3584 2631 3529 
Q 2884 3475 3122 3366 
z
" transform="scale(0.015625)"/>
       <path id="DejaVuSans-74" d="M 1172 4494 
L 1172 3500 
L 2356 3500 
L 2356 3053 
L 1172 3053 
L 1172 1153 
Q 1172 725 1289 603 
Q 1406 481 1766 481 
L 2356 481 
L 2356 0 
L 1766 0 
Q 1100 0 847 248 
Q 594 497 594 1153 
L 594 3053 
L 172 3053 
L 172 3500 
L 594 3500 
L 594 4494 
L 1172 4494 
z
" transform="scale(0.015625)"/>
       <path id="DejaVuSans-75" d="M 544 1381 
L 544 3500 
L 1119 3500 
L 1119 1403 
Q 1119 906 1312 657 
Q 1506 409 1894 409 
Q 2359 409 2629 706 
Q 2900 1003 2900 1516 
L 2900 3500 
L 3475 3500 
L 3475 0 
L 2900 0 
L 2900 538 
Q 2691 219 2414 64 
Q 2138 -91 1772 -91 
Q 1169 -91 856 284 
Q 544 659 544 1381 
z
M 1991 3584 
L 1991 3584 
z
" transform="scale(0.015625)"/>
      </defs>
      <use xlink:href="#DejaVuSans-41"/>
      <use xlink:href="#DejaVuSans-63" x="66.658203"/>
      <use xlink:href="#DejaVuSans-74" x="121.638672"/>
      <use xlink:href="#DejaVuSans-75" x="160.847656"/>
      <use xlink:href="#DejaVuSans-61" x="224.226562"/>
      <use xlink:href="#DejaVuSans-6c" x="285.505859"/>
     </g>
    </g>
    <g id="line2d_34">
     <path d="M 546.089063 49.687188 
L 560.089063 49.687188 
L 574.089063 49.687188 
" style="fill: none; stroke: #ff7f0e; stroke-opacity: 0.7; stroke-width: 1.5; stroke-linecap: square"/>
    </g>
    <g id="text_19">
     <!-- LSTM Prediction -->
     <g transform="translate(585.289063 54.587188) scale(0.14 -0.14)">
      <defs>
       <path id="DejaVuSans-4c" d="M 628 4666 
L 1259 4666 
L 1259 531 
L 3531 531 
L 3531 0 
L 628 0 
L 628 4666 
z
" transform="scale(0.015625)"/>
       <path id="DejaVuSans-54" d="M -19 4666 
L 3928 4666 
L 3928 4134 
L 2272 4134 
L 2272 0 
L 1638 0 
L 1638 4134 
L -19 4134 
L -19 4666 
z
" transform="scale(0.015625)"/>
       <path id="DejaVuSans-4d" d="M 628 4666 
L 1569 4666 
L 2759 1491 
L 3956 4666 
L 4897 4666 
L 4897 0 
L 4281 0 
L 4281 4097 
L 3078 897 
L 2444 897 
L 1241 4097 
L 1241 0 
L 628 0 
L 628 4666 
z
" transform="scale(0.015625)"/>
       <path id="DejaVuSans-20" transform="scale(0.015625)"/>
       <path id="DejaVuSans-50" d="M 1259 4147 
L 1259 2394 
L 2053 2394 
Q 2494 2394 2734 2622 
Q 2975 2850 2975 3272 
Q 2975 3691 2734 3919 
Q 2494 4147 2053 4147 
L 1259 4147 
z
M 628 4666 
L 2053 4666 
Q 2838 4666 3239 4311 
Q 3641 3956 3641 3272 
Q 3641 2581 3239 2228 
Q 2838 1875 2053 1875 
L 1259 1875 
L 1259 0 
L 628 0 
L 628 4666 
z
" transform="scale(0.015625)"/>
       <path id="DejaVuSans-72" d="M 2631 2963 
Q 2534 3019 2420 3045 
Q 2306 3072 2169 3072 
Q 1681 3072 1420 2755 
Q 1159 2438 1159 1844 
L 1159 0 
L 581 0 
L 581 3500 
L 1159 3500 
L 1159 2956 
Q 1341 3275 1631 3429 
Q 1922 3584 2338 3584 
Q 2397 3584 2469 3576 
Q 2541 3569 2628 3553 
L 2631 2963 
z
" transform="scale(0.015625)"/>
       <path id="DejaVuSans-64" d="M 2906 2969 
L 2906 4863 
L 3481 4863 
L 3481 0 
L 2906 0 
L 2906 525 
Q 2725 213 2448 61 
Q 2172 -91 1784 -91 
Q 1150 -91 751 415 
Q 353 922 353 1747 
Q 353 2572 751 3078 
Q 1150 3584 1784 3584 
Q 2172 3584 2448 3432 
Q 2725 3281 2906 2969 
z
M 947 1747 
Q 947 1113 1208 752 
Q 1469 391 1925 391 
Q 2381 391 2643 752 
Q 2906 1113 2906 1747 
Q 2906 2381 2643 2742 
Q 2381 3103 1925 3103 
Q 1469 3103 1208 2742 
Q 947 2381 947 1747 
z
" transform="scale(0.015625)"/>
       <path id="DejaVuSans-69" d="M 603 3500 
L 1178 3500 
L 1178 0 
L 603 0 
L 603 3500 
z
M 603 4863 
L 1178 4863 
L 1178 4134 
L 603 4134 
L 603 4863 
z
" transform="scale(0.015625)"/>
       <path id="DejaVuSans-6f" d="M 1959 3097 
Q 1497 3097 1228 2736 
Q 959 2375 959 1747 
Q 959 1119 1226 758 
Q 1494 397 1959 397 
Q 2419 397 2687 759 
Q 2956 1122 2956 1747 
Q 2956 2369 2687 2733 
Q 2419 3097 1959 3097 
z
M 1959 3584 
Q 2709 3584 3137 3096 
Q 3566 2609 3566 1747 
Q 3566 888 3137 398 
Q 2709 -91 1959 -91 
Q 1206 -91 779 398 
Q 353 888 353 1747 
Q 353 2609 779 3096 
Q 1206 3584 1959 3584 
z
" transform="scale(0.015625)"/>
      </defs>
      <use xlink:href="#DejaVuSans-4c"/>
      <use xlink:href="#DejaVuSans-53" x="55.712891"/>
      <use xlink:href="#DejaVuSans-54" x="119.189453"/>
      <use xlink:href="#DejaVuSans-4d" x="180.273438"/>
      <use xlink:href="#DejaVuSans-20" x="266.552734"/>
      <use xlink:href="#DejaVuSans-50" x="298.339844"/>
      <use xlink:href="#DejaVuSans-72" x="356.892578"/>
      <use xlink:href="#DejaVuSans-65" x="395.755859"/>
      <use xlink:href="#DejaVuSans-64" x="457.279297"/>
      <use xlink:href="#DejaVuSans-69" x="520.755859"/>
      <use xlink:href="#DejaVuSans-63" x="548.539062"/>
      <use xlink:href="#DejaVuSans-74" x="603.519531"/>
      <use xlink:href="#DejaVuSans-69" x="642.728516"/>
      <use xlink:href="#DejaVuSans-6f" x="670.511719"/>
      <use xlink:href="#DejaVuSans-6e" x="731.693359"/>
     </g>
    </g>
   </g>
  </g>
 </g>
 <defs>
  <clipPath id="p5b233f1380">
   <rect x="55.19" y="10.8" width="654.01" height="228.04"/>
  </clipPath>
 </defs>
</svg>
